<mxfile host="app.diagrams.net" agent="Mozilla/5.0 (Windows NT 10.0; Win64; x64) AppleWebKit/537.36 (KHTML, like Gecko) Chrome/133.0.0.0 Safari/537.36" version="26.0.16">
  <diagram name="Page-1" id="I_3hXdc2wsE2CQXkc89h">
    <mxGraphModel dx="3096" dy="1592" grid="1" gridSize="10" guides="1" tooltips="1" connect="0" arrows="0" fold="1" page="1" pageScale="1" pageWidth="1920" pageHeight="1080" math="0" shadow="0">
      <root>
        <mxCell id="0" />
        <mxCell id="1" parent="0" />
        <mxCell id="0SyLPq6XLWBUC0CSMQzq-2" value="" style="shape=image;verticalLabelPosition=bottom;labelBackgroundColor=default;verticalAlign=top;aspect=fixed;imageAspect=0;image=data:image/png,iVBORw0KGgoAAAANSUhEUgAABB0AAAJvCAYAAAA3P6luAAAAAXNSR0IArs4c6QAAAARnQU1BAACxjwv8YQUAAAAJcEhZcwAAEnQAABJ0Ad5mH3gAAAASdEVYdFNvZnR3YXJlAEdyZWVuc2hvdF5VCAUAAKTFSURBVHhe7f3tsyzZWd95808QvOXJMlKfFghJLbwFG5BozpENoksPhyOhELAx51ghgbspzhFhGSFpnwaHb8kEvUFtJI3twbTdzYM9LTAyuNHtGAPWi4l5RRAzMROD5w9wBC/vmIiJvPeVVVn7qqt+WbWyqrJyZa7vi0+cU5Urs3KtlWvXWr+dVfvrvv3bv70CAAAAAAA4NkIHAAAAAADQC0IHAAAAAADQi7XQ4W//7b+NCfN9jTKo6wAAAADInZrbYpw2Qocf/MEfxAQxcMvEmAYAAMDYsHaZFkKHQuwauE8++WTtW7/1W6tv+qZv2pvtb8dRr4HTY0wDAABgbFi7TAuhQyG2DVwbaE+84dtqn//cL1d/+Adfrr761a92ZvvZ/nacW7du1dTr4XQY0wAAABgb1i7TQuhQCAZumRjTAAAAGBvWLtNC6FCIbQPXbiuyAWdeffXV6ld/9VerT33qU53Zfra/HceOadTrbfO3/tbfkrc+ve51r5Pl9/HGN76xZq/1zd/8zWuvY4/teduu9h0bxjQAAADGhrXLjSmsXQgdCrFt4NoFa0mf2XfQNmx/O04zENTreZZUvv71r189tsH+8Y9/vPrTP/3TFXv8Ld/yLfVgsnqYfQfWG97whtW5/fiP/3h9vv/u3/27FXtsz9sAtrJGHWcXO77VxX4IGFWmYdubH3QpbdYFYxoAAABjw9plYSprF0KHQuwauM1tRmowdmXHaQaHej3PBuSTb3xyVd78xm/8xtrAtcfxeDaw/HFS2CD8ju/4jvp4/jX+6I/+qPqd3/md2muvvVY/9+u//ut1WbPP4LVBaMf52Mc+VmsbvPb8z/zMz6zOxfZT5fbFmAYAAMDYsHaZ1tqF0KEQhw/c56pnnviG6hueeKZ6Tm6/kTpwLSW0gWED57d/+7drv/mbv7m6iL0vfOEL1UsvvVSXNW9605vWUsZdLF208/ED9t/+239b/cAP/ED9Q6A5Xxuk//gf/+N6uw1eY9u7ppM2IH/u535u9Vo2OOPgtcc/+7M/W2+3sqZtgO+LMQ0AAICxYe0yrbXL3qHDsy++Vr322ivV4w/p7T/4g89WL752XebFZ8U2nNrBA/e5Z6onnniieuIbnqieeU5sdxi44wwd6jF94vH6ocevZPUzgp9rAAAAw2PtQuhQW0zOX6teefwhud0WE6+80nFB8eyL1WuvPK4+pLbhIIcO3J84/4bqiWeeq//9hvOfkGUauwauDVZj23/5l395dXF3YfvZ/nYc9RqRDQj7vJM/xg//8A+tztMGZzOA7V8bsE25D3/4w8kDyrN9mgFpx2kGb+Mf/sN/WD/fDFijjnMIQodu+LkGAAAwPNYu01q7HBQ61JPv116snt3Y/qHq8SvL7UzOs3DYwP2J6rxJCS01/Ibz6idkuYVdA7dOHa/Z9s997nOrAdL4gz/4g/oib9jjWOazn/1svX/qZ5ZsMNoXrfhjNOdgPwTsNcz3f//318995CMfWZX7Z//sn9X7q+Pu0gxIP3htwMZBq/Y9BkKHbvi5BgAAMDzWLtNauxwWOjx+tp6Ev/hs2L6cZD8rFhT1IsNuT67d3Mbc/IZxxe3Xtk+zCHjx2eUtz9cLhWYfrDto4P7Eufs81OLzUec/Eco4uwZuwwadfRlLHFA2aJr9jR9EVtbYQOpyi5Idx77h1b+O19yOZIPZjv3P//k/X22z/XbVZRcbnM8999zaa9rjPgMHc8zQYX0cxrI2BsPHEj70uHolLN7XxvnGz4hmPC/+XZTb/KhD+8+Da/azR21rez7g5xoAAMDwWLtMa+1yYOjwocXEOfwWb21bnGT7svVCwC1KlpN6f6zt+zS/eXyxdRGBhUMGbnN7UvP4uWee2HqbUpeBa4Nk34GbmhQaO07bwL1///7qtewbWOMAO9bAbRLChn0maiyhw2KB7AOEZTCwKr87dKiPvzGW/TGasCEs2t0+W38e1K/nzuHZx4v/tz3fHMPh5xoAAMDwWLtMa+1ycOiwsdj40M1CY31yLhYlq9/oLR9vTM537bOcnNfn4csg2nvg1rckhS9gUc85DNxN4w4d1Di89iEfKuwKHfQx1l9TjOedx3A/D9bKOm3PC/xcAwAAGB5rF0KH2s3kfP3/fkK+Njmvf5Nnv8Xc1Do537lPmNyj1b4Dt04Gv+EbJJ8gersGrv9clH2+yV/Mxj6fZBd1Y9vnouw46jUi9QOiYYOnOd9Pf/rTG9uP8bmoZ599tj6W/duwxzaY9x28KY4SOtTjUC3a/eJZLKQ/5Bb7/v/O+gJejOd6v+VxE38e3DxutD2/iZ9rAAAAw2PtMq21y1FCh5sFhU2WbxYem5NztXBx5OR82z5MzlPtN3AXn4FSA7Qe0C1/93bXwD3GN8A+//zz9WA65BtgG825mt///d/f2H7IN8D6QWr/2nONOHiNOs4hsgkdWo7RPXTY8TPE1PvYIj6UbXve4ecaAADA8Fi7TGvtcpzQoZkkv7g+uV6bnH/ILR6W2zfEyfnOfZicp9pr4G67Fanepr+UZdfAbdiXqdjfrLW/XWt/x9bY37T1g6ZhfwPX/hbuf/gP/6FmA/bQv3XbsOeaL2PxzzfP2Q+Iff7WbTMwTTNo28rY4O3jroejhA4fahmH9fPN4lmEDn5x3XKM9dfcETq0nYe0ONbNz6hdzy/wcw0AAGB4rF2mtXY5UuhwrV5grD+3/lvM5QJj7Td815PrF7f/BnD7PkzOU+0zcOu/a9uSCDZJovpSltSBa5pbf77xG7+xZvt8/vOfX13wxgZWc7wn3/hkzb45Nh5rF/sclQ14P0h/93d/t3rLW95Sfeebv7P2O7/zO/Xztt3Kmi6fv2rYALTj2MBUg9aX8wM8deCmOkro0GyL43Bt8b54fLO/hRDr+9TH2PiNv99HjOcPrS/Qt/48uD7ezb7uWG3Pr45xw47PzzUAAIBhsXaZ1trleKFDvchYn1jHyblZTLZvrB9jMdleX4hs24fJeap9Bu6+GLgjDh3cOKvF3/C7betj1zRBg7n+WfAhCwzCwroZ3+Z6jK//jBDjuT7G+l0BrT8P6rIdnhf4uQYAADA81i6EDhihXQP3D//gyzX7whI1GFPZ/nacZqCp1/OefPLJtXOzC/fjH//46kI2jx49qr+Z1W4TsrKm6y1DDRuE9sPC2Oed7ItW7BteG/bYnrftVnafQWus7laXhirT8OVS2qwLxjQAAADGhrXLwlTWLoQOhdg2cG1QfP5zv1x79dVX9x68tp/tb8exYxr1etvYeTaD3tt2/l3ZoDc2UGyA+texx/b8vj8YcsOYBgAAwNiwdrkxhbULoUMhtl34ltg98YZvq9mgs7SvuWWpC9vP9rfj3Lp1q6ZeD6fDmAYAAMDYsHaZFkKHQmwbuKYZaJbw+fSsK9ufAZsPxjQAAADGhrXLtBA6FIKBWybGNAAAAMaGtcu0EDoUYtfAxTQxpgEAADA2rF2mhdChEAzcMjGmAQAAMDasXaaF0KEQDNwyMaYBAAAwNqxdpoXQoRAM3DIxpgEAADA2rF2mhdChENa3mB4/fhUro64HAAAAIFdxzotxI3QARsrGqx+/CmMaAAAAwJAIHYCRInQAAAAAkDtCB2CkCB0AAAAA5I7QARgpQgcAAAAAuSN0QPG++7u/O0vqXL1jhA6vf/3rAQAAAEyAmu831HqjD+q1CR1QNBsY73rXu6qPfvSjWbFzahu0jUNDh+aH09ve9jYAAAAAI7YteDjVmqdtDdMpdGgqAoyNup6NDQobIB/84AezYufUZ+jQtIv6gQUAAABgfNrWPqda87StYZJDBxYpGKu2wWdKDh1UWwEAAAAYL7XuGUXo0CzaVKWAMWiu4XhtEzqcxnvf+96t1D4AAAAAuhlyzXNw6KAqBIwJocONIUKHv//3/75E6AAAAAAcB6FDIv8bUEXtA+xC6HCjbUzbPt/2bd9Wfeu3fmtnr3vd66pbt27J49q4VYGDYUwDAAAAx0HokIgFCvpA6HCjbUy/4Q1vqL7v+76v+oVf+IXq05/+dLJ/9I/+UfWe97ynDh7UcRnTAAAAQP8mFzrYPvxWFGNB6HCjbUzb8x/4wAeqP/3TP63+63/9r9XXvva1Neo585//83+ugwcb2+q4+4zp5176q+qv/uqr1Wff/5Tc/tRTz1Uv/dV1mZeek9tz8tRT768++9Xrc/3qZ6v3P6Xr09X7P/vVtbov2uul6rkDjl8f09rU+epn3y/LAgAAID+TCx34rSjGhNDhRhzTb3nLW6o3v/nNdfkPf/jDG6HCn//5n9dBxL//9/+++pM/+ZPqv/yX/7JRxsb28UOH9kWvLZC/+tX1hfe+nnrupaMGAtFT7/9sfa5f3RKidBVDh2OIx6zP+7oPXnqun3YBAADAcU0udLDn+a3o8fFb0X4QOtyIY9ruOrLx+I3f+I0ydPjKV75S/ZN/8k+q7//+768ePXpU/d7v/d5GmT5ChzpUENdpM0bGEjrUdbkeG/W4O9LPoFOEDuaY5wwAAIB+TSZ04Lei/FbUxGPm/ltRQocbcUzbWLy8vKweP35cvfDCC6tx+hd/8RfVb/3Wb1U/8zM/U7397W+vj/fWt761+vEf//HqN37jN+rtfY7pr372uTpciNdUMwafa7kGV0FYGKf1fqvti/HV/OxYccerr/FQvj7OU4vQ46XnlmHmlgBvEXgu9l2c33pZv331nCi3dp6i7ov2Wv/5t37+13b8DFA/J/xxU85VtXFTFgAAAP2aTOjAb0X5rahpW6Ac+3WOhdDhhgodLEgwn/rUp+q7lOyOpKurq+onf/Inq+/6ru+qx3vjTW96U/W+972v+pVf+ZXqj/7oj+qgsZ/Q4f2L6yyMt7Vt7np7/2df2ggGmu2LxbELDp77rPv/5piOr7tYTC9+vtz8TLl5vTb+2Ddhxc0+KQv5elxtnMv6WGvapHlcn78PA0J7KLE9fZ3rxzvOdVsbAwAAoH+TCR1sYcFvRZfc8RaT/Gabm3ivFho2YbdtN5P4iN+K3pQ9NkKHG2pM/92/+3drP//zP1+PVbtbycb4xcVF9cM//MN18PAt3/It1Xd+53dWt2/frj70oQ9VDx8+rF599dXqz/7sz3oLHeJ15K8hdQ16zdivF/xinKhy9WN17a7GsQsdwhhS4ljbWNjvGCdqu6nHeMuYbttnWxuYjZ8B17oEJLuODwAAgH5NKnTgt6LrrxFfd7GYbhYNywUKvxUVCxTdxn0gdLgRx/Q3f/M3Vy+++GL1hS98ofoX/+JfrMLBxu///u/X52T72fl96Utf2ijT15iO//fXXbwGV8/5hXMYT3EhbeKYXo0ZwYcO8ThRvMbVc/su5GPdfRvFsdhoCyMaG2O6abPlczvPdUsbAwAAoH+TCh34rahboKiJ+HLy7RcofpHfRoYBa4uAXZN+vaiw47YuUFr22dYGZmNxFxYaO891x/GPjdDhRhzT9pdkrPyTTz5Z/fRP//RGoDB06HBzrdhYurmm/PhYXG/X12EMD9zjm2PZ9Xpz7W2M6ZZFeyM1dFBjpLFt/K2Nk5ZziT8b1tqrZZ+2sd6IxzSLc1nss+tc15+zera3IQAAAI5vMqEDvxVVCxR3DMeHDrsWKH5y3/bcvgv5UyxQVm22fG7nuW5p4z4MOQC7ahuw3jFDBwsIP/GJT1S/+Iu/WP3qr/7qxngdPHRoxtBL62PPX4Pq2q+3h9ChLrs83toY8GM6jLsoZUzH1/D8eclx4sZk27lY+7SO6ZZ9VBt5cUwbv8+uc13bb0v9AQAA0I8h1zxta5i9Qgd+KxoWKC2T7kbKAsXU57cMK6JV3XYt5FvOJS4m+ggdzOJcFvvsOtf156ye7W14DEMOwK7aBqx3zNDBxvQ/+Af/oHrw4EH9fS1xvA49ps3iOl1/bm1Mu2vv5vH1ddUs7q/3b8ZgHJNqDNSLevdcvc9LTVCwe0zH89nctti/OdbGzyb32vW5bPzMudmnKePbRp7/jhAgjunNc9t+rtvaGAAAAP3be83z8OXqf/+b/716+eGW/6v9nLY1zF6hA78VXT/utsVFvT1h8h1fw/PnJRfybsHUdi71AqRlgdK2j2ojLy5QjN9n17mu7bel/sey9wAcQNuA9Y4ZOrzxjW+svu3bvq0e2+ov0vzhH/5h/fEpG38f//jHq5dffnmjTO+hQ309iTHrrsH6cb0IvmZjxo3VxbW53HZt/diL608t5FfHc/ukjOl6X/HzxKxer/l5tFq8m+s6hrG3dn7mer9Y99heZq09ru0aX7F8zb2G2Xau29oYAAAA/ZtM6MBvRTcXzovFSVgk8FvRree6rY37cPTQ4QgDs82pQwffRhY62JfDxjG7jZU/9pgGAAAA0M3R1zwdHDV04Leiy8W0bQsL+dXx3D4pC+oYFHjti3dzXcf6XDcDg9W5XO8X6x7by6y1x7VtgYOJ5WvuNUxOvxUldLixLXS4d+9e9Sd/8iedggf7Itlf+IVfIHQAAAAABjSZ0MFXiN+KYiyGHIBdDRU6PPHEE9VTTz1VBw82tlN94AMfqL7v+76vDiPVcRnTAAAAQP8mGTrwW1GMBaHDjbYx/aY3vakOHmx7V294wxvq11THZUwDAAAA/bN5eZz7jzp04LeiGJMhB2BXQ4UOfWFMAwAAAP2bXOjAb0UxJnbdxWub0OE0bNxuo/YBAAAA0M2Qa55eQoe+2CJEBQ6GBQr2Rehw49RjGgAAAED/CB0S+d+AKmofYBdChxvWFgQPAAAAwHQ0c/w49yd0AE5kyAHYVd+hg2l+KKm2AgAAADAezdxezfttXfGud72rXmP0yV7joNCBxQnGrG0Qlhw6mKZdAAAAAIybmu83bG1xCuq1k0IH01RELeiAnG0bhDYwSg4dAAAAAKBPyaGDaRZvwNio69nYwv4Utxp11XZrkkfoAAAAACB3nUIHYIpscZ8jda4eoQMAAACA3BE6ACNF6AAAAAAgd4QOwEgROgAAAADIHaEDMFKEDgAAAAByR+gAjBShAwAAAIDcEToAI3WM0OHtb3979cQTTyBj1keq7xT6M19d+hEAAGBKCB2AkTo0dFALI+RL9aGn9kF+VN8BAABMWVLocHZ2Vr3+9a8HcEI27tR4bBwSOvAb8fHZ9pty+nM8Uu54ePOb3wwAwCT8P//961bUdkxTnNskhQ62AHrb294G4IRs3Knx2DgkdFCLIeRP9aVRZZEv1YeeevMGAGCMCB3KFOc2hA5ApggdEKm+NKos8qX60FNv3gAAjBGhQ5ni3IbQAcgUoQMi1ZdGlUW+VB966s0bAIAxInQoU5zbEDoAmSJ0QKT60qiyyJfqQ0+9eaMwdx9WV1dXtcf3n9ZlAGAECB3KFOc2hA5ApggdEKm+NKos8qX60FNv3ijJ3erh1cPq7ur/j6v7T8cyADAOhA5linMbQgcgU4QOiFRfGlUW+VJ96Kk3bxTE7nJ4eHf1+On7j7nbAcBoETqUKc5tCB2ATA0VOtz61P9dPfnSn1e33qG3P/HEz1a3Xrou86mfFdvQJ9WXRpX1Fn3q0HeDUn3oqTdvlGMjZAghBACMCaFDmeLchtAByNSwocO1j71bbn/iY39ePfnCtR4Xrrc+9Tu1J//1X1e3fvnLskyJVF8aVXbh3dWtFzZDhlsf+9za42Oi73ZTfeipN2+Ug9ABwJQQOpQpzm2OGjp84it/U/3N33h/WX3hg0/Jsl089dQHqy/85d9UX/nE4ccCxmLQ0MFChZdeqW5tbF8uYg8NHd769uqN/8NfVU/+1v9Z3br70Zrf/uRv//XC8jfzt974HWvbS6X60qiytXd87rr9tt21sgf67mCqDz315o1yEDoAmBJChzLFuc3RQ4e//MIHV48/+IW/PErwQOiAEg0aOnzsZ+tw4daPhu0/+kr15Aufq27Z3Q4HhA63nr1aLUqf/LX/ubba9tOfun7+v9VuXS9eb33699b2LZnqS6PKLiw+CrPRjweg7w6n+tBTb94oSOJ3OqhrCwBy40MHtR3TFOc2vYYOTVjgn9sHoQNKNGzo8O7lxyjWb8Nf27ZH6HDrwx+vPfnb1wtTYwvX5W/Gn/jB91a3PvjcYtF69Re1N9x6ozxOqVRfGlV2xfrK2rnt4zKJ6LvjUX3oxcUlCvP0/epxwl+vUNcWAOSG0KFMcW5z0tBhceeD/ujFUx/8QvWX/qMZf/mF6oNPLbbH0KF5/Dd/85XqE8sywJC+9KUvJVH7thk8dKh/S+5uza9v1V9+5ILQYRCqL40qu6buu+u2PiB8oO+OR/WhFxeXKJDd7XB1VXt4V2y/pq4tAMgNoUOZ4tzmJKGDhQV14OCDhE98ZS00+OAXvrIKIVahwlc+sXEce1x/d4Q7FpADFTJ4ap9thg8d1v+/FjR0DR2efLJ68hP/erEoNb/5v1ZPvO27qzd81/dUb/wf/4/aalF8vc2+B4DvAtik+tKospJ9PMbamL4blOpDTy0wgUhdWwCQG0KHMsW5Ta+hQx0O1MHCJ6qvxDsbQpAQ1aHEMljwZQkckDMVNhhVdpccQoebuxvsCyTdXQ8dQof6rxksfzN+6/H/VLOFbLP9yc/83kKzcP2Ff7m2P26ovjSqbKsOXy5J3/VD9aGnFphApK4tAMgNoUOZ4tzm6KHDzccnbsKBxV0NYduSDx3WP35xLYQOf/mXtp2PVCBvxwgcTBahw/KvVdz61OILJFflOoQO9S34tiC9Xryq7W+4/b7ak/Yb83/5v1W3vveOLIcjhQ4dvlySvuuH6kNPLTCBSF1bAJAbQocyxblNr3c6NOJHKTa213dC3IQM9XPiTodF6HCcP8MJ9OnQwMHkETpca27J9891vNPBFq23fukVuR3pVF8aVbZmdzXEfrK+k38OdRN91w/Vh55aYAKRurYAIDeEDmWKc5vThA71l0S2hwWL7euhhP8OCP/ximP9GU4gd9mEDvVvxsMildBhEKovjSq7sLirYfXxh1pa4GDou36oPvTUAhOI1LUFALkhdChTnNucJHRotvm7Heog4SvLUCGEEqu/ZCFCB9u+CB74mAWmbajQAflSfWlUWeRL9aGnFphApK4tAMgNoUOZ4tzmZKGDWQQPN3zZte9zsLCh5Ysk47H8c8CUEDogUn1pVFnkS/WhpxaYQKSuLQDIDaFDmeLc5qihA4DjIXRApPrSqLLIl+pDTy0wgUhdWwCQG0KHMsW5DaEDkClCB0SqL40qi3ypPvTUAhOIzs7OACB7PnRQ2zFNcW5D6ABkitABkepLo8oiX6oPPbXABCJ1bQFAbnzooLZjmuLchtAByBShAyLVl0aVRb5UH3pqgQlE6toCgNwQOpQpzm0IHYBMETogUn1pVFnkS/WhpxaYQKSuLQDIDaFDmeLchtAByBShAyLVl0aVRb5UH3pqgQlE6toCgNwQOpQpzm0IHYBMETogUn1pVFnkS/WhpxaYQKSuLQDIDaFDmeLchtAByBShAyLVl0aVRb5UH3pqgQlE6toCgNwQOpQpzm2SQgf7sxe2AAJwOurPzXiEDuVRfWlUWeRL9aGnFphApK4tAMgNoUOZ4twmKXQAkB9Ch/KovjSqLPKl+tBTC0wgUtcWAOSG0KFMcW5D6ACMFKFDeVRfGlUW+VJ96KkFJhCpawsAckPoUKY4tyF0AEaK0KE8qi+NKot8qT701AITiNS1BQC5IXQoU5zbEDoAI0XoUB7Vl0aVRb5UH3pqgQlE6toCgNwQOpQpzm0IHYCRInQoj+pLo8oiX6oPPbXABCL7smEAyJ0PHdR2TFOc2xA6ACNF6FAe1ZdGlUW+VB96aoEJROraAoDc+NBBbcc0xbkNoQMwUoQO5VF9aVRZ5Ev1oacWmECkri0AyA2hQ5ni3CYpdFAHAnA6alwSOpRH9aVRZZEv1YeeWmACkbq2ACA3hA5linMbQgdgBNS4JHQoj+pLo8oiX6oPPbXABCJ1bQFAbggdyhTnNoQOwAiocUnoUB7Vl0aVRb5UH3pqgQlE6toCgNwQOpQpzm0IHYARUOOS0KE8qi+NKot8qT701AITiNS1BQC5IXQoU5zbEDoAI6DGJaGDN6vmV1fVVXB5cS7KXpvNN8peXV5U56qscuj+e1J9aVTZUdujfc8vLjf2ae3/NefVxeX6flfzmSh3PKoPPbXABCJ1bQFAbggdyhTnNoQOwAiocUnocEMtOFfCAnI2F2VW5tXMlVUO3f8Qqi+NKjtW3dtXB05mZ+hwflFdiv0W+utL1YeeWmACkbq2ACA3hA5linMbQgdgBNS4JHS4YaHDfOaeW1tMXlYX5zfbFova9QWlX+juWqgeuv8hVF8aVXasurXv+l0Kse3Pz7f1xfq+zfXjA6y++lL1oacWmECkri0AyA2hQ5ni3IbQARgBNS4JHbbxC8oQOlyI2/T97fw7bq0/dP9DqL40quxYdWpf93zngMAHU2sf3fDXTj93O6g+9NQCE4jUtQUAuSF0KFOc2xA6ACOgxiWhwxatC8oWh4YGhA79amnfmzsg9ggH/DWy1mftgdWxqD701AITiM7OzgAgez50UNsxTXFuc3jo8LE/r5586f9e97F367LAVP3oK+tj4FM/q8st3fqUK/vC52QZT41LQod18nsdkgKA9e8EWPuYRpJD90+n+tKostPR1r7ueQuWfDBhdva9P64LF9aOQ+iAfKlrCwBy40MHtR3TFOc2xwkd/ALrHZ+rF1K3ftSVyYktDhMWeZ31dVzn1qd+p/bkv/7r6tYvf1mWwRDefd0vvu9/trplYUJb+GZjZnWtXO/7wu6QQo1LQod1+sskdy0a1xe03e9SOHT/blRfGlV2Gra1b9im7PEXL9YROiBf6toCgNwQOpQpzm2OHzpcq3+Lu2MRNZicQ4e3vr164//wV9WTv/V/VrfufrTmtz/523+9sPwN+a03fsfadmRkLVjwFoHEWihXB3V/Xt16h3suUOOypNDBf5HgyrYF/pYvkmxsLDg7BgaH7r8P1ZdGlc1Val/ubt/10EHeAbH2fItwh4R9N8TNORI6IF/q2gKA3BA6lCnObfoLHVa/5bVFVlhQ1YusV6pbzeO1W9O3L77q11uVvbb22ttfa+2Wdrfv6nz9sdcWjPsdt6tbz17dHOPX/ufaattPf+r6+f9Wu/Xbf13d+vTvre2LzLSFUPHar4kgIlDjktBh+yLfL1o3/qrB2oK2+8Ly0P33pfrSqLK5SunLtPZ14UK4o8Hv3/3jLnyRJMZBXVsAkBtChzLFuc3xQ4c6QPCLqh2hQ/1/t/1HP9ceOtShgD92vDU9MeAIi8FVaLAKSo5z3FS3Pvzx2pO//d8W7FyWdzU88YPvrW598Lnr566fv/qL2htuvVEeB/morykVPsnrZHG9ETocV2vosPab7T0WlYfufwDVl0aVHa3k9m0PBw4KHfzr93T3iupDTy0wgUhdWwCQG0KHMsW5TS9fJLm+eEoJHXyQ0EYcx6ztf0DoEBeI9X7NsQgd0MFGOOZsCR22fQGrGpeEDo1ZNd/47H7bLfZd/jKBK7s6fv9/2WAb1ZdGlR2nju3rAoKbYMn3fRNGqL58ojqfzdavm4SP5RyD6kNPLTAxYXcfXl9vD6u77rm7D5vr8Kp6fP/p9fJL6toCgNwQOpQpzm16+HhF17sEluU3worAFmtyIeePf0DosLHgO/y4Oz35ZPXkJ/719XEsaLj2m/9r9cTbvrt6w3d9T/XG//H/qK3CnOtt9h0OfI9D3hZ3zbQEDmZL6MCdDvtaDxg2+N9Wry0qWzTl1QK0y/49UH1pVNlR2qN95cc1llZhU0uYsP4xjnXdP5aRTvWhpxaYmKKnq/uPr6+3hw+rhz50ePp+df9uU+bu9bbH1f2nm8c31LUFALkhdChTnNv08p0One8SWD23ZcE2sdCh/ksUy7sabj3+n2oWQjTbn/zM7y00ocMv/Mu1/ZGbGLa1kNexXV+EDofQC0/xm+pOi1rx23FCh37t2b6b4UH8WEbLnQ4qdNi4a+b4VB96cXGJqbNgYf1OhxsWTBA6ABgvQocyxblNj6FDs7ASC/bWAGHLbeb1McNxVs93eK220CHWYW2//Y67zeqvUPz2f5Pb33D7fbUn7W6Hf/m/Vbe+944shzzIa0hKCLAENS4JHcqj+tKossiX6kMvLi4xddtCh/Zt6toCgNwQOpQpzm1O8PGK+HjxW93VIut6sX7zG97tt5lv3roeQ4odr2ViWHBtcVz/usv9DjzuNnangwUOt37pFbkdI9IWiLVsr6+3VUAVr2FNjUtCh/KovjSqLPKl+tCLi0tMXXuwYN/twHc6ABgzQocyxblNL18kuR5CmGaRbq4X5v43u/X/3b47Fl8br7dRfstr1ZaLPNu+PM96Efix6/2a5922Q467DaHDhMRr2KmDrHr7eijRBF21hOtFjUtCh/KovjSqLPKl+tBTC0yM3NP3q8erj/HEgEGFDovve2gLHIy6tgAgN4QOZYpzm8NDhwlYhA47wg5gQGpcEjqUR/WlUWWRL9WHnlpgYspi6ND+PQ7enTt3ACB7PnRQ2zFNcW5D6HCN0AG5U+OS0KE8qi+NKot8qT701AITUxZCB/sTmg/vhjKb1LUFALnxoYPajmmKcxtCh2uEDsidGpeEDuVRfWlUWeRL9aGnFpiYsvXQ4en7j9f/oso19TELdW0BQG4IHcoU5zaEDsAIqHFJ6FAe1ZdGlUW+VB96cXEJKOraAoDcEDqUKc5tCB2AEVDjktChPKovjSqLfKk+9NQCE4jUtQUAuSF0KFOc2xA6ACOgxiWhQ3lUXxpVFvlSfeipBSYQqWsLAHJD6FCmOLchdABGQI1LQofyqL40qizypfrQUwtMIFLXFgDkhtChTHFuQ+gAjIAal4QO5VF9aVRZ5Ev1oacWmECkri0AyA2hQ5ni3IbQARgBNS4JHcqj+tKossiX6kNPLTCBSF1bAJAbQocyxbkNoQMwAmpcEjqUR/WlUWWRL9WHnlpgApG6tgAgN4QOZYpzG0IHYATUuCR0KI/qS6PKHstsflVdXZnL6uJcl0E3qg89tcAEInVtAUBuCB3KFOc2hA7ACKhxmWvowCK1P6ovjSp7DNaXlxfnchv2p/rQUwtMIDo7OwOA7PnQQW3HNMW5DaEDMAJqXOYYOrBI7ZfqS6PKHm5WzS8vqnO5DYdQfeipBSYQqWsLAHLjQwe1HdMU5zaEDsAIqHGZX+jAIrVvqi+NKnuw2by6ms+reX3XyjX69mhUH3pqgQlE6toCgNwQOpQpzm0IHYARUOMyu9CBRWrvVF8aVfZg1p/uIzLcxXI8qg89tcAEInVtAUBuCB3KFOc2hA7ACKhxmWXowCK1V6ovjSrbyflFddmERVfzambP1SHS7KZMfIy9qT701AITiNS1BQC5IXQoU5zbEDoAI6DG5aChA4vUQai+NKrswTr05507d7Ck2idSfeipBSYQqWsLAHJD6FCmOLchdABGQI3LQUMHhUXqQVQ7RaovjSp7uFk1X925cl5dXF5V81ksg32oPvTUAhOI1LUFALkhdChTnNsQOgAjoMZldqEDi9Teqb40quxR+DtauGvlaFQfemqBCUTq2gKA3BA6lCnObQgdgBFQ4zK/0OEai9Reqb40qizypfrQUwtMIFLXFgDkhtChTHFuQ+gAjIAal1mGDuiV6kujyiJfqg89tcAEInVtAUBuCB3KFOc2hA7ACKhxSehQHtWXRpVFvlQfemqBCUTq2gKA3BA6lCnObQgdgBFQ45LQoTyqL40qi3ypPvTUAhOI1LUFALkhdChTnNsQOgAjoMYloUN5VF8aVRb5Un3oqQUmEJ2dnQFA9nzooLZjmuLchtBhl/NZdTG/rC4vl1+Ot3R5Oa9m9bf0b3Nenc/m12Uvw77NN/zvNpuvv+6Gy4vqXOw3Kvu28fV+8422nVcXs3NdfoP9tYX119xmyL/EoMYloUN5VF8aVRb5Un3oqQUmEKlrCwBy40MHtR3TFOc2hA7bzOZy8enN2xa49YJY72NSF7CTDx32bOPzi/WwIbpM+ssJhA4YF9WXRpVFvlQfemqBCUTq2gKA3BA6lCnObQgdtklYEF9dzavZxr67F7NpC9jz6mJLcFErIHTYaGP/Zxm32N3GXUKH9LtT+qDGJaFDeVRfGlUW+VJ96KkFJhCpawsAckPoUKY4tyF02MY+GjG/qGbn/jft5xt3H8TFbdxuv3X3wcD5zI65vo/mQwcVbkzAHm28fpfD5c3HKWIYkXS3Q5v1wOfyouWOlhNR45LQoTyqL40qi3ypPvTUAhOI1LUFALkhdChTnNsQOuwjLG7XFqTbtnVWQOjQZks7roUOIVhYCysOCR3W7sAYvu3VuCR0KI/qS6PKIl+qDz21wAQidW0BQG4IHcoU5zaEDvsIC+L238Ifulh1t/9P4Qsju9jSxu2BwPrdCbs/XtFm/WMXQ9/lYNS4JHQoj+pLo8oiX6oPPbXABCJ1bQFAbggdyhTnNoQOe1i/9X/9s/4bv2mPXyh5pL+ukPbXM8ZrWxsvtq9/xGI+t78ScrNP2hdJascNjo5DjUtCh/KovjSqLPKl+tBTC0wgUtcWAOSG0KFMcW5D6NDR+mL32triNnwPgC2EfVkn7bfwu7/ocP/f5udrexvfOL/QX0J52J0J+d3lYNS4JHQoj+pLo8oiX6oPPbXABCJ1bQFAbggdyhTnNoQOqc5na4FCbeMjD7tDghsJv0EPHzHQ8vhN/FEktfFCyp/M3OfjKDne5WDUuCR0KI/qS6PKIl+qDz21wAQidW0BQG4IHcoU5zblhg4tf6pR/mZbLP71onb9Toe1v6xwvW3bX2Ros/EaYmGey2/jN/TSxjEYuGnj8/hRlpY7JNqF/uu8f3/UuCR0KI/qS6PKIl+qDz21wAQidW0BQG4IHcoU5zaEDsHGgnij3GU1b/1Ohh2L1m1fjthFOM7oQ4dObbx+N8lGG661Tcc7FcJ55PTRFTUuCR3Ko/rSqLLIl+pDTy0wgejs7AwAsudDB7V9aN/x//1/V9R27CfObfh4xTbxt+8Jf0Fi659sLC10SNG1jXe14dr2zS+g3Gb9TpS8PraixiWhQ3lUXxpVFvlSfeipBSYQqWsLQHn8olltH5oPHdT2oTXtlnMbjlGc2xA6bLHXInTjt+VNICA+erFcEJ9f77NYKF9Wcxcg2Bclzi9m1blfOMePEHRcWOemexuH783wf8Vj46MnN8dra+Mb4bgZfbTCqHFJ6FAe1ZdGlT0llXCXSrVPpPrQUwtMIFLXFoDy+EVz3JaDnEOHGDQ0j3NtyzGJcxtCh1ZhEbrF+p0GMVxosVrUxtdxC+UdX5ZYy2xx3M1+bRy/G6NVQhuvHOsulJ6ocTnm0EEt1kqn2ilSfWlUWeRL9aGnFphApK4tAGXxC+RcF8u5hw5dnke6OLchdGgTb/vfYvPjDTsW02sfITggdEj4uEfW9m7jhGAnsY0bG19OmdndI2pcjjl0wH5UXxpVFvlSfeipBSYQqWsLQFni4pjQoZttoQPBw2Hi3IbQoc1BoYOxv1ZxuX6MS/0Fia23/tvHBewYYYF9eTl3fxVjxA5s4/PZRTW/btO1csu2iWHMro9X5Px9DkaNS0KH8qi+NKos8qX60FMLTCBS1xaAshA67G9XsEDocJg4tyF0AEZAjUtCh/KovjSqLPKl+tBTC0xM092HN4H34/tPb2x/+v7j6urx/erp8LxR1xaAshA67G9XWxE6HCbObQgdgBFQ45LQoTyqL40qi3ypPvTi4hIT9fT96v7d5vHd6uHV4+r+0257/dwVoQOAVip0yG2xPObQIbe2HJM4tyF0AEZAjUtCh/KovjSqLPKl+tCLi0uU4Onq/uP10MHucnh4/371mNABQAu1KCZ02K4JE1LaKbe2HJM4tyF0AEZAjUtCh/KovjSqLPKl+tCLi0uUwO5qeFjdbR4/fb96/PDu4l9CBwDBtoVzbgvlHEMH9bySW1uOSZzbEDoAI6DGJaFDeVRfGlUW+VJ96MXFJabPvtvh5jsd3F0PhA4AhG2LYUKH7bqGDg21He3i3IbQARgBNS4JHcqj+tKossiX6kMvLi4xARYerP5CkrujoQ4Y1r9E0j5WsXpM6ABA2LYIzm2BPObQodHsY/9GsSwW4tyG0AEYATUuCR3Ko/rSqLLIl+pDLy4uMVWb3+Ow+vLISAQPd+7cyUqciKsyAI5j2xjLbfz50EFtP7V92qfZJ+6bW1vnJM5tCB2AEVDjktChPKovjSqLfKk+9PzCEhN292F1Zd/boLY1RnSng02+1f8BHN+2MWbbGmr7qfnQQW0/tX3apa1N257H5lyH0AEYATUuCR3Ko/rSqLLIl+pDLy4uMU32MYp4R4P/mEVtJKFDnHQzCQf6lTK+chmDUwgdzLafa7m0dU7i3IbQARgBNS4JHcqj+tKossiX6kMvLi4BRV1bQ1ETbibhQH9SxlcuY3AqocM2/LzbFOc2hA7ACKhxSehQHtWXRpXtbDavrq7m1cw9N5vf/Ab28uJ8vTz2pvrQUwtMIFLX1lDUhNuea8RtAA6TMq5yGXuEDv2x182ln6M4tyF0AEZAjcvBQwcWqSen+tKosunOq4vL6z6bz6u578/zi+pi1pSZXW+7rC7Om8c4hOpDTy0wgUhdW0PZNunNdUKcq0MXEYfuj/yl9nEu10JOoUNfbTJUO+fSx0qc2wweOtwsUpjQAm3UuBwudGCROhTVl0aV7c76bD1EumF9Tn8ei+pDTy0wgUhdW6fWTHi3TXpznRDnxrflvm126P4Yhy79m8O10Hfo0OWa76s9hmrnLnU/tTi3GTR0sMCB34YCu6lxOVzo0GCRemqqL40q2922/ty2DV2pPvTUAhOI1LV1aimT3VwnxLnx7bRvmzX70ebT1qV/U8taub6umz5Dh+a8u9RTPX+ovo7bxtf71K+dKs5tBgwdriexlxfVudwGwFPjMu/QgUVqH1RfGlW2u/Y+IyA+LtWHnlpgApG6tk4tZbKb86Q4F7GNurZZU77Zp8u+uYh1QLsubbSrrG/3Lsftou/Qwf+7S1917LP9FP9a+75u3+cc5zbDhQ72efD69uzlxysIIIBWalzmHDqwSO2H6kujykrnF9Vl8zN3o+9Ufy4+SkNfHpfqQ08tMIFIXVunljph7XNiOwWqfbq0WSw7tva2823OeWznPoQubbSrrN/eV9v3ETrYuTaax7FM5Mv3oc9jR/61ur5u0w4NVeYY4txm2NDBfeabRQrQTo3Lk4QOLFKzovrSqLLdxf5M/4jMnTt3sKTaJ1J96KkFJhCpa+uUukxY+5zYToFqny5tFsuOrb39+Y7t3IdwyLURnaLt+wodtj1W+qpfo+/je/617P9dXvuQfb1d+8a5zcB3OszaHwNYUePyJKHDVixSj0m1U6T60qiy3YX+5Gdyb1QfemqBCURnZ2eDssmmel7pUrZEqn0Oad8xtbedqz/f+BiburTPtvaM27octwsfOqjtXak6pZx7X/Vr9H38xr71bxyyr6fOw4tzm1GEDmqCDkyFuuYjNS6zCx1YpPZO9aVRZbtb78/zi8vlHS43uIPlOFQfemqBCUTq2jolm2yq55UuZUuk2ueQ9rXHDf98jtQ5juG8h9S1fdrKx+f7ancfOqjtXanztOcacVujr/o1uhzfn2/X81Lluxwjlu36+sb2aajtJs5thv0iydXHKxa3ZM9Xf24PgKfGZW6hA4vU/qm+NKos8qX60FMLTCBS19YpdZmo7jOp3VfKZDg36ly7nH9b2TG0waF1L1HX9km9PuxxH21/itCh0dTB1yU+7kuX4/uyXc9Lld/3tdXjFM0+2/aNc5sBQ4dr/vPi/IYUaKXG5fChA05N9aVRZZEv1YeeWmACkU329pksHkuX1z7leTavNWTbdKXONfX8rVxb2TG0wSF1L1XX9rHyjfi8f9z23KGGCB2a//t/++Zfe5tYruv5qfKpx4iv3TznH6do9mmOp44R5zbDhg4AkqhxSehQHtWXRpVFvlQfemqBCUR2Le0zWUzVNpFsdHntXcc6puZ1Tvmah2g7z+b5XXXYtn3XvjlQ55hS75Lt2zbNfk37quPse+xtThk6eNvq2ZeU14plup6fKm/PNeI2r23f+FybttdRx4hzG0IHYATUuCR0KI/qS6PKIl+qDz21wFz4SPXFr32t+toXPyK2vbl65jOvVl/72qvVZ57Z3IbpsWupy2Sxi7aJpdf1tfs6Vy+e8yle81C7zvGQ7TnX386t0bZdPY/926bZb9v+XY9t5RtquxkqdDC7zu3Y/Gs1rx1fXz2Oz22zreyuY6ltx3ht9Xyc2xA6ACOgxiWhQ3lUXxpVFvlSfeipBeaChQ6vVq++qoKFZSCRReiwOE/Cj37ZtdRlsriLHas5nv93G7//Ll3L7yO+xile81C7zvGQ7TnX/9B6e1bWU2WmZN86Nvtt279pw9TX8Mds26e00MFTzzXPx/3ic212ld22va/XVs/HuQ2hAzACalwSOpRH9aVRZZEv1YeeWmAuLBbzX/ziq9Wrn3lmfdtHvlh97YtfzGSxT+hwCnYtdZksRrZvIz5unlPl4/OpDtk3VXyNQ8/5FHad3yHbc677ofX2fNmc69zGztlTZbx963js14jHattnyNBhKKpttp13ap12Hcd0fZ3mmLuOa9rKqOfj3IbQARgBNS4JHcqj+tKossiX6kNPLTAXmsW8/fvF6iOr55+pPlPf/RAW+898pnq1vvth4Ysfacovy33kZrttW3w8Y/F4LdRYO07zustjfOaLYR97vil7bflRkI98cfO55hgWotgdGq++6s/xmgUpr36meqZ5jDV2LaVMEts0+9q/jVjmmPo+vlGvcYrXPcSu8ztke851T6lXQ233fJmU8kqX1zu2rud/yDmm1jGlXNzeVr7E0CHa1Z6pdUopt+/rHHJs9Xyc2xA6ACOgxiWhQ3lUXxpVFvlSfeipBebCTahgi/jVAt1CgXpxfrO9WfyvlQnbVgt6W9xfP14FDfXjEC40Qcb1trVwoQkQtu2zxm9bHGPtdd33VazVERvsWkqZJLY5ZN992Os11PZjUMc+dT272nV+h2y3bbnWP/W8Uurvy+xb32a/Q/bfZ9+4365j7Ps6jS777yobt7WV3RU67Hodr0vZnOw67y71V897zWs14jb/2Nu2rdFWRj0f5zaEDsAIqHFJ6FAe1ZdGlUW+VB96aoG54Bbsq6DBL87D9rW7IVrKxePGx2t3OSzVwcC2Y8Rt15bBxkJbOXvsggvuctjKriWb6KVMFJV99ztUn6+rjj1UPVPtOr++tw8l9by61m/f+jb72b+NWKbNPvs04j67jrHPa3hdz3Nb2bitrWxb6NCcS+TLRLu2j1VqvbrWP5bftn/KsdvKqOfj3IbQARgBNS4JHcqj+tKossiX6kNPLTAX/CJ9+ZEK+4jEanHuth81dFg/zs594ra1YzQfBRHlrtlHPOzOh+bf5nlsOjs7q9lkr/l/CivfUNv71ufrqmMPXd9ddp3XrnNP2V89P7TU89pWf7VtW/ltDjlOU+5Yr+sfR/u8hmf7dzlGU17tE59rK+tDh1jWl2uej895u7aPVWq9utbfyjf7+P8rKcduK6OOHec2hA7ACKhxSehQHtWXRpVFvlQfemqBuRAW6cu7B24W53HhHz9e4e4iWFvsb3u8OM5mALBrH7fNzrMJRurzaCnXbH/1i9UX5V/ogNdcTzbR89fXLl3LH1sfr99MeLcde+h6t0k5r0PqlWO97Zy6nFdb2a7PK825qH3anm/EfePjFLHsrn27HFvpen4NdZ5tx4nP+9ChrUzb883reH77VKTWbZ/6N/vs2vfQ14/b4tyG0AEYATUuCR3Ko/rSqLLIl+pDTy0wF+Ii3e4a8HchhO31Aj9+pEGU2/V47TjXdn68YnFXxU1ZO8/l47VAIR7D7eu+2wFacz2lTBS9ruWPrY/XTznm0PVuc+i579rftjfU9lPb51za9mk7Tpfj7yq7bfshr29lGvF5/zhKOfY26jVTdDnPuK1r6BCpclOUUtd92qPZZ9e+h75+3BbnNoQOwAiocUnoUB7Vl0aVRb5UH3pqgVmSm4+BYJvmekqZKHpdyx9bH6+fckwrM3TdveZ8Us9dPW9S65Ra7hBNfdRrbduWQu3fdqwur7Gr7Lbth7z+tn3Vtub5tv36Fl9323nEbV1Ch5KltMk+7dbss2vflO3bysRtcW5D6ACMgBqXhA7lUX1pVFnkS/WhpxaYxag/XsEXSKZorqddE8Woa/lj6+P1U485dN29LueyrWwudbfjN68RX8tvO5Q/TtsxU18r5by2bd/2+sc+7q7j9S2+/q7z99sJHdKktMk+7dbss2tf276tTNf949yG0AEYATUuCR3Ko/rSqLLIl+pDTy0wp6/5CMbmxy2gNdfTrolg1LX8sfXx+qnHHLruXpdz2VY2l7r749v/I1/2ECnH3bW9sWu72XasbfvvOnbXfXcdr2/2+v4cdp2PLx9Dh3gsLKS0yT7t1rT3ocfvun+c24widPDfhAlMjbrmIzUuCR3Ko/rSqLLIl+pDTy0wgai5nlImgg0r26V8H/p4/dRjppRr2qiP8/S6HH9b2dTj5FSfU7FzarRtV88rsey245pdx+66767jnYI/h5Tzacqo0MGXw0KXNu3LtuN3Pb84t+FOB2AE1LgkdCiP6kujyiJfqg89tcAEouZ66jIJ7XvCmsLO4djnkXq8XeX8uR37HKMux2/OK+6jnmvTpWxXfR77GNrOrcs5x7K79rXt28p02bbrWKfizyHlfJrzJnRIk9qm6vlj2Xb8rucX5zaEDsAIqHFJ6FAe1ZdGlT0ldQdPqVT7RKoPPbXABKLmerJJXsNfZ0pKmVM49nmkHm9XO/ltxz7HaJ/jx326HmNXedt+jPPKTVOveJ5dznuffbeV6bIt5bVOwZ9Hl3MidEhj7dJQ203fbXfoa/sycW5D6ACMgBqXYw4d1GKtdKqdItWXRpVFvlQfemqBCUTxuuo6IRzSMc/DjtXleNvK+m3HPMeo6zk3mv2afbseY1d5f+wu9tlnCLF+Xc47lk3Zt3k9VXbb/nGfbWVPad9zInToZlv79N12h762lWnEuQ2hAzACalyOOXTAflRfGlUW+VJ96KkFJhDF6yp1QqieP7VjnkfXY7WVt+f9tmOeY3TosZv9ux7Hym/bZ9f2NvvsMxR/rl3OO7ZN131TnvP2fa0+7XtOhA7dbGufvtvOjt/2Gl1e28rGuQ2hAzACalwSOpRH9aVRZZEv1YeeWmACUbyuUiaEXSaNfTrmeXQ9lpVvxOe3PT6mQ4/dnP8+x2nbp49j5sifa9fz3ndfVXbX/s12+7fLa/WpOZeu5+RDh677lmhb+5yi7dpeo8trW9k4tyF0AEZAjUtCh/KovjSqLPKl+tBTC0wgih/Rskmeic97u7afSsq5ptr3OHG/XY+Pqc9j79L22s3z9m8jlom6lM2FP9eu573vvlY2lt+1f7PPrnKntO/5+NBBbce6bW18iuuh7TW6vLaVjXMbQgdgBNS4JHQoj+pLo8oiX6oPPbXABCJ1bdlETz1vbNu27ad2rHPZ9zjNfk27xOOo53bxx9q2b9fjHlN87bbzTTnHlDK5ac5Z1XkXX/6QfdXjMbBz3ue8feigtmPdtjY+xXXT9hpdXtvKxrkNoQMwAmpcEjqUR/WlUWWRL9WHnlpgApG6tmyid4wJ4ykc63z2PU6z37b9uxzbyvryzeN4DPXcKanz8Y93Pe8NWY99Nee8z7n7fbruH/fd5/WHtu95Ezp0s62dT3HdNK8fX6vLa1vZOLcZNnSYzaurq6va5cW5LgNAjktCh/KovjSqLPKl+tBTC0wgUteW8RNGP0n0/8/Bsc5n3+M0+23bv8ux28ra843mcSxzSvH1284n5TyHrss+7Jwbavs2fp+u+/vX3Oe1c+Dr0AWhQ3dt7XzKaye+VpfXtrJxbjNg6DCr5lfzarb6/2V1cR7LADBqXBI6lEf1pVFlkS/Vh55aYAKRurYiP0k85WQ1hZ1PIz6O4r7eru1tmv227e/LNGIZv11ta+w6xqnE82g7n5TzTCkzJSnttk2z/z775mDfcyd06K6tnU957cT+7vLaVjbObYYLHewuh/ls9fj84pK7HYAWalwSOpRH9aVRZZEv1YeeWmBiip6u7j9e3O1pHt5d3373YbPtcXX/6fVtRl1bkZ80dpkwntKu89t13vvWa9frGtvWaB7HMtuez9kx6jTGeh9qV7tNmdV5n3oTOnTX1s6nvu7863V97Ti3GSx02AgZQggB4IYal4QO5VF9aVRZ5Ev1oRcXl5iqu9XdJmh4+n71+OphdXe5zQKHx/efdmU3qWtLsYliQ20f2q7z23Xe+9ar2a/L/la2EZ/3j8egOee2c0+p0xjrfahd7TZlVud96k3o0F3T1k17x8en4l+v62vHuQ2hAzACalwSOpRH9aVRZZEv1YeeWmBi6u5WD1ehw/X/H9+vnt4os05dW2O0ayK9a6LbdSLcaPbbZ3/bx++37zkMqalD27lv29bYtX2KmjqXWPd9ETrsb+jrzb9u13OIcxtCB2AE1LgkdCiP6kujyiJfqg89tcDExN19WF09vOv+/7B6uPzYxVVLAKGurSmyie62ye6+k/HmuIfsr/4/Fil131VmjPU+VNMmJdZ9X4QO+xv6evOv2/Uc4txmFN/p8NGPfhSYLHXNR2pcEjqUR/WlUWWRL9WHXlxcYrqevv94ESw0gYOx0MF9j0PbRy3UtTVV2ybeXSfCXtsxU/j9DjmHoaTWvSmnyqbsDxA6HKZt/J1C89r7nEOc2wwXOpxfVJf89QogiRqXhA7lUX1pVNnOLAhe/Uz2zy1+28oX/R6P6kMvLi4xAfV3NizvXHDf3bDigwZ/10OzzT9eUtfW1KmJb9eJsLfPRLrR7HvIMYbU9bxV2THWG6dH6DB+XX9emDi3GS50MG5CO5+J7QBqalwOHjqwSD051ZdGlU13Xl1cXvfZfO7+jLHxYTDB8DGpPvTi4hJlsDsa6r9gkRg63Llzp0g28d32uItmIq227XLIvjnoev5Neb9fl/1RLh86qO3Inx/3qeLcZtjQAUASNS6HCx1YpA5F9aVRZbuzPnP9aXejXV5U58vHsznh8LGoPvTi4hITdfeuu+PBvkiy+UiF///iz2rGP6dp1LVVApv4bnvcRTORVtt2OWTfHBxad/8vsI0PHdR25G+fnxdxbkPoAIyAGpfDhQ4NFqmnpvrSqLLdhf6swyUfIvltOITqQy8uLjFRax+5CMGC3ybucjDq2ipBnPgesvDdZyLdOGTfsWvqXWr90Q2hw/jt8/Muzm0IHYARUOMyu9CBRWrvVF8aVbY70Wf1d+8sFj4ESMej+tBTC0wgUtdWCeLk95CF7z4T6cYh+45dU/dS649uCB3Gb5/xHuc2hA7ACKhxmV/ocI1Faq9UXxpVVnL9s/F9HLE/uXOlN6oPPbXABCJ1bZXCL3q7ToRxHLQ9UhE6jN8+4z3ObQgdgBFQ4/IkoQOL1KyovjSqbHfr/bnxZ4ztS0Ldnzn21BcIlUq1T6T60FMLTCBS1xZwKoQOSEXoMH6EDkAh1Lg8SeiwFYvUY1LtFKm+NKpsdyFEsv4LIRJ/keQ4VB96aoEJROraAk6F0AGpCB3KFOc2hA7ACKhxmVvowCK1f6ovjSrbXejPaxYkLe5yudYSIKE71YeeWmACkbq2ACA3hA5linMbQgdgBNS4zC50uMYitV+qL40qi3ypPvTUAhOI1LUFALkhdChTnNsQOgAjoMbl8KEDTk31pVFlkS/Vh55aYAKRurYAIDeEDmWKcxtCB2AE1LgkdCiP6kujyiJfqg89tcAEInVtAUBuCB3KFOc2hA7ACKhxSehQHtWXRpVFvlQfemqBCUTq2gKA3BA6lCnObQgdgBFQ45LQoTyqL40qi3ypPvTUAhOIzs7OACB7PnRQ2zFNcW5D6ACMgBqXhA7lUX1pVFnkS/WhpxaYQKSuLQDIjQ8d1HZMU5zbjCJ0UOkJMBXqmo/UuCR0KI/qS6PKIl+qDz21wAQidW0BQG4IHcoU5zbc6QCMgBqXhA7lUX1pVFnkS/WhpxaYQKSuLQDIDaFDmeLchtABGAE1LgkdyqP60qiyyJfqQ08tMIFIXVsAkBtChzLFuQ2hAzACalwSOpRH9aVRZZEv1YeeWmACkbq2ACA3hA5linMbQgdgBNS4JHQoj+pLo8oiX6oPPbXABCJ1bQFAbggdyhTnNoQOwAiocUnoUB7Vl0aVRb5UH3pqgQlE6toCgNwQOpQpzm0IHYARUOOS0KE8qi+NKot8qT701AITiNS1BQC5IXQoU5zbEDoAI6DGJaFDeVRfGlUW+VJ96KkFJhCpawsAckPoUKY4tyF0AEZAjUtCh/KovjSqLPKl+tBTC0wgUtcWAOSG0KFMcW4zeOgwm19VV1fmsro412WA0qlxSehQHtWXRpVFvlQfemqBCURnZ2cAkD0fOqjtmKY4txk0dLDA4fLiXG4DcEONS0KH8qi+NKos8qX60FMLTCBS1xYA5MaHDmo7pinObQYMHWbV/PKiOpfbAHhqXBI6lEf1pVFlT0kl3KVS7ROpPvTUAhOI1LUFALkhdChTnNsMFzrM5tXVfF7N649WXCOAAFqpcTnm0EEt1kqn2ilSfWlUWeRL9aGnFphApK4tAMgNoUOZ4txm2NDBfY8DH7UA2qlxOebQAftRfWlUWeRL9aGnFphApK4tAMgNoUOZ4tzmNKHD+UV12dzRcDWvZvZcfafD7KZMfAxgRY1LQofyqL40qizypfrQUwtMIFLXFgDkhtChTHFuM/DHK9JChzt37gCTpa75SI1LQofyqL40qizypfrQUwtMIFLXFgDkhtChTHFuM+wXSa4+XnFeXVxeVfNZLAPAqHFJ6FAe1ZdGlUW+VB96aoEJROraAoDcEDqUKc5tBgwdrvmPXfDRCqCVGpeEDuVRfWlUWeRL9aGnFphApK4tAMgNoUOZ4txm2NABQBI1LgkdyqP60qiyyJfqQ08tMIFIXVsAkBtChzLFuQ2hAzACalwSOpRH9aVRZZEv1YeeWmACkbq2ACA3hA5linMbQgdgBNS4JHQoj+pLo8oiX6oPPbXABCJ1bQFAbggdyhTnNoQOwAiocUnoUB7Vl0aVRb5UH3pqgQlEZ2dnAJA9Hzqo7ZimOLchdABGQI1LQofyqL40qizypfrQUwtMIFLXFgDkxocOajumKc5tCB2AEVDjktChPKovjSqLfKk+9NQCE4jUtQUAuSF0KFOc2xA6ACOgxiWhQ3lUXxpVFvlSfeipBSYQqWsLAHJD6FCmOLchdABGQI1LQofyqL40qmwXs/lVdXW1cHlxvrH9/OKyurq8qM7D89iP6kNPLTCBSF1bAJAbQocyxbkNoQMwAmpcDhk6sEgdhupLo8omO7+oLmbN41k1v7qsLs7d9vq5676mP49G9aGnFpiYtqfvP66uHt+vnm6eu/tw9TP28f2nN8obdW0BQG4IHcoU5zaEDsAIqHE5WOjAInUwqi+NKruf8+ricr0/LUCaX1xUl/Tn0ag+9NQCE1N2t3poPzNXoYM9flzdfzr+f526tgAgN4QOZYpzG0IHYATUuBwsdFjDIvWUVF8aVXY/FhjNq1nz+Py6H+ezxb/059GoPvTi4hLTZnc5PLx/v3rchA5Pu/9fu/vwqnp4d30fo64tAMgNoUOZ4tyG0AEYATUu8wgdWKSekupLo8ruwz42c/NxGRco0Z9HpfrQi4tLTJgFDA/vhqDh6er+Y3+nw8Pqbtzvmrq2ACA3hA5linMbQgdgBNS4zCF0YJF6WqovjSorWb8sPyd+5cOiuu/Wv5/D7lhZPaY/j0r1oRcXl5gqFy6Euxvqx8uxqu5yMOraAoDcEDqUKc5tRhE6nJ2dAZOlrvlIjcuThA4sUrOi+tKosuk2PyKz+l6OqKVP79y5g6XYNorqQ08tMDFyLkS4Wt65YB+rWH1JpA8dQgDBxysAjBmhQ5ni3IY7HYARUOPyJKGDxCK1D7GNFNWXRpVNNptXV/aRGLWtQYh0VKoPvbi4xBQtvzwyeny/uuvDCGN/ycI+grG2/5vlzxEAyI0PHdR2TFOc2xA6ACOgxuVgoQOL1MGovjSqbKr6z5uGhY+/g6VGfx6V6kMvLi5RAH93g4UM4U4H9Wcz1bUFALnxoYPajmmKcxtCB2AE1LgcKnRgkToc1ZdGlUW+VB96cXGJAoSPVNhHL1Y/Y8VdDkZdWwCQG0KHMsW5DaEDMAJqXA4VOmA4qi+NKot8qT701AITiNS1BQC5IXQoU5zbEDoAI6DGJaFDeVRfGlUW+VJ96KkFJhCpawsAckPoUKY4tyF0AEZAjUtCh/KovjSqLPKl+tBTC0wgUtcWAOSG0KFMcW5D6ACMgBqXhA7lUX1pVFnkS/WhpxaYQKSuLQDIDaFDmeLchtABGAE1LgkdyqP60qiyyJfqQ08tMIFIXVsAkBtChzLFuQ2hAzACalwSOpRH9aVRZZEv1YeeWmACkbq2ACA3hA5linOb04UO9rf9r+bVzD03m2/5k3sAVtS4JHQoj+pLo8oiX6oPPbXABCJ1bQFAbggdyhTnNicIHc6ri8ur6mo+r+Y+dDi/qC5mTZnZ9bbL6uK8eQzAU+OS0KE8qi+NKot8qT701AITiNS1BQC5IXQoU5zbnPDjFRYsrN/pcMOCCUIHoI0al4QO5VF9aVRZ5Ev1oacWmEB0dnYGANnzoYPajmmKc5tMQodt2wCocUnoUB7Vl0aVRb5UH3pqgQlE6toCgNz40EFtxzTFuU0WoYN9twPf6QC0U+OS0KE8qi+NKot8qT701AITiNS1BQC5IXQoU5zbHDd0OL+oLpdfDBm/NFKHDovveyBwALZT45LQoTyqL40qi3ypPvTUAhOI1LUFALkhdChTnNsMeKdD+vc43LlzB5gsdc1HalwSOpRH9aVRZZEv1YeeWmACkbq2ACA3hA5linOb4UIH+xOa81koA0BR45LQoTyqL40qi3ypPvTUAhOI1LUFALkhdChTnNsMFjqcX1wuP4Zxg49ZAJoal4QO5VF9aVRZ5Ev1oacWmECkri0AyA2hQ5ni3OaEoQOAfalxSehQHtWXRpVFvlQfemqBCUTq2gKA3BA6lCnObQgdgBFQ45LQoTyqL40qe0rq7zP///6vt06eqrdqn0j1oacWmECkri0AyA2hQ5ni3IbQARgBNS7HHDqoxVrpVDtFqi+NKjs0tUifGlXvFKoPPbXABCJ1bQFAbggdyhTnNoQOwAiocTnm0AH7UX1pVNmh/d4X3zR5qt4pVB96aoEJROraAoDcEDqUKc5tCB2AEVDjktChPKovjSo7NLVInxpV7xSqDz21wAQidW0BQG4IHcoU5zaEDsAIqHFJ6FAe1ZdGlR2aWqRPjap3CtWHnlpgApH6mBYA5MaHDmo7pinObQgdgBFQ45LQoTyqL40qOzS1SJ8aVe8Uqg89tcAEInVtAUBufOigtmOa4tyG0AEYATUuCR3Ko/rSqLJDU4v0qVH1TqH60FMLTCBS1xYA5IbQoUxxbkPoAIyAGpeEDuVRfWlU2aF9+73/z+SpeqdQfeipBSYQqWsLAHJD6FCmOLchdABGQI1LQofyqL40quzQ1CJ9alS9U6g+9NQCE4jUtQUAuSF0KFOc2xA6ACOgxiWhQ3lUXxpVdmhqkT41qt4pVB96aoEJROraAoDcEDqUKc5tCB2AEVDjktChPKovjSo7NLVInxpV7xSqDz21wAQidW0BQG4IHcoU5zajCB3Un+EApkJd85Eal4QO5VF9aVTZoalF+tSoeqdQfeipBSYQqWsLAHJD6FCmOLfhTgdgBNS4JHQoj+pLo8oOTS3Sp0bVO4XqQ08tMIFIXVsAkBtChzLFuQ2hAzACalwSOpRH9aVRZYemFulTo+qdQvWhpxaYQKSuLQDIDaFDmeLchtABGAE1LgkdyqP60qiy6c6ri8ur6upqYT5z22bz1fOXF+dun93UIn1qVL1TqD701AITiNS1BQC5IXQoU5zbEDoAI6DG5XChQz+LVOym+tKosulm1azpw/OL6vJqXs2Wz8/X/n9ZXZwvyyVQi/SpUfVOofrQUwtMIFLXFgDkhtChTHFuQ+gAjIAal8OFDv0sUrGb6kujyu7H9aEFSPPZatv5xWWnIEkt0qdG1TuF6kNPLTCBSF1bAJAbQocyxbkNoQMwAmpcDhc6eMdbpGI31ZdGld2L68ON/gv9u4tapE+NqncK1YeeWmACkbq2ACA3hA5linMbQgdgBNS4zCJ0OOIiFbupvjSqbBfWd/XHYraFRoQOG1S9U6g+9NQCE4jUtQUAuSF0KFOc2xA6ACOgxuWQoUMfi1TspvrSqLJS/XGY5vs4mo/CONZny4/FEDrspuqdQvWhpxaYQKSuLQDIDaFDmeLchtABGAE1Lk8SOpxwkYrdVF8aVXZfs/nyy0FD/230r3Pnzp0NZz/1+clT9VbtE6k+9NQCE4jUtQUAuSF0KFOc25wudKgXJ2HRUj+3WNC0TWYBDBg6JDjWIrV0qp0i1ZdGlU02m7mfy+4LQDe+JJS/XhGpeqdQfeipBSYQqWsLAHJD6FCmOLc5Qeiw/PN68/nNF87V/CS2+4QWKIkal4OFDj0tUrGb6kujyiZbu5ul/U+grj2fQC3Sp0bVO4XqQ08tMIFIXVsAkBtChzLFuc0JP15hixAXOthE9/KiOl8+Xv22tNkOYEWNy8FCh54WqdhN9aVRZYemFulTo+qdQvWhpxaYAACMkQ8d1HZMU5zbDBc61HdA+Dsd/DYAnhqXg4UOGIzqS6PKDk0t0qdG1TuF6kNPvXkDADBGhA5linObAUOHa+43pvxWFGinxiWhQ3lUXxpVdmhqkT41qt4pVB966s0bAIAxInQoU5zbHDd0WLvtOt65wMcrgH2pcUnoUB7Vl0aVHZpapE+NqncK1YeeevMGAGCMCB3KFOc2g93p0OXP66lvegemQl3zkRqXhA7lUX1pVNmhqUX61Kh6p1B96Kk3bwAAxojQoUxxbjPcxyssZAh3OvBnMwFNjUtCh/KovjSq7NDUIn1qVL1TqD701Js3AABjROhQpji3GfQ7Hexuh+ab7tvucgBA6IAF1ZdGlR2aWqRPjap3CtWHnnrzBgBgjAgdyhTnNicMHQDsS41LQofyqL40quzQ1CJ9alS9U6g+9NSbNwAAY0ToUKY4tyF0AEZAjUtCh/KovjSq7NDUIn1qVL1TqD701Js3AABjROhQpji3IXQARkCNS0KH8qi+NKrs0NQifWpUvVOoPvTUmzcAAGNE6FCmOLchdABGQI1LQofyqL40quzQ1CJ9alS9U6g+9J566ikAACbBhw5qO6Ypzm0IHYARUOOS0KE8qi+NKjs0tUifGlXvFKoPPfXmDQDAGBE6lCnObQgdgBFQ45LQoTyqL40qOzS1SJ8aVe8Uqg899eYNAMAYETqUKc5tCB2AEVDjcmqhw5vmf1YMVf8Uqi+NKjs0tUifGlXvFKoPPfXmDQDAGBE6lCnObQgdgBFQ45LQYbxU/VOovjSq7NDUIn1qVL1TqD701Js3CnPvUXV1dVV7/sFtXQYARoDQoUxxbkPoAIyAGpdTCx3Uom6qVP1TqL40quzQVL2nRtU7hepDT715oyT3qkdXj6p7q/8/Xz24HcsAwDgQOpQpzm0IHYARUOOS0GG8VP1TqL40quzQVL2nRtU7hepDT715oyB2l8Oje6vHtx88z90OAEaL0KFMcW5D6ACMgBqXhA7jpeqfQvWlUWVP6ezsbMNbPvxrk6fqrdonUn3oqTdvlGMjZAghBACMCaFDmeLchtABGAE1LsccOqjFmlrUTZWqv2qnSPWlUWWHpsKWqVH1TqH60FNv3igHoQOAKSF0KFOc2xA6ACOgxuWYQwdFLeqmStU/hepLo8oOTdV7alS9U6g+9NSbN8pB6ABgSggdyhTnNqMIHdRvBYGpUNd8pMYlocN4qfqnUH1pVNmhqXpPjap3CtWHnnrzRkESv9NBXVsAkBsfOqjtmKY4t+FOB2AE1LgkdBgvVf8Uqi+NKjs0Ve+pUfVOofrQi4tLFOb2g+r5hL9eoa4tAMgNoUOZ4tyG0AEYATUuCR3GS9U/hepLo8oOTdV7alS9U6g+9OLiEgWyux2urmqP7ont19S1BQC5IXQoU5zbEDoAI6DGJaHDeKn6p1B9aVTZoal6T42qdwrVh55aYAKRurYAIDeEDmWKcxtCB2AE1LgkdBgvVf8Uqi+NKjs0Ve+pUfVOofrQUwtMIFLXFgDkhtChTHFuQ+gAjIAal4QO46Xqn0L1pVFlh6bqPTWq3ilUH3pqgQlE6toCgNwQOpQpzm0IHYARUOOS0GG8VP1TqL40quzQVL2nRtU7hepDTy0wgUhdWwCQG0KHMsW5DaEDMAJqXBI6jJeqfwrVl0aVHZqq99SoeqdQfeipBSYQqWsLAHJD6FCmOLchdABGQI1LQofxUvVPofrSqLJDU/WeGlXvFKoPPbXABCJ1bQFAbggdyhTnNicJHWbzxZ99MpcX5xvbzy8uq6vLi+o8PA9gQY1LQofxUvVPofrSqLJDU/WeGlXvFKoPPbXABCJ1bQFAbggdyhTnNv2HDucX1cWseTyr5leX1cW5214/d0XoAGyhxiWhw3ip+qdQfWlU2aGpek+NqncK1YeeWmACkbq2ACA3hA5linObE3+84ry6uFwPHewuh/nFRXVJ6AC0UuOS0GG8VP1TqL40qmw6+7l8czfafBUSL9zcqRYD4+1UvadG1TuF6kNPLTCB6OzsDACy50MHtR3TFOc2Jw4d7K6GeTVrHp9fVJfz2eJfQgeglRqXw4UOLFIPpeqfQvWlUWXTzapZ04f2s9j9jLa+VB+JS6HqPTWq3ilUH3pqgQlE6toCgNz40EFtxzTFuc1JQ4f1Cay764HQAdhKjcvhQgcWqYdS9U+h+tKosvvxwfD1/w/4uazqPTWq3ilUH3pqgQlE6toCgNwQOpQpzm2OGzrUC5Dmt5zujoblb0b9YsQ+VrF6TOgAbKXG5XChg8cidR+q/ilUXxpVdi+zeXVld5+t/j9ffOeO6di3qt5To+qdQvWhpxaYQKSuLQDIDaFDmeLc5gR3Omx+j8NiodKEE07LpPbOnTvAZMXrXVHjMovQgUXqXlT9U6i+NKpsF/VfELI+a/rSWH+6j8h0vYtF1XtqVL1TqD701AITiNS1BQC5IXQoU5zb9B86+EVJG+50ALZS43LI0IFF6mFU/VOovjSqrNR6N9qS78P4szvlZ7mj6j01qt4pVB96aoEJROraAoDcEDqUKc5teg8dVosTZ2MhQugAbKXG5UlCBxapvVD1T6H60qiy+7KwqP5y0A79qe7gOfupz0+eqrdqn0j1oacWmECkri0AyA2hQ5ni3OakXyQJYD9qXJ4kdEjAIrU7VX/VTpHqS6PKJpvNXJhkH31r7lbx/198L0/8SyXbqLBlalS9U6g+9NQCE4jUtQUAuSF0KFOc2xA6ACOgxuVgoQOL1IOp+qdQfWlU2WRrd7OEPvPbOty1YlS9p0bVO4XqQ08tMIFIXVsAkBtChzLFuQ2hAzACalwOFjqwSD2Yqn8K1ZdGlR2aqvfUqHqnUH3oqQUmEKlrCwByQ+hQpji3IXQARkCNy8FCh56oRd1UqfqnUH1pVNmhqXpPjap3CtWHnlpgApG6tgAgN4QOZYpzG0IHYATUuCR0GC9V/xSqL40qOzRV76lR9U6h+tBTC0wgUtcWAOSG0KFMcW5D6ACMgBqXhA7jpeqfQvWlUWWHpuo9NareKVQfemqBCURnZ2cAkD0fOqjtmKY4tyF0AEZAjUtCh/FS9U+h+tKoskNT9Z4aVe8Uqg89tcAEInVtAUBufOigtmOa4tyG0AEYATUuCR3GS9U/hepLo8oOTdV7alS9U6g+9NQCE4jUtQUAuSF0KFOc2xA6ACOgxiWhw3ip+qdQfWlU2aGpek+NqncK1YeeWmACkbq2ACA3hA5linMbQgdgBNS4JHQYL1X/FKovjSo7NFXvqVH1TqH60FMLTCBS1xYA5IbQoUxxbjPa0GH2Zz+CI1JtjHyocUnoMF6q/ilUXxpVdmiq3lOj6p1C9aGnFphApK4tAMgNoUOZ4tyG0AE11cbIhxqXhA7jpeqfQvWlUWWHpuo9NareKVQfemqBCUTq2gKA3BA6lCnObUYbOtz+Fz+II1JtjHyocUnoMF6q/ilUXxpVdmiq3lOj6p1C9aGnFphApK4tAMgNoUOZ4txmFKGD+tufauGM/ak2xmmoaz5S45LQYbxU/VOovjSq7NBUvadG1TuF6kNPLTCBSF1bAJAbQocyxbkNdzqgptoY+VDjktBhvFT9U6i+NKrs0FS9p0bVO4XqQ08tMIFIXVsAkBtChzLFuQ2hA2qqjZEPNS4JHcZL1T+F6kujyg5N1XtqVL1TqD701AITiNS1BQC5IXQoU5zbEDqgptoY+VDjktBhvFT9U6i+NKrs0FS9p0bVO4XqQ08tMIFIfVwPAHLjQwe1HdMU5zaEDqipNkY+1LgkdBgvVf8Uqi+NKjs0Ve+pUfVOofrQUwtMIFLXFgDkxocOajumKc5tCB1QU22MfKhxSegwXqr+KVRfGlV2aKreU6PqnUL1oacWmECkri0AyA2hQ5ni3IbQATXVxsiHGpeEDuOl6p9C9aVRZU9J3Vb3lg//2uSpeqv2iVQfemqBCUTq2gKA3BA6lCnObQgdUFNtjHyocTnm0EEt1tSibqpU/VU7RaovjSo7NBW2TI2qdwrVh55aYAKRurYAIDeEDmWKcxtCB9RUG8/+7EdwRKqNU6lxOebQQVGLuqlS9U+h+tKoskNT9Z4aVe8Uqg89tcAEInVtAUBuCB3KFOc2JwgdzquLy6vq6mphPnPbZvPV85cX526f3dTCGftTbawWztifauNUalwSOoyXqn8K1ZdGlR2aqvfUqHqnUH3oqQUmJuzeo+t50KPqnnvu3qObedPzD26vl19S1xYA5IbQoUxxbnOC0GFWzZqg4fyiuryaV7Pl8/O1/19WF+fLcgnUwhn7o437p9o4lRqXhA7jpeqfQvWlUWWHpuo9NareKVQfemqBiSm6XT14/qq6evSoeuRDh9sPqgf3mjL3rrc9Xz243Ty+oa4tAMgNoUOZ4tzmxB+vcEGD3eUwn622nV9cdrrbQS3qsD/auH+qjVOpcUnoMF6q/ilUXxpVdmiq3lOj6p1C9aEXF5eYOgsW1u90uGHBBKEDgPEidChTnNucNnRwQcNGyBBCiF3Uog77o437p9o4lRqXhA7jpeqfQvWlUWWHpuo9NareKVQfenFxianbFjq0b1PXFgDkhtChTHFuc5LQwQKG+rOJ2+5sIHQYFG3cP9XGqdS4JHQYL1X/FKovjSo7NFXvqVH1TqH60IuLS0xde7Bg3+3AdzoAGDNChzLFuc1xQ4f6OxuaLz9qvq/Bqb84cvHdDYQOeaGN+6faOJUal4QO46Xqn0L1pVFlh6bqPTWq3ilUH3pqgYmRu/2gen41P4oBgwodFt/30BY4GHVtAUBuCB3KFOc2J/5Ohyeq2Xz5FyxCyLDtOx3u3LmzQS3qsD/auH+qjY265iM1LgkdxkvVP4XqS6PKDk3Ve2pUvVOoPvTUAhNTFkOH9u9x8NT7CQDkxocOajumKc5t+g8dZjN3x4P7KxUbf8mCv14xJNq4f6qNU6lxSegwXqr+KVRfGlV2aKreU6PqnUL1oacWmJiyEDrYn9B8dC+U2aSuLQDIjQ8d1HZMU5zb9B86rH3kYnmXQ7Ot/riFeD6BWtRhf7Rx/1Qbp1LjktBhvFT9U6i+NKrs0FS9p0bVO4XqQ08tMDFl66HD7QfPr+ZGDfUxC3VtAUBuCB3KFOc2J/94xbGoRR32Rxv3T7VxKjUuCR3GS9U/hepLo8oOTdV7alS9U6g+9OLiElDUtQUAuSF0KFOc2xA6oEYb90+1cSo1LgkdxkvVP4XqS6PKDk3Ve2pUvVOoPvTUAhOI1LUFALkhdChTnNsQOqBGG/dPtXEqNS4JHcZL1T+F6kujyu6j/vPGlxfV+fKxffFvc3t32xf9tlH1nhpV7xSqDz21wAQidW0BQG4IHcoU5zaEDqjRxv1TbZxKjcscQgcWqftR9U+h+tKost3ZF/pe913Tn+cX1cXqu3a6f9mvqvfUqHqnUH3oqQUmEKlrCwByQ+hQpji3IXRAjTbun2rjVGpcDh86sEjdl6p/CtWXRpXtygKk+cVFdelCpBvn1cUl/RmpeqdQfeipBSYQqWsLAHJD6FCmOLchdECNNu6fauNUalwOHTqwSN2fqn8K1ZdGle3E/srQfLb4V/anhUjNnzhOo+o9NareKVQfemqBCUTq2gKA3BA6lCnObQgdUKON+6faOJUal4OGDixSD6Lqn0L1pVFl07mAqKU/7WMzfFxmk6p3CtWHnlpgApG6tgAgN4QOZYpzG0IH1Gjj/qk2TqXG5XChA4vUQ6n6p1B9aVRZyfpr+Z0bV8tQyO5YWfXVRn9aX3fvS6PqPTWq3ilUH3pqgQlE6toCgNwQOpQpzm0IHVCjjfun2jiVGpcnCR1YpPZC1T+F6kujyqZZfi9HVPdp+kdk7ty5s+Hspz4/eareqn0i1YeeWmAC0dnZGQBkz4cOajumKc5tCB1Qo437p9o4lRqXJwkdNrBIPQZVf9VOkepLo8ruxYdIs3l1ZR+hiWUSqbBlalS9U6g+9NQCE4jUtQUAufGhg9qOaYpzG0IH1Gjj/qk2TqXG5TChQ8AidS+q/ilUXxpVdi+uP+s/hxrCpS53sKh6T42qdwrVh55aYAKRurYAIDeEDmWKcxtCB9Ro4/6pNk6lxmVuoQOL1HSq/ilUXxpVdmiq3lOj6p1C9aGnFphApK4tAMgNoUOZ4tyG0AE12rh/qo1TqXGZRehwRGpRN1Wq/ilUXxpVdmiq3lOj6p1C9aGnFphApK4tAMgNoUOZ4txmFKGD+nIKtajD/mjj/qk2Nuqaj9S4JHQYL1X/FKovjSo7NFXvqVH1TqH60FMLTCBS1xYA5IbQoUxxbsOdDqjRxv1TbZxKjUtCh/FS9U+h+tKoskNT9Z4aVe8Uqg89tcAEInVtAUBuCB3KFOc2hA6o0cb9U22cSo1LQofxUvVPofrSqLJDU/WeGlXvFKoPPbXABCJ1bQFAbggdyhTnNoQOqNHG/VNtnEqNS0KH8VL1T6H60qiyQ1P1nhpV7xSqDz21wAQidW0BQG4IHcoU5zaEDqjRxv1TbZxKjUtCh/FS9U+h+tKoskNT9Z4aVe8Uqg89tcAEInVtAUBuCB3KFOc2hA6o0cb9U22cSo1LQofxUvVPofrSqLJDU/WeGlXvFKoPPbXABCJ1bQFAbggdyhTnNoQOqNHG/VNtnEqNS0KH8VL1T6H60qiyQ1P1nhpV7xSqDz21wAQidW0BQG4IHcoU5zaEDqjRxv1TbZxKjUtCh/FS9U+h+tKoskNT9Z4aVe8Uqg89tcAEIvUnmAEgNz50UNsxTXFuQ+iAGm3cP9XGqdS4JHQYL1X/FKovjSo7NFXvqVH1TqH60FMLTCBS1xYA5MaHDmo7pinObQgdUKON+6faOJUal4QO46Xqn0L1pVFlh6bqPTWq3ilUH3pqgQlE6toCgNwQOpQpzm1OEDqcVxeXV9XV1cJ8tr59Nm+2XVYX5+vbtlGLOuyPNu6fauNUalwSOoyXqn8K1ZdGlR2aqvfUqHqnUH3oqQUmEKlrCwByQ+hQpji3OUHoMKtmTdBwflFdXs2r2XKbBQ6XF+eubDq1qMP+aOP+qTZOpcYlocN4qfqnUH1pVNmhqXpPjap3CtWHnlpgApG6tgAgN4QOZYpzmxN/vGJWzVehw/X/Ly+q840yadSiDvujjfun2jiVGpeEDuOl6p9C9aVRZYem6j01qt4pVB96aoEJROraAoDcEDqUKc5tThs6zObV1Xzm/j+v5suPXVx1DCDUog77o437p9o4lRqXhA7jpeqfQvWlUWWHpuo9NareKVQfemqBCUTq2gKA3BA6lCnObU4SOpxfXC6ChSZwMBY6uO9x6PpRC7Wow/5o4/6pNk6lxiWhw3ip+qdQfWlU2aGpek+NqncK1YeeWmACkbq2ACA3hA5linOb44YO9Xc2NF8MefPdDSs+aPB3PTTb/OMd1KIO+6ON+6faOJUal4QO46Xqn0L1pVFlT0n9fea3fPjXJk/VW7VPpPrQUwtMIFLXFgDkhtChTHFuc+LvdFjc0VD/BYsOocOdO3c2qEUd9kcb90+1sVHXfKTG5ZhDB7VYU4u6qVL1V+0Uqb40quzQVNgyNareKVQfemqBCUTq2gKA3BA6lCnObfoPHWYzd8eDfZFk85EK///Fn9WMf05zG7Wow/5o4/6pNk6lxuWYQwdFLeqmStU/hepLo8oOTdV7alS9U6g+9NQCE4jUtQUAuSF0KFOc2/QfOqx95CIEC35bh49WGLWow/5o4/6pNk6lxiWhw3ip+qdQfWlU2aGpek+NqncK1YeeWmACkbpjCgBy40MHtR3TFOc2J/94xbGoRR32Rxv3T7VxKjUuCR3GS9U/hepLo8oOTdV7alS9U6g+9NQCE4jUtQUAufGhg9qOaYpzG0IH1Gjj/qk2TqXGJaHDeKn6p1B9aVTZoal6T42qdwrVh55aYAKRurYAIDeEDmWKcxtCB9Ro4/6pNk6lxiWhw3ip+qdQfWlU2aGpek+NqncK1YeeWmACkbq2ACA3hA5linMbQgfUaOP+qTZOpcYlocN4qfqnUH1pVNmhqXpPjap3CtWHnlpgApG6tgAgN4QOZYpzG0IH1Gjj/qk2TqXGJaHDeKn6p1B9aVTZoal6T42qdwrVh55aYAKRurYAIDeEDmWKcxtCB9Ro4/6pNk6lxiWhw3ip+qdQfWlU2aGpek+NqncK1YeeWmBimu49uvnrXs8/uL2x/faD56ur5x9Ut8PzRl1bAJAbQocyxbkNoQNqtHH/VBunUuOS0GG8VP1TqL40quzQVL2nRtU7hepDLy4uMVG3H1QP7jWP71WPrp6vHtx22+vnrggdAIwaoUOZ4tyG0AE12rh/qo1TqXFJ6DBeqv4pVF8aVXZoqt5To+qdQvWhFxeXKMHt6sHz66GD3eXw6MGD6nlCBwAjRuhQpji3IXRAjTbun2rjVGpcEjqMl6p/CtWXRpUdmqr31Kh6p1B96MXFJUpgdzU8qu41j28/qJ5/dG/xL6EDgBEjdChTnNsQOqBGG/dPtXEqNS4JHcZL1T+F6kujyg5N1XtqVL1TqD704uIS02ff7XDznQ7urgdCBwAjR+hQpji3IXRAjTbun2rjVGpcEjqMl6p/CtWXRpXdx/nFZXV1eVGdN8/N5qsvubu8ON8ov42q99SoeqdQfejFxSUmwMKD5Vi68nc01AHD+pdI2scqVo8JHQCMHKFDmeLchtABNdq4f6qNU6lxmUPowCJ1P6r+KVRfGlW2u1k1t75b9ac9vqwuzuP/06h6T42qdwrVh15cXGKqNr/HYfXlkZEIHu7cuQMA2fOhg9qOaYpzm1GEDmdnZxvUog77o437p9rYqGs+UuNy+NCBReq+VP1TqL40qmxXFiDNLy6qy6Y/z93/r83mV9V8tr7PNqreU6PqnUL1oecXlpiwe4+qK/veBrWtwZ0OAEbOhw5qO6Ypzm240wE12rh/qo1TqXE5dOjAInV/qv4pVF8aVbYT67v5LPTheXVx6UOkeTWL+22h6j01qt4pVB96cXGJabKPUcQ7GvzHLGqEDgBGjtChTHFuQ+iAGm3cP9XGqdS4HDR0YJF6EFX/FKovjSqbzvVbCI7qx8vFUJcAyah6T42qdwrVh15cXAKKurYAIDeEDmWKcxtCB9Ro4/6pNk6lxuVwoQOL1EOp+qdQfWlUWcn1z9UyFLI7Vlbfv+H7M/Qtd65sUvVOofrQUwtMIFLXFgDkZqqhw//1Td80OHVeuYhzG0IH1Gjj/qk2TqXG5UlCBxapvVD1T6H60qiyaZbfyxFd9+PM97OxLwm1u1vW9l9QXyB09lOfnzxVb9U+kepDTy0wgUhdWwCQmymHDur5UyF0OBG1qMP+aOP+qTZOpcblSUKHDSxSj0HVX7VTpPrSqLJ78cGR9V8Ikbr8RRIVtkyNqncK1YeeWmACkbq2ACA3hA79IHQ4EbWow/5o4/6pNk6lxuUwoUPAInUvqv4pVF8aVXYv4W6V+k+iNsFSS4DURtV7alS9U6g+9NQCE4jUtQUAuSF06Aehw4moRR32Rxv3T7VxKjUuswsdrrFITaPqn0L1pVFlh6bqPTWq3ilUH3pqgQlE6toCgNwQOvTDXv9Q6rjHEuc2hA6o0cb9U22cSo3LLEKHI1KLuqlS9U+h+tKoskNT9Z4aVe8Uqg89tcAEInVtAUBuCB3yROiQSC3qsD/auH+qjVOpcUnoMF6q/ilUXxpVdmiq3lOj6p1C9aGnFphApK4tAMgNoUOeJh061Ldeh898N7did/nst1GLOuyPNu6fauNUalwSOoyXqn8K1ZdGlR2aqvfUqHqnUH3oqQUmEJ2dnQHAYGzRmsKHDnGbOu5YcP7bxbnNCUOH5bfeN6HD+UV1sfpzerZt+Xf/1/ZppxZ12B9t3D/VxqnUuCR0GC9V/xSqL40qOzRV76lR9U6h+tBTC0wgUtfWEPwCYl/quAD6pcZiV+q4kQ8d/POp+/cl1mUf6rhj0ff5x7nNyUIHu8thfrH+pXM3zquLS0KHIdHG/VNtnEqNS0KH8VL1T6H60qiyQ1P1nhpV7xSqDz21wAQidW0N4dCJ69gn7sBYnWrs5Rw6qOdL0Xf949zmNKGDfcO9fZN9+Kb7G3anw7yabTzfTi3qsD/auH+qjVOpcUnoMF6q/ilUXxpVdmiq3lOj6p1C9aGnFphApK6tIRw6cS194g8M5VRjj9AhT33XP85tThA6uLsYWkKHrn/P36hFHfZHG/dPtXEqNS4JHcZL1T+F6kujyg5N1XtqVL1TqD701AITiNS1NYRDJ66lT/yBoZxq7BE65Knv+se5zXFDBwsVmr/Rv7xzwT5WsQoUNkIHCyS6Bw5GLeqwP9q4f6qNU6lxSegwXqr+KVRfGlV2aKreU6PqnUL1oacWmNJHv1R97WtfW/pS9dH6+Y9WX/ral6vH7wllj+ijX2pec92XH79Hlkc/1LU1hEMnrqVP/IGhnGrsbQsdDuWP19Wh+49d3/WPc5ue73RYfnlkVAcP6d/jcOfOnQ1qUYf90cb9U21s1DUfqXFJ6DBeqv4pVF8aVXZoqt5To+qdQvWhpxaYG97zuPryKmhYPH78Ufv/sUKHlOP0H3Cgnbq2hnCMif+h1HGBqVNjoSt13GNrCx0Odej5n6r+ueq7/nFuc7Ivkqz5Ox1m8+rKvuchlkmkFnXYH23cP9XGqdS4JHQYL1X/FKovjSo7NFXvqVH1TqH60FMLzA12l8OXH1fv2dhG6FAKdW3to1l8HEId91SGfn1gKGO59gkd8mT1P5Q6biPObQYLHexjF/EOiC4fs1CLOuyPNu6fauNUalwSOoyXqn8K1ZdGlR2aqvfUqHqnUH3oqQXmJlvwq480LIOAj9qdEOJjD/UdEjcfifhSfXfEzX5f+tKXV9tWvvTRm/3XhNBh7djrH/dYHNee2zw/O4f3PL55XT6mkUZdW/vYNXHMXZwE70MdF8jdWK5dQodp2tV+cW5z2tDhiNSiDvujjfun2jiVGpeEDuOl6p9C9aVRZYem6j01qt4pVB96aoGpvad6/OWbhfviOVvUXz/X3AVRf++DDwBc2TokaEKDxbabBf8yHEi+0yGUv37dxbHUceP5ue1r54tt1LW1j9In3iw8MFZjuXYJHabJ2m+bOLchdECNNu6fauNUalwSOoyXqn8K1ZdGlR2aqvfUqHqnUH3oqQXmVss7DBZhQgwL3OO63PqC3r4Ucud+rvy6eOxFALJS3yGx67j7vC6Murb2YZND9XwpqL9eMHShjov+jaXt+wwdDqWOi+OIcxtCB9Ro4/6pNk6lxiWhw3ip+qdQfWlU2aGpek+NqncK1YeeWmDuUn88Ydciv/fQQd2hsOu4+7wujJpA70tdp6Wg/ofVf8zt11z/h1LHPoUhX7uLvkIH5C3ObQgdUKON+6faOJUal4QO46Xqn0L1pVFlh6bqPTWq3ilUH3pqgbnho4/dwnzxMYubjzO0LeLt//HjFf6jF10X/5vHvvkYhSqzz2O0OTs7wxHEBeQ+1HHH4tDzH3P9j3HuQ9Z/LG3vQwe1HdMU5zaEDqjRxv1TbZxKjUtCh/FS9U+h+tKoskNT9Z4aVe8Uqg89tcDctFjkr3+UoXl+yyJ+7WMQ2xf7dhfE+rGjbcdu9ttxPjsfo426tnB6tvBTz4/Foedv+4+ZqlMX6phdqGOmOnT/U/Ghg9qOaYpzG0IH1Gjj/qk2TqXGJaHDeKn6p1B9aVTZoal6T42qdwrVh55aYAKRurZwemNZ+LUZ+/mPGaEDpizObQgdUKON+6faOJUal2MOHdRtWG/58K8VQ9VftVOk+tKosqek6qPqPTWq3qp9ItWHnlpgApG6tnB6Qy/87PUPpY6L/qm+6EodNzeEDmWKcxtCB9Ro4/6pNk6lxuWYQwdF/SZ5qlT9U6i+NKrs0FS9p0bVO4XqQ08tMIFIXVs4vaEXfmNZeKJchA5linMbQgfUaOP+qTZOpcYlocN4qfqnUH1pVNmhqXpPjap3CtWHnlpgApG6tnB6hy76m99YH0IdF8gFoUOZ4tyG0AE12rh/qo1TqXFJ6DBeqv4pVF8aVXZoqt5To+qdQvWhpxaYQKSuLZzeoYt+QgNMHaFDmeLchtABNdq4f6qNU6lxSegwXqr+KVRfGlV2aKreU6PqnUL1oacWmECkri2cHqEDsB2hQ5ni3IbQATXauH+qjVOpcUnoMF6q/ilUXxpVdmiq3lOj6p1C9aGnFphApK4tnB6hA7AdoUOZ4txmFKGD+oZwtajD/mjj/qk2Nuqaj9S4JHQYL1X/FKovjSo7NFXvqVH1TqH60FMLTCBS1xZOz0KDQ6njAlNB6FCmOLfhTgfUaOP+qTZOpcYlocN4qfqnUH1pVNmhqXpPjap3CtWHnlpgApG6tgAgN4QOZYpzG0IH1Gjj/qk2TqXGJaHDeKn6p1B9aVTZoal6T42qdwrVh55aYAKRunMOAHLjQwe1HdMU5zaEDqjRxv1TbZxKjUtCh/FS9U+h+tKoskNT9Z4aVe8Uqg89tcAEInVtAUBufOigtmOa4tyG0AE12rh/qo1TqXFJ6DBeqv4pVF8aVXZoqt5To+qdQvWhpxaYQKSuLQDIDaFDmeLchtABNdq4f6qNU6lxSegwXqr+KVRfGlV2aKreU6PqnUL1oacWmECkri0AyA2hQ5ni3IbQATXauH+qjVOpcUnoMF6q/ilUXxpVdmiq3lOj6p1C9aGnFphApK4tAMgNoUOZ4tyG0AE12rh/qo1TqXFJ6DBeqv4pVF8aVXZoqt5To+qdQvWhpxaYQKSuLQDIDaFDmeLchtABNdq4f6qNU6lxOWTocH5xWV1dXS3Nq5nafnlRnYfnt1GLuqlS9U+h+tKosl3Qn/tR9U6h+tBTC0xM0e3qwfPNuLuqHt1b337vUbPt+erB7fVtRl1bAJAbQocyxbkNoQNqtHH/VBunUuNyyNBhNr+q5jO97YknZtXcJsosUlup+qdQfWlU2S7oz/2oeqdQfejFxSWm6l51rwkabj+onr96VN1bbrPA4fkHt13ZTeraAoDcEDqUKc5tTho6bPy2bDZfJfyXF+cb5bdRizrsjzbun2rjVGpcDhs6XFYX53qbjfP5xUV1ySK1lap/CtWXRpXtgv7cj6p3CtWHnlpgYuruVY9WocP1/59/UN3eKLNOXVsAkBtChzLFuc0JQ4f42zJ73Ex0/f/TqEUd9kcb90+1cSo1LocLHc6ri8tFWLgRGJ5fL07ns8W/LFJbqfqnUH1pVNl09Oe+VL1TqD701AITE3fvUXX16J77/6Pq0XJMXrUEEOraAoDcEDqUKc5tThY6bPy2LExit9/eu0kt6rA/2rh/qo1TqXE5XOjg+cDQFq/L/7NI3UrVP4XqS6PK7of+7ELVO4XqQy8uLjFdtx88vwgWmsDBWOjgvseh7aMW6toCgNwQOpQpzm1OEzrI35a5CW090d388rJt1KIO+6ON+6faOJUalycJHWzMNr9taxmjFhjab8ctWFz9lpxF6laq/ilUXxpVVqI/j0rVO4XqQy8uLjEB9Xc2NGPv5rsbVnzQ4O96aLb5x0vq2gKA3BA6lCnObU4QOmz5bZmbAHe5y8GoRR32Rxv3T7VxKjUuTxI6JFjcpWTBYTOhdloWqnfu3Nlw9lOfL4aqf2wjRfWlUWX3RX+mU/WObaOoPvTi4hJlsDsa6r9gkRg6qOsPAHLjQwe1HdMU5zbHDR3Eb9Faf1sWAgg+XjEs2rh/qo1TqXGZRehQj/nmjqXwfMsCtY36TfJUqfqnUH1pVNm90J+dqHqnUH3oxcUlJurePXfHg32RZPORCv//xZ/VjH9O06hrCwBy40MHtR3TFOc2Pd/p0P7bspkPI4z9JQv7CMba/gsqPVGLOuyPNu6famOjrvlIjcvhQof1cS3DQhapW6n6p1B9aVTZdPTnvlS9U6g+9OLiEhO19pGLECz4beIuB6OuLQDIDaFDmeLc5mRfJFnzE1cLGdwktvkc8cY+LdSiDvujjfun2jiVGpfDhQ79UIu6qVL1T6H60qiyQ1P1nhpV7xSqDz21wAQidW0BQG4IHcoU5zbDhQ7X7KMXTcLfdpdDG7Wow/5o4/6pNk6lxiWhw3ip+qdQfWlU2aGpek+NqncK1YeeWmACkbq2ACA3hA5linOb04YOR6QWddgfbdw/1cap1LgkdBgvVf8Uqi+NKjs0Ve+pUfVOofrQUwtMIFLXFgDkhtChTHFuQ+iAGm3cP9XGqdS4JHQYL1X/FKovjSo7NFXvqVH1TqH60FMLTCBS1xYA5IbQoUxxbkPogBpt3D/VxqnUuCR0GC9V/xSqL40qOzRV76lR9U6h+tBTC0wgUtcWAOSG0KFMcW5D6IAabdw/1cap1LgkdBgvVf8Uqi+NKjs0Ve+pUfVOofrQUwtMIFLXFgDkhtChTHFuQ+iAGm3cP9XGqdS4JHQYL1X/FKovjSo7NFXvqVH1TqH60FMLTCBS1xYA5IbQoUxxbkPogBpt3D/VxqnUuCR0GC9V/xSqL40qOzRV76lR9U6h+tBTC0wgUtcWAOSG0KFMcW5D6IAabdw/1cap1LgkdBgvVf8Uqi+NKjs0Ve+pUfVOofrQUwtMIDo7OwOA7PnQQW3HNMW5DaEDarRx/1Qbp1LjktBhvFT9U6i+NKrs0FS9p0bVO4XqQ08tMIFIXVsAkBsfOqjtmKY4tyF0QI027p9q41RqXBI6jJeqfwrVl0aVHZqq99SoeqdQfeipBSYQqWsLAHJD6FCmOLchdECNNu6fauNUalwSOoyXqn8K1ZdGlR2aqvfUqHqnUH3oqQUmEKlrCwByQ+hQpji3IXRAjTbun2rjVGpcEjqMl6p/CtWXRpUdmqr31Kh6p1B96KkFJhCpawsAckPoUKY4tyF0QI027p9q41RqXBI6jJeqfwrVl0aVHZqq99SoeqdQfeipBSYQqWsLAHJD6FCmOLchdECNNu6fauNUalwSOoyXqn8K1ZdGlR2aqvfUqHqnUH3oqQUmEKlrCwByQ+hQpji3GUXooP4Mh1rUYX+0cf9UGxt1zUdqXBI6jJeqfwrVl0aVHZqq99SoeqdQfeipBSYQqWsLAHJD6FCmOLfhTgfUaOP+qTZOpcYlocN4qfqnUH1pVNmhqXpPjap3CtWHnlpgApG6tgAgN4QOZYpzG0IH1Gjj/qk2TqXG5ZhDB3XHx1s+/GvFUPVX7RSpvjSq7Cmp+qh6T42qt2qfSPWhpxaYQKSuLQDIDaFDmeLchtABNdq4f6qNU6lxOebQQVG/SZ4qVf8Uqi+NKjs0Ve+pUfVOofrQUwtMIFLXFgDkhtChTHFuQ+iAGm3cP9XGqdS4JHQYL1X/FKovjSo7NFXvqVH1TqH60FMLTCBS1xYA5IbQoUxxbkPogBpt3D/VxqnUuCR0GC9V/xSqL40qOzRV76lR9U6h+tBTC0wgUh/vAYDc+NBBbcc0xbkNoQNqtHH/VBunUuOS0GG8VP1TqL40quzQVL2nRtU7hepDTy0wgUhdWwCQGx86qO2Ypji3IXRAjTbun2rjVGpcEjqMl6p/CtWXRpUdmqr31Kh6p1B96KkFJhCpawsAckPoUKY4tyF0QI027p9q41RqXBI6jJeqfwrVl0aVHZqq99SoeqdQfeipBSYQqWsLAHJD6FCmOLc5SehwfnFZXV1dLc2rmdp+eVGdh+e3UYs67I827p9q41RqXBI6jJeqfwrVl0aVHZqq99SoeqdQfeipBSYQqWsLAHJD6FCmOLc5Segwm19V85ne9sQTs2puYQShw6Bo4/6pNk6lxiWhw3ip+qdQfWlU2aGpek+NqncK1YeeWmACkbq2ACA3hA5linObE4UOl9XFud5mdznMLy6qS0KHQdHG/VNtnEqNS0KH8VL1T6H60qiyQ1P1nhpV7xSqDz21wAQidW0BQG4IHcoU5zYnCB3Oq4vL5qMVV9XlxfnNtvOL6nI+W/xL6DAo2rh/qo1TqXFJ6DBeqv4pVF8aVXZoqt5To+qdQvWhpxaYQKSuLQDIDaFDmeLc5sRfJGkfpWjuerAwYvl/QofB0cb9U22cSo1LQofxUvVPofrSqLJDU/WeGlXvFKoPPbXABCJ1bQFAbggdyhTnNscNHSw82PKFkca+38HudrCPVazueiB0GBxt3D/VxqnUuCR0GC9V/xSqL40qOzRV76lR9U6h+tBTC0wgUtcWAOSG0KFMcW5z4jsdmi+VXH55ZNQSPNy5c2eDWtRhf7Rx/1Qbm3i9K2pcTi10wG6qL40qi3ypPvTUAhOI1LUFALkhdChTnNucNnSo74QQXyrJnQ6Do437p9o4lRqXhA7lUX1pVFnkS/WhpxaYQHR2dgYA2fOhg9qOaYpzmxOEDut3Ncg/nUnoMDjauH+qjVOpcUnoUB7Vl0aVRb5UH3pqgQlE6toCgNz40EFtxzTFuc3JP15xLGpRh/3Rxv1TbZxKjUtCh/KovjSqLPKl+tBTC0wgUtcWAOSG0KFMcW5D6IAabdw/1cap1LgkdCiP6kujyiJfqg89tcAEInVtAUBuCB3KFOc2hA6o0cb9U22cSo1LQofyqL40qizypfrQUwtMIFLXFgDkhtChTHFuQ+iAGm3cP9XGqdS4JHQoj+pLo8oiX6oPPbXABCJ1bQFAbggdyhTnNoQOqNHG/VNtnEqNS0KH8qi+NKos8qX60FMLTEzb7QfPV1fPP6huN8/de7T6Au7nH9zeKG/UtQUAuSF0KFOc2xA6oEYb90+1cSo1LgkdyqP60qiyyJfqQ08tMDFl96pHFjCsQgd7/Hz14Hb8/zp1bQFAbggdyhTnNoQOqNHG/VNtnEqNS0KH8qi+NKos8qX60IuLS0yb3eXw6MGD6vkmdLjt/n/t3qOr6tG99X2MurYAIDeEDmWKcxtCB9Ro4/6pNk6lxiWhQ3lUXxpVFvlSfejFxSUmzAKGR/dC0HC7evC8v9PhUXUv7ndNXVsAkBtChzLFuQ2hA2q0cf9UG6dS45LQoTyqL40qi3ypPvTi4hJT5cKFcHdD/Xj5nQ7qLgejri0AyA2hQ5ni3IbQATXauH+qjVOpcUnoUB7Vl0aVRb5UH3pqgYmRcyHC1fLOBftYxepLIn3oEAIIPl4BYMwIHcoU5zaEDqjRxv1TbZxKjUtCh/KovjSqLPKl+tCLi0tM0fLLI6PnH1T3fBhh7C9Z2Ecw1vZ/qrpz5w4AZM+HDmo7pinObQgdUKON+6faOJUal4QO5VF9aVRZ5Ev1oRcXlyiAv7vBQoZwp4P6s5nq2gKA3PjQQW3HNMW5DaEDarRx/1Qbp1LjktChPKovjSqLfKk+9OLiEgUIH6mwj16s7n4QdzkYdW0BQG4IHcoU5zajCB3Ozs42qEUd9kcb90+1sVHXfKTGJaFDeVRfGlUW+VJ96KkFJhCpawsAckPoUKY4t+FOB9Ro4/6pNk6lxuUhocPb3/52+TrIl/WZ6ktDf47Htn5sqAUmEKnrCwByQ+hQpji3IXRAjTbun2rjVGpcHhI6GPU6yJfqQ0/tg/yovovUAhOI1PUFALkhdChTnNsQOqBGG/dPtXEqNS4PDR0MvyHPX8pvxhv0Z7669KNaYAKRus4AIDeEDmWKcxtCB9Ro4/6pNk6lxuUxQgcA+VELTCBS7xUAkBtChzLFuQ2hA2q0cf9UG6dS45LQAZgmtcAEIvVeAQC5IXQoU5zbEDqgRhv3T7VxKjUuCR2AaVILTCBS7xUAkBtChzLFuQ2hA2q0cf9UG6dS45LQAZgmtcAEIvVeAQC5IXQoU5zbEDqgRhv3T7VxKjUuCR2AaVILTCA6OzsDgOz50EFtxzTFuQ2hA2q0cf9UG6dS45LQAZgmtcAEIvVeAQC58aGD2o5pinObk4UOs/lVdXVlLquL8+Xzs/nyuavq8uJ8Y59t1KIO+6ON+6faOJUal4eGDt/93d+NDlQbGlW2D+q1o9e//vXImOozRS0wgUi9VwBAbggdyhTnNicJHSxw2AwVZtX8al7NVv93YUQCtajD/mjj/qk2TqXG5SGhgy1if+5HfqT6m1/8RSSwtlILf3vuXe96V/XRj360V/Yau4KHZmH7tre9DRnqEjyoBSYQqfcKAMgNoUOZ4tzmBKHDrJpfXlTn8Xm7y2E+Wz0+v7jsdLeDWtRhf7Rx/1Qbp1Lj8tDQwRbT//3DH0YCa6u20MFCgQ9+8IO9stfYFjoQOIxDavCgFphApN4rACA3hA5linOb/kOHOlyYV/PlxyiulgHERsgQQohd1KIO+6ON+6faOJUal4QOpzOG0EEtcpEfQgcci3qvAIDcEDqUKc5tThM6uI9ONB+1IHTIC23cP9XGqdS4JHQ4nWOGDu9///tX1HaF0GE6CB1wLOq9AgByQ+hQpji3OW7ocH5RXTZ3NDTf1xDDhOVjQoe80Mb9U22cSo1LQofTIXTAsRA64FjUewUA5IbQoUxxbnOij1dshg7x+W3f6XDnzp0NalGH/dHG/VNtbNQ1H6lxSehwOl1CB3uu+RvF9n/TbPuhH/qhtb9h7PfbhtBhOggdcCzqvQIAckPoUKY4tznNF0muPl5xXl1cXlXz2fX/67si+OsVuaCN+6faOJUal4QOp9MldLAw4U//9E9rPlx497vfXf//13/912uEDmUidMCxqPcKAMgNoUOZ4tzmBKHDNf+xi3jXw/L5Oojw++ygFnXYH23cP9XGqdS4PGXo8Mrrvq76uq/7+ur5md7+3z/8zurHv+66zOveKbaN36Ghw3ve857q7W9/e/WZz3xmbdvdu3erD3zgA2v7KzmEDk89eKF67bXXVl7+5DN7lYn6Om7jqWc+Wb283O+FB08tnnvqmeqTL98cr9Fs7xOhA45FvVcAQG4IHcoU5zanCR16oBZ12B9t3D/VxqnUuDx96PB11VvfOpPb/5e3fn311q//ekKHayp0sMDhYx/72Op5v838wA/8QK0tgBg6dHjmky9vLNCNX/ynlIn6Oq734IWbfXaFDq+99nL1yWf6DR4IHXAs6r0CAHJD6FCmOLchdECNNu6fauNUalyeOnSoQ4Wve131ysb2WfX81y+3EzrUIcKUQoennnpQvbBclDcL/Zsg4IXqQb0A2l3GH9P0dVwv3iHRdieDep2+EDrgWPzPEADIlQ8d1HZMU5zbEDqgRhv3T7VxKjUuTx46vPWddbjw4+8M29/5uurrvv6t1Stv3Qwd7A4Iu0NiIXw8Y/bW6q2rbdeuj/G/uH3r427sax/jUMdpwpBFAPLj71x+3MOFJFvPZYdDQ4cf/dEfrRe0PnRo/O7v/m71fd/3fbXz83MZPAwaOqw+nnBzF0B8bp8yfR3XytTlVkHCy9XLy7saUkKHvj9iQeiAY1HvFQCQGx86qO2Ypji3IXRAjTbun2rjVGpcnj50mC0W7iEcWNvmQoeNsnWI4EOA17mF/yIsWO1fBwkuGHjnWzuFDm/9en/s3eeyy6Ghwx//8R+vBQ3Rf/yP/7H2jne8o7p9+/ba8cygocPqboGbOwviIj2pTAwLejqulTHNxypeeHDzUQofKPjjNPz2vhA64FjUewUA5IbQoUxxbkPogBpt3D/VxqnUuBwidNhY9LsF/3roIMKB1V0I/jlnecdEHQysBQleYuiw9t0Te5xLcGjo8N73vrde1Pqg4V/9q39VBw3+uU9/+tP1Mf3xzJChw+rjDC9/snrmeqFjz8WFf0oZf0zT13HNar8XHlyXTw8d/Ov0hdABx6LeKwAgN4QOZYpzG0IH1Gjj/qk2TqXG5TChw/r/fdCwFjqsfTRinV/o1/v47au7EZZ3PoTyqaHD2j6J57LNoaGDlbu4uFgLGJrnf//3f3/13L/5N/+m/v4HfzwzhTsd/DHr7X0fdxkgtIUOa/us7pbgOx0wHuq9AgByQ+hQpji3IXRAjTbun2rjVGpcDhU63CzybYF/EwBshg7qToWGhQfXC//4kQf/2NSvZQFBc6x9Q4dt57IboUNY+Kd8VKLlYw+Nvo7r/1qF0hYqrPZ74YHcfiyEDjgW9V4BALkhdChTnNsQOqBGG/dPtXEqNS4HCx2ahf3r1kOCtdChDgLiRxqctaBgod4/hg61xestXl+EDmuhgggddp1LgkNDh7t379b/Pvvss2vbvvd7v7d67rnnVs995StfqZ/3xzODhg7uzoKNvyCxuptgdxl/TNPXcfcJHfzrEDpgLNR7BQDkhtChTHFuQ+iAGm3cP9XGqdS4HC50uLb8yIJ/bi10uGb7rN9hMKuef90yVIhBQP3Y3flwffyb4MAHCYv/37zO8o6JbaHDta3nkuDQ0MGef8973lP/3763wdj/3/nOd1Y/+ZM/uSpvdzo05b0hQwezWugH/uMKu8qoOxT6Oq6nPl5xs0+kj3FMhA44FvVeAQC5IXQoU5zbEDqgRhv3T7VxKjUuBw0d6sW+uFPBhQ5msdi/sRFSNNssbPAfr2hCCLHfTdBgrs9h7a4JHTqYbeeyS5fQwZ5rwgb7v2m2vfvd715ts49RmH/6T//pKnT4pV/6pfrPZvrjmaFDBxPvIPDBQEqZtnCgr+OutieHDjcf4egToQOORb1XAEBuCB3KFOc2hA6o0cb9U22cSo3LU4YOpesSOuwym81qtu8P/dAP1QveP/mTP6nZMZ9++umNfXIIHXAchA44FvVeAQC5IXQoU5zbEDqgRhv3T7VxKjUuCR1Oh9ABx0LogGNR7xUAkBtChzLFuc0oQofmdmRPLeqwP9q4f6qNjbrmIzUuCR1O59DQ4QMf+ED19/7e36vLN/3+0z/909V/+k//qfrjP/7j6od/+Idq3/M931OXjfsTOkwHoQOORb1XAEBuCB3KFOc23OmAGm3cP9XGqdS4JHQ4nUNDBytn7K9YfOYzn6n9yq/8SvXe9763+jt/5+/U3+Ng7t27J/cndJgOQgcci3qvAIDcEDqUKc5tCB1Qo437p9o4lRqXhA6nc2joYHcw+LtbjD1nf73ife97n9zHI3SYDkIHHIt6rwCA3BA6lCnObQgdUKON+6faOJUal4QOp3No6HAoQofpIHTAsaj3CgDIDaFDmeLchtABNdq4f6qNU6lxSehwOoQOOBZCBxyLeq8AgNwQOpQpzm0IHVCjjfun2jiVGpeEDqczhtCB4CF/TT+pPvTUAhOI1HsFAOSG0KFMcW5D6IAabdw/1cap1Lg8NHT4uR/5kXoxjd2srdpCh3e96111KNAne41toYMheMhbauBg1AITiNR7BQDkhtChTHFuQ+iAGm3cP9XGqdS4PCR0MLaIRTrVhkaV7YN67ahZ2CJPqs8UtcAEIvVeAQC5IXQoU5zbEDqgRhv3T7VxKjUuDw0dAORJLTABABgjHzqo7ZimOLchdECNNu6fauNUalwSOgDTpN68AQAYI0KHMsW5zclCh9n8qrq6MpfVxfnu53dRizrsjzbun2rjVGpcEjoA06TevAEAGCNChzLFuc1JQgcLFi4vzpOfT6EWddgfbdw/1cap1LgkdACmSb15AwAwRoQOZYpzmxOEDrNqfnlRnSc/n0Yt6rA/2rh/qo1TqXFJ6ABMk3rzBgBgjAgdyhTnNv2HDrN5dTWfV/P6IxTXmqCh7flEalGH/dHG/VNtnEqNS0IHYJrUmzcAAGNE6FCmOLc5Tejgvq9h9ZGKtuf9vluoRR32Rxv3T7VxKjUuCR2AaVJv3gAAjBGhQ5ni3Oa4ocP5RXXZ3LlwNa9m9lx9R8PspkzzuO355vEOalGH/dHG/VNtnEqNS0IHYJrUmzcAAGNE6FCmOLc50ccrDgsd7ty5s0Et6rA/2rh/qo2NuuYjNS4JHYBpUm/eAACMEaFDmeLc5jRfJLn6GMV5dXF5Vc1n255PoxZ12B9t3D/VxqnUuCR0AKZJvXkDADBGhA5linObE4QO1/zHLvzdDG3PJ1CLOuyPNu6fauNUalwSOgDT9OY3vxnoxU/91E/J53c59X6f/OQn5fMpxlLHU7fNvq9naBttTG06lrYZok2n3jaHtOkhbRPnNqcJHXqgFnXYH23cP9XGqdS4PDR0ePbF16rXXnxWbivFj12+Mpk22Naf9bbXgtZ6/1h1+cr19lcuqx+T29E39QYOHMNYJrv7TnTNWOp46rbZ9/UMbaONqU2nvrA2tI12SJse0jZxbkPogBpt3D/VxqnUuDx56PDsi/ksRI90LkWFDmvbnq1efO216pXLH3PPLf3YZfXKK69Ur7z2SnX5Y2EbTkK9gQPHMJbJ7r4TXTOWOp66bfZ9PUPbaGNq06kvrA1tox3Spoe0TZzbEDqgRhv3T7VxKjUuCR0IHbxuocOy7qINrayFEZ2vDxyNegMHjmEsk919J7pmLHU8ddvs+3qGttHG1KZTX1gb2kY7pE0PaZs4tyF0QI027p9q41RqXB43dFjcUv/is8tb6+tb8G9+012Xbbk1v168rrZt/nZ8bd/rRe6zawv95nUXv3l/7bUXq2fteftt++qYi/2axXF/5zJu6/25e5sOXKwflu1W98GyP3BS6g0cOIaxTHb3neiasdTx1G2z7+sZ2kYbU5tOfWFtaBvtkDY9pG3i3IbQATXauH+qjVOpcdlH6LARNPjfhIu7CzZ+W25l3EJVHmMtKFi87iuvvLgWEPzYpX+8PDe/QO7lXMZNBQut2+pAYTOUWW/XJhAKZdA79QYOHMNYJrv7TnTNWOp46rbZ9/UMbaONqU2nvrA2tI12SJse0jZxbkPogBpt3D/VxqnUuOwjdFj7jH/8TffGQt/9Vnz1nF+oqu0Jr6vE1+7lXMZtZ+jQ3OGxvMvjpu3Wy/m+0HdDoG/qDRwAAGAs4tyG0AE12rh/qo1TqXHZR+iw9lvt+NtwtfD3C1mnPk7L7fnrC1nxur6cP+620OEo5zJuO0OH1TYLYESbq7sf1HPonXrzBgAAGIs4tyF0QI027p9q41RqXOYROmwu5Fdatu8OHRaL4p0hw9HPZdzSQ4droj02Qh5n550oOCr15g0AADAWcW5D6IAabdw/1cap1LgcPHTY9Vvwlu1prysWxNtCh6Ocy7h1Ch2W7X4TJsTHNzbaHr1Tb94AAABjEec2hA6o0cb9U22cSo3LQUKHEAbUx1h77vo4LzYL1MUxN+9I6Pi69WN1nC7nsty+9VzGbTNY2LGtrv+ynbeFNsv2X78bBX1Sb94AAABjEec2hA6o0cb9U22cSo3Lk4cOTYgQFuqLxf6N9d+Wu32W++3+eEW41d+CAlsgr/22vY9zGbdY99qyzWTo0LTHdZlL277WvqLcRNppDNSbNwAAwFjEuQ2hA2q0cf9UG6dS4/LQ0GEotgDmOwKAdurNG2h192F1dXVVe3z/6d3P7yPlWC1lnr7/ePX81dXD6q7fp/Z0df9xs/2qenj3Ztvufa91rf8x28X02jY36rKP71dPN88d8Lqdn9/XAed4SNtw3Wwpc8Drdn5+Xwec4yFtM/Xrxtx9uHj+6upxdf9pt0/jkHqEMnFuM4rQ4ezsbINa1GF/tHH/VBsbdc1HalyOMnQQH4sAsE6+mQPBYsJ4t3q4mhzb/5uJZNvz+0g5VnsZm+T6IGHT3epus/3p+9VjN9lP2bdb/due31fK8drL7K5fw/a7nsyvFtaHvG7X5/eVcrz2Mvu3DdeN0WUOed2uz+8r5XjtZfZvmzKum9bAoNa2b/sxt+0b5zbc6YAabdw/1cap1LgcQ+iwecs/gQOwy/obOaDVk0f7zdLDu6vn7Dd1W59fPu4k5Vhbytx92GWi7SeuCft2rf8x28WcqG1sn4f371ePm4X1Ia/b9fnl484OOcfr/+/dNte4blrKHPK6XZ9fPu7skHO8/v/ebbPl+ZVRt831z1Y3RqRD6iHKxLkNoQNqtHH/VBunUuNyDKEDgO7W3siBFjbB25j8LSd+bc+vHnfQeiz7dzmJbX+99Y9OrMq4fVf7rO1nj1v2dbrW/5jtYk7SNnb3h5W3f3cec/l4S5muz68ed9R6PPu3x7bhurHyukxKPbq2Qcoxu2g9nv3bY9tM/rqp/31Y1XcFmaY9EvZNqYcqE+c2hA6o0cb9U22cSo1LQgdgmvwbOdBm22QwZZKYqvVY9u/ORcDycc3dluv2tW22fz0Rbj1Ht697vmv9084zXevxXP3SXrOtbWwhtHy+qNBh+bjWrW1a93XPT79tdJmUY3Ztg7TzTNd6PPu3x7ZJeX7UbWP/ujqtPmqRsG9KPVSZOLchdECNNu6fauNUalwSOgDT5N/IgTbbJoMpk8RU+0441evt/Eyx7ScXAXrfrvU/ZruYvttmbd+phA4dy5gubePLmBKvm6gpc8jrdn1+9bijQ87RlzFd2ibl+VG3TSzbYd99XzfObQgdUKON+6faOJUal8cIHV7/+tcjgWq7HKlzL5lqozHwb+RAm3qCFyZ/q4lf2/PLx52kHCvx9Wwif9Qveeta/2O2i+m1bey3rTe3e6/Y4vqQ1+36/PJxZ4ecoy9zrVPbuP30vtcm3TabVmUOed2uzy8fd3bIOfoy1zq1TcrzY26b8PzGY/Fcp3qIMnFuQ+iAGm3cP9XGqdS4PDR0aBZmb3vb27DFWBaw9Oe6sfSbsvZGDrSo7waw3/CqbxVve97tn6ztWDbJbBZ5Ka9XlxH73r27+uLIpH1T6tn1+eZ1umo73rHaJpbZecyEunZ9vn68h7bj9d028fnVMQ9og7bnm9fpqu14fbXNznok1LXr8/XjPbQdr++2aX3+gDZoe755na7ajpfUNv7/i++vWAVRu/ZNOaYoE+c2hA6o0cb9U22cSo3LQ0IHFqjd5L6ApT+13PutjZxsAG1s0rj8Te/ab+bant+HOpafrLaVqSefi+da960nq6JM275rk95rbfXs+vy+1PF8/drKpLSNZ+2UdMzS24brpr0NluU2nqdttj8/hba55n/WNnclpO4rn9/eNnFuQ+iAGm3cP9XGqdS4PDR0UIs0tMt58Up/tiN0AAAAOK04tyF0QI027p9q41RqXBI6nBahwzgROgAAAJxWnNv0HjqcX1yubrW4Ma9m19tm85vnLi/O5f5t1KIO+6ON+6faOJUal4QOp0XoME6EDgAAAKcV5zYnv9PBQog6YDi/qC5mzfOzan51WV2cr5fdRi3qsD/auH+qjVOpcUnocFqEDuNE6AAAAHBacW5z4tDBwoXFXQ7rz59XF5eEDkOijfun2jiVGpdjCR2eeupB9cJrr1WvOS9/8pmNcs988uW1Mq+98GCjTOOpBy+sl13zQvXgqafkfocgdFj31DOfrF5etvkLD3R7P/XUM9UnX479016+D2MMHdRYBgAA06De+6futKHDbN7yMYq2MKKdWtRhf7Rx/1Qbp1LjcgyhQ9ui0/jgYSNwaLz8yeoZESAQOqwbInR48MJNm3cNHV577eXqk8+cJngYa+jwjne8AwAATIy9xzfv9YeI84ZD9HUs74ShQ/vdDPbdDnynw7Bo4/6pNk6lxuV4Qof1EGC1WF0GCn5h2gQRN6FC+uK0OW5fv0UndLgRQ5/UNvd3vai7XfpA6AAAAHJh7/HNe/0HP/jBvTTH8PMGVS5Fn8fyjhs6nF9Ul+HLIte2zWfr5esgonvgYNSiDvujjfun2jiVGpdjCB2U1V0NG6HDTcBwszhNu2thtQhuuTPiGAgdFm765uXq5WVYtE/ocKqPWBA6AACAXNh7fPNerxbuKZpj+HmDKpeiz2N5J7vTwb5Acr764kiT/j0Od+7cASZLXfORGpdjDB3aftPtvx/AS1mY+jsl+lzIEjos3NxRktbuvs8bpwocDKFDuve9733Vc889BwCTZT/n1M8/4FTsPb55r1cL9xTNMfy8QZVL0eexvBOFDiJgmM2rq407HwAoalyOLXRYX3yu38GgP/ufeJfDKrDo57scGoQO7i6VFx4khz0qdOjzjpRo6qHDT/7kT9bm87ncnkpNzgFgqtTPQaCrn//5n68ePHhQs18kqjKRvcc37/Vq4Z6iOYafN6hyKfo8lnei0GHziyLtzofFxzBu7PMxC6AEalzmFDpsLixDqOC/AyAsOLd/p8PuIKH5zXvf3xFQeugQP8Kyzx0m/o4WvtOhnY1dNVHxmqDBJjwNVS4FdzgAKA13POAY/HuwSQkf7D2+ea9XC/fGSy+9VFPbmmP4eUMs8yu/8isbzzX8tpRjpYrH8k74RZIA9qXG5VhCBx84qIWmChhUEKHcvG7/fw2h9NDhgftrFUpqiLA6zpY/iXpMhA67qQk5AEyd+nkIdOHfg02uoYP9Pz5u/p9yrFTxWB6hAzACalzmFDq08WFE26LU//a7+Y25ek7pckfEoQgdFv3RJiV0WAunCB1a2dhVExX/UYo40TFqnxRqMg4AU6d+HgJdqPdis+0jF/Ye37zXq4V7gzsdkGBWzS8vqnO5DcdhH9lxH8+Z+PeDqHE5itDB3eWwQdymv2kRJtyEEOt3NDw44W/NSw8dIvXxithPPjxa1/+dKY0phA42afm5n/s5ObHx/D5dqMk4AEyd+nkIdKHeiz1774772Ht8814fF+1N0NCmKdccw88b/HHMMUMHK79NUy4eyyN06AWhQ/98G1sAkfaXUMZKjcuphA5N2QfxN+luuwodUj+CcSyEDuv2Dx36vyvFm0LoYCx4aH5zoiY2Ju6TSk3GAWDq1M9DoAv1Xmx3IzZ3Jqp97D2+ea/3C3ujggavKdccw88b/HGMDwOibUFB27G2acrFY3mEDr0gdOhfDB3Wv6h0atS4HEPoMCWEDuM0ldDBawKIONFRZVOoyTgATJ36eQh04d+Dm7BBlfPsPb55r/cL+ygGDV5zDD9viGV8GBBtCwp2ndc28VgeoUMvCB36Z0FD8/GKaQcORo1LQofTInQYJ0KH3fjrFQBKw1+vwDH49+CcQ4d4RwKhw2QQOvTvpo3tz69O/c+tqnFJ6HBahA7jNMXQoRE/cqHKpFKTcgCYKvVzEOhq10cpFHuPb97r1cK9wZ0OSEDo0D/fxufVxSUfr1AIHY6H0GGcphw6eBZAqOe74I4HAFPHHQ4Ymr3HN+/1auGeojmGnzeocin6PJZH6NALf+v/1eR/Cz+MEOzM5tXVhIMeNS4JHU6L0GGcSgkdAABA/uw9vnmvVwv3FM0x/LxBlUvR57E8QgdgBNS4JHQ4LUKHcSJ0AAAAubD3+Oa9/hBx3nCIvo7lEToAI6DG5aGhAwvVdE17qbbMAf2p5d5vbWzsqokKAAAYN3uPV+/9U0foAIyAGpeHhA6GhWqasSxc6c91Y+k3RY1lAAAwDeq9f+oIHYARUOPy0NDBNAszbKfaLkfq3Eum2ggAAACnRegAjIAal8cIHQAAAACgT4QOwAiocUnoAAAAACB3SaEDgPwQOgAAAADIHaEDMFKEDgAAAAByR+gAjBShAwAAAIDcEToAI0XoAAAAACB3hA7ASBE6AAAAAMjdRugAYDz8+FXUPgAAAABwKmuhAwAAAAAAwLEQOgAAAAAAgF4QOgAAAAAAgF4QOgAAAAAAgB58e/X/B2ktZDU6iGn5AAAAAElFTkSuQmCC;clipPath=inset(0% 77% 0% 0%);imageBorder=default;" parent="1" vertex="1">
          <mxGeometry x="120" y="80" width="358.65" height="920" as="geometry" />
        </mxCell>
        <mxCell id="0SyLPq6XLWBUC0CSMQzq-3" value="" style="shape=image;verticalLabelPosition=bottom;labelBackgroundColor=default;verticalAlign=top;aspect=fixed;imageAspect=0;image=data:image/png,iVBORw0KGgoAAAANSUhEUgAABB0AAAJvCAYAAAA3P6luAAAAAXNSR0IArs4c6QAAAARnQU1BAACxjwv8YQUAAAAJcEhZcwAAEnQAABJ0Ad5mH3gAAAASdEVYdFNvZnR3YXJlAEdyZWVuc2hvdF5VCAUAAKTFSURBVHhe7f3tsyzZWd95808QvOXJMlKfFghJLbwFG5BozpENoksPhyOhELAx51ghgbspzhFhGSFpnwaHb8kEvUFtJI3twbTdzYM9LTAyuNHtGAPWi4l5RRAzMROD5w9wBC/vmIiJvPeVVVn7qqt+WbWyqrJyZa7vi0+cU5Urs3KtlWvXWr+dVfvrvv3bv70CAAAAAAA4NkIHAAAAAADQC0IHAAAAAADQi7XQ4W//7b+NCfN9jTKo6wAAAADInZrbYpw2Qocf/MEfxAQxcMvEmAYAAMDYsHaZFkKHQuwauE8++WTtW7/1W6tv+qZv2pvtb8dRr4HTY0wDAABgbFi7TAuhQyG2DVwbaE+84dtqn//cL1d/+Adfrr761a92ZvvZ/nacW7du1dTr4XQY0wAAABgb1i7TQuhQCAZumRjTAAAAGBvWLtNC6FCIbQPXbiuyAWdeffXV6ld/9VerT33qU53Zfra/HceOadTrbfO3/tbfkrc+ve51r5Pl9/HGN76xZq/1zd/8zWuvY4/teduu9h0bxjQAAADGhrXLjSmsXQgdCrFt4NoFa0mf2XfQNmx/O04zENTreZZUvv71r189tsH+8Y9/vPrTP/3TFXv8Ld/yLfVgsnqYfQfWG97whtW5/fiP/3h9vv/u3/27FXtsz9sAtrJGHWcXO77VxX4IGFWmYdubH3QpbdYFYxoAAABjw9plYSprF0KHQuwauM1tRmowdmXHaQaHej3PBuSTb3xyVd78xm/8xtrAtcfxeDaw/HFS2CD8ju/4jvp4/jX+6I/+qPqd3/md2muvvVY/9+u//ut1WbPP4LVBaMf52Mc+VmsbvPb8z/zMz6zOxfZT5fbFmAYAAMDYsHaZ1tqF0KEQhw/c56pnnviG6hueeKZ6Tm6/kTpwLSW0gWED57d/+7drv/mbv7m6iL0vfOEL1UsvvVSXNW9605vWUsZdLF208/ED9t/+239b/cAP/ED9Q6A5Xxuk//gf/+N6uw1eY9u7ppM2IH/u535u9Vo2OOPgtcc/+7M/W2+3sqZtgO+LMQ0AAICxYe0yrbXL3qHDsy++Vr322ivV4w/p7T/4g89WL752XebFZ8U2nNrBA/e5Z6onnniieuIbnqieeU5sdxi44wwd6jF94vH6ocevZPUzgp9rAAAAw2PtQuhQW0zOX6teefwhud0WE6+80nFB8eyL1WuvPK4+pLbhIIcO3J84/4bqiWeeq//9hvOfkGUauwauDVZj23/5l395dXF3YfvZ/nYc9RqRDQj7vJM/xg//8A+tztMGZzOA7V8bsE25D3/4w8kDyrN9mgFpx2kGb+Mf/sN/WD/fDFijjnMIQodu+LkGAAAwPNYu01q7HBQ61JPv116snt3Y/qHq8SvL7UzOs3DYwP2J6rxJCS01/Ibz6idkuYVdA7dOHa/Z9s997nOrAdL4gz/4g/oib9jjWOazn/1svX/qZ5ZsMNoXrfhjNOdgPwTsNcz3f//318995CMfWZX7Z//sn9X7q+Pu0gxIP3htwMZBq/Y9BkKHbvi5BgAAMDzWLtNauxwWOjx+tp6Ev/hs2L6cZD8rFhT1IsNuT67d3Mbc/IZxxe3Xtk+zCHjx2eUtz9cLhWYfrDto4P7Eufs81OLzUec/Eco4uwZuwwadfRlLHFA2aJr9jR9EVtbYQOpyi5Idx77h1b+O19yOZIPZjv3P//k/X22z/XbVZRcbnM8999zaa9rjPgMHc8zQYX0cxrI2BsPHEj70uHolLN7XxvnGz4hmPC/+XZTb/KhD+8+Da/azR21rez7g5xoAAMDwWLtMa+1yYOjwocXEOfwWb21bnGT7svVCwC1KlpN6f6zt+zS/eXyxdRGBhUMGbnN7UvP4uWee2HqbUpeBa4Nk34GbmhQaO07bwL1///7qtewbWOMAO9bAbRLChn0maiyhw2KB7AOEZTCwKr87dKiPvzGW/TGasCEs2t0+W38e1K/nzuHZx4v/tz3fHMPh5xoAAMDwWLtMa+1ycOiwsdj40M1CY31yLhYlq9/oLR9vTM537bOcnNfn4csg2nvg1rckhS9gUc85DNxN4w4d1Di89iEfKuwKHfQx1l9TjOedx3A/D9bKOm3PC/xcAwAAGB5rF0KH2s3kfP3/fkK+Njmvf5Nnv8Xc1Do537lPmNyj1b4Dt04Gv+EbJJ8gersGrv9clH2+yV/Mxj6fZBd1Y9vnouw46jUi9QOiYYOnOd9Pf/rTG9uP8bmoZ599tj6W/duwxzaY9x28KY4SOtTjUC3a/eJZLKQ/5Bb7/v/O+gJejOd6v+VxE38e3DxutD2/iZ9rAAAAw2PtMq21y1FCh5sFhU2WbxYem5NztXBx5OR82z5MzlPtN3AXn4FSA7Qe0C1/93bXwD3GN8A+//zz9WA65BtgG825mt///d/f2H7IN8D6QWr/2nONOHiNOs4hsgkdWo7RPXTY8TPE1PvYIj6UbXve4ecaAADA8Fi7TGvtcpzQoZkkv7g+uV6bnH/ILR6W2zfEyfnOfZicp9pr4G67Fanepr+UZdfAbdiXqdjfrLW/XWt/x9bY37T1g6ZhfwPX/hbuf/gP/6FmA/bQv3XbsOeaL2PxzzfP2Q+Iff7WbTMwTTNo28rY4O3jroejhA4fahmH9fPN4lmEDn5x3XKM9dfcETq0nYe0ONbNz6hdzy/wcw0AAGB4rF2mtXY5UuhwrV5grD+3/lvM5QJj7Td815PrF7f/BnD7PkzOU+0zcOu/a9uSCDZJovpSltSBa5pbf77xG7+xZvt8/vOfX13wxgZWc7wn3/hkzb45Nh5rF/sclQ14P0h/93d/t3rLW95Sfeebv7P2O7/zO/Xztt3Kmi6fv2rYALTj2MBUg9aX8wM8deCmOkro0GyL43Bt8b54fLO/hRDr+9TH2PiNv99HjOcPrS/Qt/48uD7ezb7uWG3Pr45xw47PzzUAAIBhsXaZ1trleKFDvchYn1jHyblZTLZvrB9jMdleX4hs24fJeap9Bu6+GLgjDh3cOKvF3/C7betj1zRBg7n+WfAhCwzCwroZ3+Z6jK//jBDjuT7G+l0BrT8P6rIdnhf4uQYAADA81i6EDhihXQP3D//gyzX7whI1GFPZ/nacZqCp1/OefPLJtXOzC/fjH//46kI2jx49qr+Z1W4TsrKm6y1DDRuE9sPC2Oed7ItW7BteG/bYnrftVnafQWus7laXhirT8OVS2qwLxjQAAADGhrXLwlTWLoQOhdg2cG1QfP5zv1x79dVX9x68tp/tb8exYxr1etvYeTaD3tt2/l3ZoDc2UGyA+texx/b8vj8YcsOYBgAAwNiwdrkxhbULoUMhtl34ltg98YZvq9mgs7SvuWWpC9vP9rfj3Lp1q6ZeD6fDmAYAAMDYsHaZFkKHQmwbuKYZaJbw+fSsK9ufAZsPxjQAAADGhrXLtBA6FIKBWybGNAAAAMaGtcu0EDoUYtfAxTQxpgEAADA2rF2mhdChEAzcMjGmAQAAMDasXaaF0KEQDNwyMaYBAAAwNqxdpoXQoRAM3DIxpgEAADA2rF2mhdChENa3mB4/fhUro64HAAAAIFdxzotxI3QARsrGqx+/CmMaAAAAwJAIHYCRInQAAAAAkDtCB2CkCB0AAAAA5I7QARgpQgcAAAAAuSN0QPG++7u/O0vqXL1jhA6vf/3rAQAAAEyAmu831HqjD+q1CR1QNBsY73rXu6qPfvSjWbFzahu0jUNDh+aH09ve9jYAAAAAI7YteDjVmqdtDdMpdGgqAoyNup6NDQobIB/84AezYufUZ+jQtIv6gQUAAABgfNrWPqda87StYZJDBxYpGKu2wWdKDh1UWwEAAAAYL7XuGUXo0CzaVKWAMWiu4XhtEzqcxnvf+96t1D4AAAAAuhlyzXNw6KAqBIwJocONIUKHv//3/75E6AAAAAAcB6FDIv8bUEXtA+xC6HCjbUzbPt/2bd9Wfeu3fmtnr3vd66pbt27J49q4VYGDYUwDAAAAx0HokIgFCvpA6HCjbUy/4Q1vqL7v+76v+oVf+IXq05/+dLJ/9I/+UfWe97ynDh7UcRnTAAAAQP8mFzrYPvxWFGNB6HCjbUzb8x/4wAeqP/3TP63+63/9r9XXvva1Neo585//83+ugwcb2+q4+4zp5176q+qv/uqr1Wff/5Tc/tRTz1Uv/dV1mZeek9tz8tRT768++9Xrc/3qZ6v3P6Xr09X7P/vVtbov2uul6rkDjl8f09rU+epn3y/LAgAAID+TCx34rSjGhNDhRhzTb3nLW6o3v/nNdfkPf/jDG6HCn//5n9dBxL//9/+++pM/+ZPqv/yX/7JRxsb28UOH9kWvLZC/+tX1hfe+nnrupaMGAtFT7/9sfa5f3RKidBVDh2OIx6zP+7oPXnqun3YBAADAcU0udLDn+a3o8fFb0X4QOtyIY9ruOrLx+I3f+I0ydPjKV75S/ZN/8k+q7//+768ePXpU/d7v/d5GmT5ChzpUENdpM0bGEjrUdbkeG/W4O9LPoFOEDuaY5wwAAIB+TSZ04Lei/FbUxGPm/ltRQocbcUzbWLy8vKweP35cvfDCC6tx+hd/8RfVb/3Wb1U/8zM/U7397W+vj/fWt761+vEf//HqN37jN+rtfY7pr372uTpciNdUMwafa7kGV0FYGKf1fqvti/HV/OxYccerr/FQvj7OU4vQ46XnlmHmlgBvEXgu9l2c33pZv331nCi3dp6i7ov2Wv/5t37+13b8DFA/J/xxU85VtXFTFgAAAP2aTOjAb0X5rahpW6Ac+3WOhdDhhgodLEgwn/rUp+q7lOyOpKurq+onf/Inq+/6ru+qx3vjTW96U/W+972v+pVf+ZXqj/7oj+qgsZ/Q4f2L6yyMt7Vt7np7/2df2ggGmu2LxbELDp77rPv/5piOr7tYTC9+vtz8TLl5vTb+2Ddhxc0+KQv5elxtnMv6WGvapHlcn78PA0J7KLE9fZ3rxzvOdVsbAwAAoH+TCR1sYcFvRZfc8RaT/Gabm3ivFho2YbdtN5P4iN+K3pQ9NkKHG2pM/92/+3drP//zP1+PVbtbycb4xcVF9cM//MN18PAt3/It1Xd+53dWt2/frj70oQ9VDx8+rF599dXqz/7sz3oLHeJ15K8hdQ16zdivF/xinKhy9WN17a7GsQsdwhhS4ljbWNjvGCdqu6nHeMuYbttnWxuYjZ8B17oEJLuODwAAgH5NKnTgt6LrrxFfd7GYbhYNywUKvxUVCxTdxn0gdLgRx/Q3f/M3Vy+++GL1hS98ofoX/+JfrMLBxu///u/X52T72fl96Utf2ijT15iO//fXXbwGV8/5hXMYT3EhbeKYXo0ZwYcO8ThRvMbVc/su5GPdfRvFsdhoCyMaG2O6abPlczvPdUsbAwAAoH+TCh34rahboKiJ+HLy7RcofpHfRoYBa4uAXZN+vaiw47YuUFr22dYGZmNxFxYaO891x/GPjdDhRhzT9pdkrPyTTz5Z/fRP//RGoDB06HBzrdhYurmm/PhYXG/X12EMD9zjm2PZ9Xpz7W2M6ZZFeyM1dFBjpLFt/K2Nk5ZziT8b1tqrZZ+2sd6IxzSLc1nss+tc15+zera3IQAAAI5vMqEDvxVVCxR3DMeHDrsWKH5y3/bcvgv5UyxQVm22fG7nuW5p4z4MOQC7ahuw3jFDBwsIP/GJT1S/+Iu/WP3qr/7qxngdPHRoxtBL62PPX4Pq2q+3h9ChLrs83toY8GM6jLsoZUzH1/D8eclx4sZk27lY+7SO6ZZ9VBt5cUwbv8+uc13bb0v9AQAA0I8h1zxta5i9Qgd+KxoWKC2T7kbKAsXU57cMK6JV3XYt5FvOJS4m+ggdzOJcFvvsOtf156ye7W14DEMOwK7aBqx3zNDBxvQ/+Af/oHrw4EH9fS1xvA49ps3iOl1/bm1Mu2vv5vH1ddUs7q/3b8ZgHJNqDNSLevdcvc9LTVCwe0zH89nctti/OdbGzyb32vW5bPzMudmnKePbRp7/jhAgjunNc9t+rtvaGAAAAP3be83z8OXqf/+b/716+eGW/6v9nLY1zF6hA78VXT/utsVFvT1h8h1fw/PnJRfybsHUdi71AqRlgdK2j2ojLy5QjN9n17mu7bel/sey9wAcQNuA9Y4ZOrzxjW+svu3bvq0e2+ov0vzhH/5h/fEpG38f//jHq5dffnmjTO+hQ309iTHrrsH6cb0IvmZjxo3VxbW53HZt/diL608t5FfHc/ukjOl6X/HzxKxer/l5tFq8m+s6hrG3dn7mer9Y99heZq09ru0aX7F8zb2G2Xau29oYAAAA/ZtM6MBvRTcXzovFSVgk8FvRree6rY37cPTQ4QgDs82pQwffRhY62JfDxjG7jZU/9pgGAAAA0M3R1zwdHDV04Leiy8W0bQsL+dXx3D4pC+oYFHjti3dzXcf6XDcDg9W5XO8X6x7by6y1x7VtgYOJ5WvuNUxOvxUldLixLXS4d+9e9Sd/8iedggf7Itlf+IVfIHQAAAAABjSZ0MFXiN+KYiyGHIBdDRU6PPHEE9VTTz1VBw82tlN94AMfqL7v+76vDiPVcRnTAAAAQP8mGTrwW1GMBaHDjbYx/aY3vakOHmx7V294wxvq11THZUwDAAAA/bN5eZz7jzp04LeiGJMhB2BXQ4UOfWFMAwAAAP2bXOjAb0UxJnbdxWub0OE0bNxuo/YBAAAA0M2Qa55eQoe+2CJEBQ6GBQr2Rehw49RjGgAAAED/CB0S+d+AKmofYBdChxvWFgQPAAAAwHQ0c/w49yd0AE5kyAHYVd+hg2l+KKm2AgAAADAezdxezfttXfGud72rXmP0yV7joNCBxQnGrG0Qlhw6mKZdAAAAAIybmu83bG1xCuq1k0IH01RELeiAnG0bhDYwSg4dAAAAAKBPyaGDaRZvwNio69nYwv4Utxp11XZrkkfoAAAAACB3nUIHYIpscZ8jda4eoQMAAACA3BE6ACNF6AAAAAAgd4QOwEgROgAAAADIHaEDMFKEDgAAAAByR+gAjBShAwAAAIDcEToAI3WM0OHtb3979cQTTyBj1keq7xT6M19d+hEAAGBKCB2AkTo0dFALI+RL9aGn9kF+VN8BAABMWVLocHZ2Vr3+9a8HcEI27tR4bBwSOvAb8fHZ9pty+nM8Uu54ePOb3wwAwCT8P//961bUdkxTnNskhQ62AHrb294G4IRs3Knx2DgkdFCLIeRP9aVRZZEv1YeeevMGAGCMCB3KFOc2hA5ApggdEKm+NKos8qX60FNv3gAAjBGhQ5ni3IbQAcgUoQMi1ZdGlUW+VB966s0bAIAxInQoU5zbEDoAmSJ0QKT60qiyyJfqQ0+9eaMwdx9WV1dXtcf3n9ZlAGAECB3KFOc2hA5ApggdEKm+NKos8qX60FNv3ijJ3erh1cPq7ur/j6v7T8cyADAOhA5linMbQgcgU4QOiFRfGlUW+VJ96Kk3bxTE7nJ4eHf1+On7j7nbAcBoETqUKc5tCB2ATA0VOtz61P9dPfnSn1e33qG3P/HEz1a3Xrou86mfFdvQJ9WXRpX1Fn3q0HeDUn3oqTdvlGMjZAghBACMCaFDmeLchtAByNSwocO1j71bbn/iY39ePfnCtR4Xrrc+9Tu1J//1X1e3fvnLskyJVF8aVXbh3dWtFzZDhlsf+9za42Oi73ZTfeipN2+Ug9ABwJQQOpQpzm2OGjp84it/U/3N33h/WX3hg0/Jsl089dQHqy/85d9UX/nE4ccCxmLQ0MFChZdeqW5tbF8uYg8NHd769uqN/8NfVU/+1v9Z3br70Zrf/uRv//XC8jfzt974HWvbS6X60qiytXd87rr9tt21sgf67mCqDz315o1yEDoAmBJChzLFuc3RQ4e//MIHV48/+IW/PErwQOiAEg0aOnzsZ+tw4daPhu0/+kr15Aufq27Z3Q4HhA63nr1aLUqf/LX/ubba9tOfun7+v9VuXS9eb33699b2LZnqS6PKLiw+CrPRjweg7w6n+tBTb94oSOJ3OqhrCwBy40MHtR3TFOc2vYYOTVjgn9sHoQNKNGzo8O7lxyjWb8Nf27ZH6HDrwx+vPfnb1wtTYwvX5W/Gn/jB91a3PvjcYtF69Re1N9x6ozxOqVRfGlV2xfrK2rnt4zKJ6LvjUX3oxcUlCvP0/epxwl+vUNcWAOSG0KFMcW5z0tBhceeD/ujFUx/8QvWX/qMZf/mF6oNPLbbH0KF5/Dd/85XqE8sywJC+9KUvJVH7thk8dKh/S+5uza9v1V9+5ILQYRCqL40qu6buu+u2PiB8oO+OR/WhFxeXKJDd7XB1VXt4V2y/pq4tAMgNoUOZ4tzmJKGDhQV14OCDhE98ZS00+OAXvrIKIVahwlc+sXEce1x/d4Q7FpADFTJ4ap9thg8d1v+/FjR0DR2efLJ68hP/erEoNb/5v1ZPvO27qzd81/dUb/wf/4/aalF8vc2+B4DvAtik+tKospJ9PMbamL4blOpDTy0wgUhdWwCQG0KHMsW5Ta+hQx0O1MHCJ6qvxDsbQpAQ1aHEMljwZQkckDMVNhhVdpccQoebuxvsCyTdXQ8dQof6rxksfzN+6/H/VLOFbLP9yc/83kKzcP2Ff7m2P26ovjSqbKsOXy5J3/VD9aGnFphApK4tAMgNoUOZ4tzm6KHDzccnbsKBxV0NYduSDx3WP35xLYQOf/mXtp2PVCBvxwgcTBahw/KvVdz61OILJFflOoQO9S34tiC9Xryq7W+4/b7ak/Yb83/5v1W3vveOLIcjhQ4dvlySvuuH6kNPLTCBSF1bAJAbQocyxblNr3c6NOJHKTa213dC3IQM9XPiTodF6HCcP8MJ9OnQwMHkETpca27J9891vNPBFq23fukVuR3pVF8aVbZmdzXEfrK+k38OdRN91w/Vh55aYAKRurYAIDeEDmWKc5vThA71l0S2hwWL7euhhP8OCP/ximP9GU4gd9mEDvVvxsMildBhEKovjSq7sLirYfXxh1pa4GDou36oPvTUAhOI1LUFALkhdChTnNucJHRotvm7Heog4SvLUCGEEqu/ZCFCB9u+CB74mAWmbajQAflSfWlUWeRL9aGnFphApK4tAMgNoUOZ4tzmZKGDWQQPN3zZte9zsLCh5Ysk47H8c8CUEDogUn1pVFnkS/WhpxaYQKSuLQDIDaFDmeLc5qihA4DjIXRApPrSqLLIl+pDTy0wgUhdWwCQG0KHMsW5DaEDkClCB0SqL40qi3ypPvTUAhOIzs7OACB7PnRQ2zFNcW5D6ABkitABkepLo8oiX6oPPbXABCJ1bQFAbnzooLZjmuLchtAByBShAyLVl0aVRb5UH3pqgQlE6toCgNwQOpQpzm0IHYBMETogUn1pVFnkS/WhpxaYQKSuLQDIDaFDmeLchtAByBShAyLVl0aVRb5UH3pqgQlE6toCgNwQOpQpzm0IHYBMETogUn1pVFnkS/WhpxaYQKSuLQDIDaFDmeLchtAByBShAyLVl0aVRb5UH3pqgQlE6toCgNwQOpQpzm2SQgf7sxe2AAJwOurPzXiEDuVRfWlUWeRL9aGnFphApK4tAMgNoUOZ4twmKXQAkB9Ch/KovjSqLPKl+tBTC0wgUtcWAOSG0KFMcW5D6ACMFKFDeVRfGlUW+VJ96KkFJhCpawsAckPoUKY4tyF0AEaK0KE8qi+NKot8qT701AITiNS1BQC5IXQoU5zbEDoAI0XoUB7Vl0aVRb5UH3pqgQlE6toCgNwQOpQpzm0IHYCRInQoj+pLo8oiX6oPPbXABCL7smEAyJ0PHdR2TFOc2xA6ACNF6FAe1ZdGlUW+VB96aoEJROraAoDc+NBBbcc0xbkNoQMwUoQO5VF9aVRZ5Ev1oacWmECkri0AyA2hQ5ni3CYpdFAHAnA6alwSOpRH9aVRZZEv1YeeWmACkbq2ACA3hA5linMbQgdgBNS4JHQoj+pLo8oiX6oPPbXABCJ1bQFAbggdyhTnNoQOwAiocUnoUB7Vl0aVRb5UH3pqgQlE6toCgNwQOpQpzm0IHYARUOOS0KE8qi+NKot8qT701AITiNS1BQC5IXQoU5zbEDoAI6DGJaGDN6vmV1fVVXB5cS7KXpvNN8peXV5U56qscuj+e1J9aVTZUdujfc8vLjf2ae3/NefVxeX6flfzmSh3PKoPPbXABCJ1bQFAbggdyhTnNoQOwAiocUnocEMtOFfCAnI2F2VW5tXMlVUO3f8Qqi+NKjtW3dtXB05mZ+hwflFdiv0W+utL1YeeWmACkbq2ACA3hA5linMbQgdgBNS4JHS4YaHDfOaeW1tMXlYX5zfbFova9QWlX+juWqgeuv8hVF8aVXasurXv+l0Kse3Pz7f1xfq+zfXjA6y++lL1oacWmECkri0AyA2hQ5ni3IbQARgBNS4JHbbxC8oQOlyI2/T97fw7bq0/dP9DqL40quxYdWpf93zngMAHU2sf3fDXTj93O6g+9NQCE4jUtQUAuSF0KFOc2xA6ACOgxiWhwxatC8oWh4YGhA79amnfmzsg9ggH/DWy1mftgdWxqD701AITiM7OzgAgez50UNsxTXFuc3jo8LE/r5586f9e97F367LAVP3oK+tj4FM/q8st3fqUK/vC52QZT41LQod18nsdkgKA9e8EWPuYRpJD90+n+tKostPR1r7ueQuWfDBhdva9P64LF9aOQ+iAfKlrCwBy40MHtR3TFOc2xwkd/ALrHZ+rF1K3ftSVyYktDhMWeZ31dVzn1qd+p/bkv/7r6tYvf1mWwRDefd0vvu9/trplYUJb+GZjZnWtXO/7wu6QQo1LQod1+sskdy0a1xe03e9SOHT/blRfGlV2Gra1b9im7PEXL9YROiBf6toCgNwQOpQpzm2OHzpcq3+Lu2MRNZicQ4e3vr164//wV9WTv/V/VrfufrTmtz/523+9sPwN+a03fsfadmRkLVjwFoHEWihXB3V/Xt16h3suUOOypNDBf5HgyrYF/pYvkmxsLDg7BgaH7r8P1ZdGlc1Val/ubt/10EHeAbH2fItwh4R9N8TNORI6IF/q2gKA3BA6lCnObfoLHVa/5bVFVlhQ1YusV6pbzeO1W9O3L77q11uVvbb22ttfa+2Wdrfv6nz9sdcWjPsdt6tbz17dHOPX/ufaattPf+r6+f9Wu/Xbf13d+vTvre2LzLSFUPHar4kgIlDjktBh+yLfL1o3/qrB2oK2+8Ly0P33pfrSqLK5SunLtPZ14UK4o8Hv3/3jLnyRJMZBXVsAkBtChzLFuc3xQ4c6QPCLqh2hQ/1/t/1HP9ceOtShgD92vDU9MeAIi8FVaLAKSo5z3FS3Pvzx2pO//d8W7FyWdzU88YPvrW598Lnr566fv/qL2htuvVEeB/morykVPsnrZHG9ETocV2vosPab7T0WlYfufwDVl0aVHa3k9m0PBw4KHfzr93T3iupDTy0wgUhdWwCQG0KHMsW5TS9fJLm+eEoJHXyQ0EYcx6ztf0DoEBeI9X7NsQgd0MFGOOZsCR22fQGrGpeEDo1ZNd/47H7bLfZd/jKBK7s6fv9/2WAb1ZdGlR2nju3rAoKbYMn3fRNGqL58ojqfzdavm4SP5RyD6kNPLTAxYXcfXl9vD6u77rm7D5vr8Kp6fP/p9fJL6toCgNwQOpQpzm16+HhF17sEluU3worAFmtyIeePf0DosLHgO/y4Oz35ZPXkJ/719XEsaLj2m/9r9cTbvrt6w3d9T/XG//H/qK3CnOtt9h0OfI9D3hZ3zbQEDmZL6MCdDvtaDxg2+N9Wry0qWzTl1QK0y/49UH1pVNlR2qN95cc1llZhU0uYsP4xjnXdP5aRTvWhpxaYmKKnq/uPr6+3hw+rhz50ePp+df9uU+bu9bbH1f2nm8c31LUFALkhdChTnNv08p0One8SWD23ZcE2sdCh/ksUy7sabj3+n2oWQjTbn/zM7y00ocMv/Mu1/ZGbGLa1kNexXV+EDofQC0/xm+pOi1rx23FCh37t2b6b4UH8WEbLnQ4qdNi4a+b4VB96cXGJqbNgYf1OhxsWTBA6ABgvQocyxblNj6FDs7ASC/bWAGHLbeb1McNxVs93eK220CHWYW2//Y67zeqvUPz2f5Pb33D7fbUn7W6Hf/m/Vbe+944shzzIa0hKCLAENS4JHcqj+tKossiX6kMvLi4xddtCh/Zt6toCgNwQOpQpzm1O8PGK+HjxW93VIut6sX7zG97tt5lv3roeQ4odr2ViWHBtcVz/usv9DjzuNnangwUOt37pFbkdI9IWiLVsr6+3VUAVr2FNjUtCh/KovjSqLPKl+tCLi0tMXXuwYN/twHc6ABgzQocyxblNL18kuR5CmGaRbq4X5v43u/X/3b47Fl8br7dRfstr1ZaLPNu+PM96Efix6/2a5922Q467DaHDhMRr2KmDrHr7eijRBF21hOtFjUtCh/KovjSqLPKl+tBTC0yM3NP3q8erj/HEgEGFDovve2gLHIy6tgAgN4QOZYpzm8NDhwlYhA47wg5gQGpcEjqUR/WlUWWRL9WHnlpgYspi6ND+PQ7enTt3ACB7PnRQ2zFNcW5D6HCN0AG5U+OS0KE8qi+NKot8qT701AITUxZCB/sTmg/vhjKb1LUFALnxoYPajmmKcxtCh2uEDsidGpeEDuVRfWlUWeRL9aGnFpiYsvXQ4en7j9f/oso19TELdW0BQG4IHcoU5zaEDsAIqHFJ6FAe1ZdGlUW+VB96cXEJKOraAoDcEDqUKc5tCB2AEVDjktChPKovjSqLfKk+9NQCE4jUtQUAuSF0KFOc2xA6ACOgxiWhQ3lUXxpVFvlSfeipBSYQqWsLAHJD6FCmOLchdABGQI1LQofyqL40qizypfrQUwtMIFLXFgDkhtChTHFuQ+gAjIAal4QO5VF9aVRZ5Ev1oacWmECkri0AyA2hQ5ni3IbQARgBNS4JHcqj+tKossiX6kNPLTCBSF1bAJAbQocyxbkNoQMwAmpcEjqUR/WlUWWRL9WHnlpgApG6tgAgN4QOZYpzG0IHYATUuCR0KI/qS6PKHstsflVdXZnL6uJcl0E3qg89tcAEInVtAUBuCB3KFOc2hA7ACKhxmWvowCK1P6ovjSp7DNaXlxfnchv2p/rQUwtMIDo7OwOA7PnQQW3HNMW5DaEDMAJqXOYYOrBI7ZfqS6PKHm5WzS8vqnO5DYdQfeipBSYQqWsLAHLjQwe1HdMU5zaEDsAIqHGZX+jAIrVvqi+NKnuw2by6ms+reX3XyjX69mhUH3pqgQlE6toCgNwQOpQpzm0IHYARUOMyu9CBRWrvVF8aVfZg1p/uIzLcxXI8qg89tcAEInVtAUBuCB3KFOc2hA7ACKhxmWXowCK1V6ovjSrbyflFddmERVfzambP1SHS7KZMfIy9qT701AITiNS1BQC5IXQoU5zbEDoAI6DG5aChA4vUQai+NKrswTr05507d7Ck2idSfeipBSYQqWsLAHJD6FCmOLchdABGQI3LQUMHhUXqQVQ7RaovjSp7uFk1X925cl5dXF5V81ksg32oPvTUAhOI1LUFALkhdChTnNsQOgAjoMZldqEDi9Teqb40quxR+DtauGvlaFQfemqBCUTq2gKA3BA6lCnObQgdgBFQ4zK/0OEai9Reqb40qizypfrQUwtMIFLXFgDkhtChTHFuQ+gAjIAal1mGDuiV6kujyiJfqg89tcAEInVtAUBuCB3KFOc2hA7ACKhxSehQHtWXRpVFvlQfemqBCUTq2gKA3BA6lCnObQgdgBFQ45LQoTyqL40qi3ypPvTUAhOI1LUFALkhdChTnNsQOgAjoMYloUN5VF8aVRb5Un3oqQUmEJ2dnQFA9nzooLZjmuLchtBhl/NZdTG/rC4vl1+Ot3R5Oa9m9bf0b3Nenc/m12Uvw77NN/zvNpuvv+6Gy4vqXOw3Kvu28fV+8422nVcXs3NdfoP9tYX119xmyL/EoMYloUN5VF8aVRb5Un3oqQUmEKlrCwBy40MHtR3TFOc2hA7bzOZy8enN2xa49YJY72NSF7CTDx32bOPzi/WwIbpM+ssJhA4YF9WXRpVFvlQfemqBCUTq2gKA3BA6lCnObQgdtklYEF9dzavZxr67F7NpC9jz6mJLcFErIHTYaGP/Zxm32N3GXUKH9LtT+qDGJaFDeVRfGlUW+VJ96KkFJhCpawsAckPoUKY4tyF02MY+GjG/qGbn/jft5xt3H8TFbdxuv3X3wcD5zI65vo/mQwcVbkzAHm28fpfD5c3HKWIYkXS3Q5v1wOfyouWOlhNR45LQoTyqL40qi3ypPvTUAhOI1LUFALkhdChTnNsQOuwjLG7XFqTbtnVWQOjQZks7roUOIVhYCysOCR3W7sAYvu3VuCR0KI/qS6PKIl+qDz21wAQidW0BQG4IHcoU5zaEDvsIC+L238Ifulh1t/9P4Qsju9jSxu2BwPrdCbs/XtFm/WMXQ9/lYNS4JHQoj+pLo8oiX6oPPbXABCJ1bQFAbggdyhTnNoQOe1i/9X/9s/4bv2mPXyh5pL+ukPbXM8ZrWxsvtq9/xGI+t78ScrNP2hdJascNjo5DjUtCh/KovjSqLPKl+tBTC0wgUtcWAOSG0KFMcW5D6NDR+mL32triNnwPgC2EfVkn7bfwu7/ocP/f5udrexvfOL/QX0J52J0J+d3lYNS4JHQoj+pLo8oiX6oPPbXABCJ1bQFAbggdyhTnNoQOqc5na4FCbeMjD7tDghsJv0EPHzHQ8vhN/FEktfFCyp/M3OfjKDne5WDUuCR0KI/qS6PKIl+qDz21wAQidW0BQG4IHcoU5zblhg4tf6pR/mZbLP71onb9Toe1v6xwvW3bX2Ros/EaYmGey2/jN/TSxjEYuGnj8/hRlpY7JNqF/uu8f3/UuCR0KI/qS6PKIl+qDz21wAQidW0BQG4IHcoU5zaEDsHGgnij3GU1b/1Ohh2L1m1fjthFOM7oQ4dObbx+N8lGG661Tcc7FcJ55PTRFTUuCR3Ko/rSqLLIl+pDTy0wgejs7AwAsudDB7V9aN/x//1/V9R27CfObfh4xTbxt+8Jf0Fi659sLC10SNG1jXe14dr2zS+g3Gb9TpS8PraixiWhQ3lUXxpVFvlSfeipBSYQqWsLQHn8olltH5oPHdT2oTXtlnMbjlGc2xA6bLHXInTjt+VNICA+erFcEJ9f77NYKF9Wcxcg2Bclzi9m1blfOMePEHRcWOemexuH783wf8Vj46MnN8dra+Mb4bgZfbTCqHFJ6FAe1ZdGlT0llXCXSrVPpPrQUwtMIFLXFoDy+EVz3JaDnEOHGDQ0j3NtyzGJcxtCh1ZhEbrF+p0GMVxosVrUxtdxC+UdX5ZYy2xx3M1+bRy/G6NVQhuvHOsulJ6ocTnm0EEt1kqn2ilSfWlUWeRL9aGnFphApK4tAGXxC+RcF8u5hw5dnke6OLchdGgTb/vfYvPjDTsW02sfITggdEj4uEfW9m7jhGAnsY0bG19OmdndI2pcjjl0wH5UXxpVFvlSfeipBSYQqWsLQFni4pjQoZttoQPBw2Hi3IbQoc1BoYOxv1ZxuX6MS/0Fia23/tvHBewYYYF9eTl3fxVjxA5s4/PZRTW/btO1csu2iWHMro9X5Px9DkaNS0KH8qi+NKos8qX60FMLTCBS1xaAshA67G9XsEDocJg4tyF0AEZAjUtCh/KovjSqLPKl+tBTC0xM092HN4H34/tPb2x/+v7j6urx/erp8LxR1xaAshA67G9XWxE6HCbObQgdgBFQ45LQoTyqL40qi3ypPvTi4hIT9fT96v7d5vHd6uHV4+r+0257/dwVoQOAVip0yG2xPObQIbe2HJM4tyF0AEZAjUtCh/KovjSqLPKl+tCLi0uU4Onq/uP10MHucnh4/371mNABQAu1KCZ02K4JE1LaKbe2HJM4tyF0AEZAjUtCh/KovjSqLPKl+tCLi0uUwO5qeFjdbR4/fb96/PDu4l9CBwDBtoVzbgvlHEMH9bySW1uOSZzbEDoAI6DGJaFDeVRfGlUW+VJ96MXFJabPvtvh5jsd3F0PhA4AhG2LYUKH7bqGDg21He3i3IbQARgBNS4JHcqj+tKossiX6kMvLi4xARYerP5CkrujoQ4Y1r9E0j5WsXpM6ABA2LYIzm2BPObQodHsY/9GsSwW4tyG0AEYATUuCR3Ko/rSqLLIl+pDLy4uMVWb3+Ow+vLISAQPd+7cyUqciKsyAI5j2xjLbfz50EFtP7V92qfZJ+6bW1vnJM5tCB2AEVDjktChPKovjSqLfKk+9PzCEhN292F1Zd/boLY1RnSng02+1f8BHN+2MWbbGmr7qfnQQW0/tX3apa1N257H5lyH0AEYATUuCR3Ko/rSqLLIl+pDLy4uMU32MYp4R4P/mEVtJKFDnHQzCQf6lTK+chmDUwgdzLafa7m0dU7i3IbQARgBNS4JHcqj+tKossiX6kMvLi4BRV1bQ1ETbibhQH9SxlcuY3AqocM2/LzbFOc2hA7ACKhxSehQHtWXRpXtbDavrq7m1cw9N5vf/Ab28uJ8vTz2pvrQUwtMIFLX1lDUhNuea8RtAA6TMq5yGXuEDv2x182ln6M4tyF0AEZAjcvBQwcWqSen+tKosunOq4vL6z6bz6u578/zi+pi1pSZXW+7rC7Om8c4hOpDTy0wgUhdW0PZNunNdUKcq0MXEYfuj/yl9nEu10JOoUNfbTJUO+fSx0qc2wweOtwsUpjQAm3UuBwudGCROhTVl0aV7c76bD1EumF9Tn8ei+pDTy0wgUhdW6fWTHi3TXpznRDnxrflvm126P4Yhy79m8O10Hfo0OWa76s9hmrnLnU/tTi3GTR0sMCB34YCu6lxOVzo0GCRemqqL40q2922/ty2DV2pPvTUAhOI1LV1aimT3VwnxLnx7bRvmzX70ebT1qV/U8taub6umz5Dh+a8u9RTPX+ovo7bxtf71K+dKs5tBgwdriexlxfVudwGwFPjMu/QgUVqH1RfGlW2u/Y+IyA+LtWHnlpgApG6tk4tZbKb86Q4F7GNurZZU77Zp8u+uYh1QLsubbSrrG/3Lsftou/Qwf+7S1917LP9FP9a+75u3+cc5zbDhQ72efD69uzlxysIIIBWalzmHDqwSO2H6kujykrnF9Vl8zN3o+9Ufy4+SkNfHpfqQ08tMIFIXVunljph7XNiOwWqfbq0WSw7tva2823OeWznPoQubbSrrN/eV9v3ETrYuTaax7FM5Mv3oc9jR/61ur5u0w4NVeYY4txm2NDBfeabRQrQTo3Lk4QOLFKzovrSqLLdxf5M/4jMnTt3sKTaJ1J96KkFJhCpa+uUukxY+5zYToFqny5tFsuOrb39+Y7t3IdwyLURnaLt+wodtj1W+qpfo+/je/617P9dXvuQfb1d+8a5zcB3OszaHwNYUePyJKHDVixSj0m1U6T60qiy3YX+5Gdyb1QfemqBCURnZ2eDssmmel7pUrZEqn0Oad8xtbedqz/f+BiburTPtvaM27octwsfOqjtXak6pZx7X/Vr9H38xr71bxyyr6fOw4tzm1GEDmqCDkyFuuYjNS6zCx1YpPZO9aVRZbtb78/zi8vlHS43uIPlOFQfemqBCUTq2jolm2yq55UuZUuk2ueQ9rXHDf98jtQ5juG8h9S1fdrKx+f7ancfOqjtXanztOcacVujr/o1uhzfn2/X81Lluxwjlu36+sb2aajtJs5thv0iydXHKxa3ZM9Xf24PgKfGZW6hA4vU/qm+NKos8qX60FMLTCBS19YpdZmo7jOp3VfKZDg36ly7nH9b2TG0waF1L1HX9km9PuxxH21/itCh0dTB1yU+7kuX4/uyXc9Lld/3tdXjFM0+2/aNc5sBQ4dr/vPi/IYUaKXG5fChA05N9aVRZZEv1YeeWmACkU329pksHkuX1z7leTavNWTbdKXONfX8rVxb2TG0wSF1L1XX9rHyjfi8f9z23KGGCB2a//t/++Zfe5tYruv5qfKpx4iv3TznH6do9mmOp44R5zbDhg4AkqhxSehQHtWXRpVFvlQfemqBCUR2Le0zWUzVNpFsdHntXcc6puZ1Tvmah2g7z+b5XXXYtn3XvjlQ55hS75Lt2zbNfk37quPse+xtThk6eNvq2ZeU14plup6fKm/PNeI2r23f+FybttdRx4hzG0IHYATUuCR0KI/qS6PKIl+qDz21wFz4SPXFr32t+toXPyK2vbl65jOvVl/72qvVZ57Z3IbpsWupy2Sxi7aJpdf1tfs6Vy+e8yle81C7zvGQ7TnX386t0bZdPY/926bZb9v+XY9t5RtquxkqdDC7zu3Y/Gs1rx1fXz2Oz22zreyuY6ltx3ht9Xyc2xA6ACOgxiWhQ3lUXxpVFvlSfeipBeaChQ6vVq++qoKFZSCRReiwOE/Cj37ZtdRlsriLHas5nv93G7//Ll3L7yO+xile81C7zvGQ7TnX/9B6e1bWU2WmZN86Nvtt279pw9TX8Mds26e00MFTzzXPx/3ic212ld22va/XVs/HuQ2hAzACalwSOpRH9aVRZZEv1YeeWmAuLBbzX/ziq9Wrn3lmfdtHvlh97YtfzGSxT+hwCnYtdZksRrZvIz5unlPl4/OpDtk3VXyNQ8/5FHad3yHbc677ofX2fNmc69zGztlTZbx963js14jHattnyNBhKKpttp13ap12Hcd0fZ3mmLuOa9rKqOfj3IbQARgBNS4JHcqj+tKossiX6kNPLTAXmsW8/fvF6iOr55+pPlPf/RAW+898pnq1vvth4Ysfacovy33kZrttW3w8Y/F4LdRYO07zustjfOaLYR97vil7bflRkI98cfO55hgWotgdGq++6s/xmgUpr36meqZ5jDV2LaVMEts0+9q/jVjmmPo+vlGvcYrXPcSu8ztke851T6lXQ233fJmU8kqX1zu2rud/yDmm1jGlXNzeVr7E0CHa1Z6pdUopt+/rHHJs9Xyc2xA6ACOgxiWhQ3lUXxpVFvlSfeipBebCTahgi/jVAt1CgXpxfrO9WfyvlQnbVgt6W9xfP14FDfXjEC40Qcb1trVwoQkQtu2zxm9bHGPtdd33VazVERvsWkqZJLY5ZN992Os11PZjUMc+dT272nV+h2y3bbnWP/W8Uurvy+xb32a/Q/bfZ9+4365j7Ps6jS777yobt7WV3RU67Hodr0vZnOw67y71V897zWs14jb/2Nu2rdFWRj0f5zaEDsAIqHFJ6FAe1ZdGlUW+VB96aoG54Bbsq6DBL87D9rW7IVrKxePGx2t3OSzVwcC2Y8Rt15bBxkJbOXvsggvuctjKriWb6KVMFJV99ztUn6+rjj1UPVPtOr++tw8l9by61m/f+jb72b+NWKbNPvs04j67jrHPa3hdz3Nb2bitrWxb6NCcS+TLRLu2j1VqvbrWP5bftn/KsdvKqOfj3IbQARgBNS4JHcqj+tKossiX6kNPLTAX/CJ9+ZEK+4jEanHuth81dFg/zs594ra1YzQfBRHlrtlHPOzOh+bf5nlsOjs7q9lkr/l/CivfUNv71ufrqmMPXd9ddp3XrnNP2V89P7TU89pWf7VtW/ltDjlOU+5Yr+sfR/u8hmf7dzlGU17tE59rK+tDh1jWl2uej895u7aPVWq9utbfyjf7+P8rKcduK6OOHec2hA7ACKhxSehQHtWXRpVFvlQfemqBuRAW6cu7B24W53HhHz9e4e4iWFvsb3u8OM5mALBrH7fNzrMJRurzaCnXbH/1i9UX5V/ogNdcTzbR89fXLl3LH1sfr99MeLcde+h6t0k5r0PqlWO97Zy6nFdb2a7PK825qH3anm/EfePjFLHsrn27HFvpen4NdZ5tx4nP+9ChrUzb883reH77VKTWbZ/6N/vs2vfQ14/b4tyG0AEYATUuCR3Ko/rSqLLIl+pDTy0wF+Ii3e4a8HchhO31Aj9+pEGU2/V47TjXdn68YnFXxU1ZO8/l47VAIR7D7eu+2wFacz2lTBS9ruWPrY/XTznm0PVuc+i579rftjfU9lPb51za9mk7Tpfj7yq7bfshr29lGvF5/zhKOfY26jVTdDnPuK1r6BCpclOUUtd92qPZZ9e+h75+3BbnNoQOwAiocUnoUB7Vl0aVRb5UH3pqgVmSm4+BYJvmekqZKHpdyx9bH6+fckwrM3TdveZ8Us9dPW9S65Ra7hBNfdRrbduWQu3fdqwur7Gr7Lbth7z+tn3Vtub5tv36Fl9323nEbV1Ch5KltMk+7dbss2vflO3bysRtcW5D6ACMgBqXhA7lUX1pVFnkS/WhpxaYxag/XsEXSKZorqddE8Woa/lj6+P1U485dN29LueyrWwudbfjN68RX8tvO5Q/TtsxU18r5by2bd/2+sc+7q7j9S2+/q7z99sJHdKktMk+7dbss2tf276tTNf949yG0AEYATUuCR3Ko/rSqLLIl+pDTy0wp6/5CMbmxy2gNdfTrolg1LX8sfXx+qnHHLruXpdz2VY2l7r749v/I1/2ECnH3bW9sWu72XasbfvvOnbXfXcdr2/2+v4cdp2PLx9Dh3gsLKS0yT7t1rT3ocfvun+c24widPDfhAlMjbrmIzUuCR3Ko/rSqLLIl+pDTy0wgai5nlImgg0r26V8H/p4/dRjppRr2qiP8/S6HH9b2dTj5FSfU7FzarRtV88rsey245pdx+66767jnYI/h5Tzacqo0MGXw0KXNu3LtuN3Pb84t+FOB2AE1LgkdCiP6kujyiJfqg89tcAEouZ66jIJ7XvCmsLO4djnkXq8XeX8uR37HKMux2/OK+6jnmvTpWxXfR77GNrOrcs5x7K79rXt28p02bbrWKfizyHlfJrzJnRIk9qm6vlj2Xb8rucX5zaEDsAIqHFJ6FAe1ZdGlT0ldQdPqVT7RKoPPbXABKLmerJJXsNfZ0pKmVM49nmkHm9XO/ltxz7HaJ/jx326HmNXedt+jPPKTVOveJ5dznuffbeV6bIt5bVOwZ9Hl3MidEhj7dJQ203fbXfoa/sycW5D6ACMgBqXYw4d1GKtdKqdItWXRpVFvlQfemqBCUTxuuo6IRzSMc/DjtXleNvK+m3HPMeo6zk3mv2afbseY1d5f+wu9tlnCLF+Xc47lk3Zt3k9VXbb/nGfbWVPad9zInToZlv79N12h762lWnEuQ2hAzACalyOOXTAflRfGlUW+VJ96KkFJhDF6yp1QqieP7VjnkfXY7WVt+f9tmOeY3TosZv9ux7Hym/bZ9f2NvvsMxR/rl3OO7ZN131TnvP2fa0+7XtOhA7dbGufvtvOjt/2Gl1e28rGuQ2hAzACalwSOpRH9aVRZZEv1YeeWmACUbyuUiaEXSaNfTrmeXQ9lpVvxOe3PT6mQ4/dnP8+x2nbp49j5sifa9fz3ndfVXbX/s12+7fLa/WpOZeu5+RDh677lmhb+5yi7dpeo8trW9k4tyF0AEZAjUtCh/KovjSqLPKl+tBTC0wgih/Rskmeic97u7afSsq5ptr3OHG/XY+Pqc9j79L22s3z9m8jlom6lM2FP9eu573vvlY2lt+1f7PPrnKntO/5+NBBbce6bW18iuuh7TW6vLaVjXMbQgdgBNS4JHQoj+pLo8oiX6oPPbXABCJ1bdlETz1vbNu27ad2rHPZ9zjNfk27xOOo53bxx9q2b9fjHlN87bbzTTnHlDK5ac5Z1XkXX/6QfdXjMbBz3ue8feigtmPdtjY+xXXT9hpdXtvKxrkNoQMwAmpcEjqUR/WlUWWRL9WHnlpgApG6tmyid4wJ4ykc63z2PU6z37b9uxzbyvryzeN4DPXcKanz8Y93Pe8NWY99Nee8z7n7fbruH/fd5/WHtu95Ezp0s62dT3HdNK8fX6vLa1vZOLcZNnSYzaurq6va5cW5LgNAjktCh/KovjSqLPKl+tBTC0wgUteW8RNGP0n0/8/Bsc5n3+M0+23bv8ux28ra843mcSxzSvH1284n5TyHrss+7Jwbavs2fp+u+/vX3Oe1c+Dr0AWhQ3dt7XzKaye+VpfXtrJxbjNg6DCr5lfzarb6/2V1cR7LADBqXBI6lEf1pVFlkS/Vh55aYAKRurYiP0k85WQ1hZ1PIz6O4r7eru1tmv227e/LNGIZv11ta+w6xqnE82g7n5TzTCkzJSnttk2z/z775mDfcyd06K6tnU957cT+7vLaVjbObYYLHewuh/ls9fj84pK7HYAWalwSOpRH9aVRZZEv1YeeWmBiip6u7j9e3O1pHt5d3373YbPtcXX/6fVtRl1bkZ80dpkwntKu89t13vvWa9frGtvWaB7HMtuez9kx6jTGeh9qV7tNmdV5n3oTOnTX1s6nvu7863V97Ti3GSx02AgZQggB4IYal4QO5VF9aVRZ5Ev1oRcXl5iqu9XdJmh4+n71+OphdXe5zQKHx/efdmU3qWtLsYliQ20f2q7z23Xe+9ar2a/L/la2EZ/3j8egOee2c0+p0xjrfahd7TZlVud96k3o0F3T1k17x8en4l+v62vHuQ2hAzACalwSOpRH9aVRZZEv1YeeWmBi6u5WD1ehw/X/H9+vnt4os05dW2O0ayK9a6LbdSLcaPbbZ3/bx++37zkMqalD27lv29bYtX2KmjqXWPd9ETrsb+jrzb9u13OIcxtCB2AE1LgkdCiP6kujyiJfqg89tcDExN19WF09vOv+/7B6uPzYxVVLAKGurSmyie62ye6+k/HmuIfsr/4/Fil131VmjPU+VNMmJdZ9X4QO+xv6evOv2/Uc4txmFN/p8NGPfhSYLHXNR2pcEjqUR/WlUWWRL9WHXlxcYrqevv94ESw0gYOx0MF9j0PbRy3UtTVV2ybeXSfCXtsxU/j9DjmHoaTWvSmnyqbsDxA6HKZt/J1C89r7nEOc2wwXOpxfVJf89QogiRqXhA7lUX1pVNnOLAhe/Uz2zy1+28oX/R6P6kMvLi4xAfV3NizvXHDf3bDigwZ/10OzzT9eUtfW1KmJb9eJsLfPRLrR7HvIMYbU9bxV2THWG6dH6DB+XX9emDi3GS50MG5CO5+J7QBqalwOHjqwSD051ZdGlU13Xl1cXvfZfO7+jLHxYTDB8DGpPvTi4hJlsDsa6r9gkRg63Llzp0g28d32uItmIq227XLIvjnoev5Neb9fl/1RLh86qO3Inx/3qeLcZtjQAUASNS6HCx1YpA5F9aVRZbuzPnP9aXejXV5U58vHsznh8LGoPvTi4hITdfeuu+PBvkiy+UiF///iz2rGP6dp1LVVApv4bnvcRTORVtt2OWTfHBxad/8vsI0PHdR25G+fnxdxbkPoAIyAGpfDhQ4NFqmnpvrSqLLdhf6swyUfIvltOITqQy8uLjFRax+5CMGC3ybucjDq2ipBnPgesvDdZyLdOGTfsWvqXWr90Q2hw/jt8/Muzm0IHYARUOMyu9CBRWrvVF8aVbY70Wf1d+8sFj4ESMej+tBTC0wgUtdWCeLk95CF7z4T6cYh+45dU/dS649uCB3Gb5/xHuc2hA7ACKhxmV/ocI1Faq9UXxpVVnL9s/F9HLE/uXOlN6oPPbXABCJ1bZXCL3q7ToRxHLQ9UhE6jN8+4z3ObQgdgBFQ4/IkoQOL1KyovjSqbHfr/bnxZ4ztS0Ldnzn21BcIlUq1T6T60FMLTCBS1xZwKoQOSEXoMH6EDkAh1Lg8SeiwFYvUY1LtFKm+NKpsdyFEsv4LIRJ/keQ4VB96aoEJROraAk6F0AGpCB3KFOc2hA7ACKhxmVvowCK1f6ovjSrbXejPaxYkLe5yudYSIKE71YeeWmACkbq2ACA3hA5linMbQgdgBNS4zC50uMYitV+qL40qi3ypPvTUAhOI1LUFALkhdChTnNsQOgAjoMbl8KEDTk31pVFlkS/Vh55aYAKRurYAIDeEDmWKcxtCB2AE1LgkdCiP6kujyiJfqg89tcAEInVtAUBuCB3KFOc2hA7ACKhxSehQHtWXRpVFvlQfemqBCUTq2gKA3BA6lCnObQgdgBFQ45LQoTyqL40qi3ypPvTUAhOIzs7OACB7PnRQ2zFNcW5D6ACMgBqXhA7lUX1pVFnkS/WhpxaYQKSuLQDIjQ8d1HZMU5zbjCJ0UOkJMBXqmo/UuCR0KI/qS6PKIl+qDz21wAQidW0BQG4IHcoU5zbc6QCMgBqXhA7lUX1pVFnkS/WhpxaYQKSuLQDIDaFDmeLchtABGAE1LgkdyqP60qiyyJfqQ08tMIFIXVsAkBtChzLFuQ2hAzACalwSOpRH9aVRZZEv1YeeWmACkbq2ACA3hA5linMbQgdgBNS4JHQoj+pLo8oiX6oPPbXABCJ1bQFAbggdyhTnNoQOwAiocUnoUB7Vl0aVRb5UH3pqgQlE6toCgNwQOpQpzm0IHYARUOOS0KE8qi+NKot8qT701AITiNS1BQC5IXQoU5zbEDoAI6DGJaFDeVRfGlUW+VJ96KkFJhCpawsAckPoUKY4tyF0AEZAjUtCh/KovjSqLPKl+tBTC0wgUtcWAOSG0KFMcW4zeOgwm19VV1fmsro412WA0qlxSehQHtWXRpVFvlQfemqBCURnZ2cAkD0fOqjtmKY4txk0dLDA4fLiXG4DcEONS0KH8qi+NKos8qX60FMLTCBS1xYA5MaHDmo7pinObQYMHWbV/PKiOpfbAHhqXBI6lEf1pVFlT0kl3KVS7ROpPvTUAhOI1LUFALkhdChTnNsMFzrM5tXVfF7N649WXCOAAFqpcTnm0EEt1kqn2ilSfWlUWeRL9aGnFphApK4tAMgNoUOZ4txm2NDBfY8DH7UA2qlxOebQAftRfWlUWeRL9aGnFphApK4tAMgNoUOZ4tzmNKHD+UV12dzRcDWvZvZcfafD7KZMfAxgRY1LQofyqL40qizypfrQUwtMIFLXFgDkhtChTHFuM/DHK9JChzt37gCTpa75SI1LQofyqL40qizypfrQUwtMIFLXFgDkhtChTHFuM+wXSa4+XnFeXVxeVfNZLAPAqHFJ6FAe1ZdGlUW+VB96aoEJROraAoDcEDqUKc5tBgwdrvmPXfDRCqCVGpeEDuVRfWlUWeRL9aGnFphApK4tAMgNoUOZ4txm2NABQBI1LgkdyqP60qiyyJfqQ08tMIFIXVsAkBtChzLFuQ2hAzACalwSOpRH9aVRZZEv1YeeWmACkbq2ACA3hA5linMbQgdgBNS4JHQoj+pLo8oiX6oPPbXABCJ1bQFAbggdyhTnNoQOwAiocUnoUB7Vl0aVRb5UH3pqgQlEZ2dnAJA9Hzqo7ZimOLchdABGQI1LQofyqL40qizypfrQUwtMIFLXFgDkxocOajumKc5tCB2AEVDjktChPKovjSqLfKk+9NQCE4jUtQUAuSF0KFOc2xA6ACOgxiWhQ3lUXxpVFvlSfeipBSYQqWsLAHJD6FCmOLchdABGQI1LQofyqL40qmwXs/lVdXW1cHlxvrH9/OKyurq8qM7D89iP6kNPLTCBSF1bAJAbQocyxbkNoQMwAmpcDhk6sEgdhupLo8omO7+oLmbN41k1v7qsLs7d9vq5676mP49G9aGnFpiYtqfvP66uHt+vnm6eu/tw9TP28f2nN8obdW0BQG4IHcoU5zaEDsAIqHE5WOjAInUwqi+NKruf8+ricr0/LUCaX1xUl/Tn0ag+9NQCE1N2t3poPzNXoYM9flzdfzr+f526tgAgN4QOZYpzG0IHYATUuBwsdFjDIvWUVF8aVXY/FhjNq1nz+Py6H+ezxb/059GoPvTi4hLTZnc5PLx/v3rchA5Pu/9fu/vwqnp4d30fo64tAMgNoUOZ4tyG0AEYATUu8wgdWKSekupLo8ruwz42c/NxGRco0Z9HpfrQi4tLTJgFDA/vhqDh6er+Y3+nw8Pqbtzvmrq2ACA3hA5linMbQgdgBNS4zCF0YJF6WqovjSorWb8sPyd+5cOiuu/Wv5/D7lhZPaY/j0r1oRcXl5gqFy6Euxvqx8uxqu5yMOraAoDcEDqUKc5tRhE6nJ2dAZOlrvlIjcuThA4sUrOi+tKosuk2PyKz+l6OqKVP79y5g6XYNorqQ08tMDFyLkS4Wt65YB+rWH1JpA8dQgDBxysAjBmhQ5ni3IY7HYARUOPyJKGDxCK1D7GNFNWXRpVNNptXV/aRGLWtQYh0VKoPvbi4xBQtvzwyeny/uuvDCGN/ycI+grG2/5vlzxEAyI0PHdR2TFOc2xA6ACOgxuVgoQOL1MGovjSqbKr6z5uGhY+/g6VGfx6V6kMvLi5RAH93g4UM4U4H9Wcz1bUFALnxoYPajmmKcxtCB2AE1LgcKnRgkToc1ZdGlUW+VB96cXGJAoSPVNhHL1Y/Y8VdDkZdWwCQG0KHMsW5DaEDMAJqXA4VOmA4qi+NKot8qT701AITiNS1BQC5IXQoU5zbEDoAI6DGJaFDeVRfGlUW+VJ96KkFJhCpawsAckPoUKY4tyF0AEZAjUtCh/KovjSqLPKl+tBTC0wgUtcWAOSG0KFMcW5D6ACMgBqXhA7lUX1pVFnkS/WhpxaYQKSuLQDIDaFDmeLchtABGAE1LgkdyqP60qiyyJfqQ08tMIFIXVsAkBtChzLFuQ2hAzACalwSOpRH9aVRZZEv1YeeWmACkbq2ACA3hA5linOb04UO9rf9r+bVzD03m2/5k3sAVtS4JHQoj+pLo8oiX6oPPbXABCJ1bQFAbggdyhTnNicIHc6ri8ur6mo+r+Y+dDi/qC5mTZnZ9bbL6uK8eQzAU+OS0KE8qi+NKot8qT701AITiNS1BQC5IXQoU5zbnPDjFRYsrN/pcMOCCUIHoI0al4QO5VF9aVRZ5Ev1oacWmEB0dnYGANnzoYPajmmKc5tMQodt2wCocUnoUB7Vl0aVRb5UH3pqgQlE6toCgNz40EFtxzTFuU0WoYN9twPf6QC0U+OS0KE8qi+NKot8qT701AITiNS1BQC5IXQoU5zbHDd0OL+oLpdfDBm/NFKHDovveyBwALZT45LQoTyqL40qi3ypPvTUAhOI1LUFALkhdChTnNsMeKdD+vc43LlzB5gsdc1HalwSOpRH9aVRZZEv1YeeWmACkbq2ACA3hA5linOb4UIH+xOa81koA0BR45LQoTyqL40qi3ypPvTUAhOI1LUFALkhdChTnNsMFjqcX1wuP4Zxg49ZAJoal4QO5VF9aVRZ5Ev1oacWmECkri0AyA2hQ5ni3OaEoQOAfalxSehQHtWXRpVFvlQfemqBCUTq2gKA3BA6lCnObQgdgBFQ45LQoTyqL40qe0rq7zP///6vt06eqrdqn0j1oacWmECkri0AyA2hQ5ni3IbQARgBNS7HHDqoxVrpVDtFqi+NKjs0tUifGlXvFKoPPbXABCJ1bQFAbggdyhTnNoQOwAiocTnm0AH7UX1pVNmh/d4X3zR5qt4pVB96aoEJROraAoDcEDqUKc5tCB2AEVDjktChPKovjSo7NLVInxpV7xSqDz21wAQidW0BQG4IHcoU5zaEDsAIqHFJ6FAe1ZdGlR2aWqRPjap3CtWHnlpgApH6mBYA5MaHDmo7pinObQgdgBFQ45LQoTyqL40qOzS1SJ8aVe8Uqg89tcAEInVtAUBufOigtmOa4tyG0AEYATUuCR3Ko/rSqLJDU4v0qVH1TqH60FMLTCBS1xYA5IbQoUxxbkPoAIyAGpeEDuVRfWlU2aF9+73/z+SpeqdQfeipBSYQqWsLAHJD6FCmOLchdABGQI1LQofyqL40quzQ1CJ9alS9U6g+9NQCE4jUtQUAuSF0KFOc2xA6ACOgxiWhQ3lUXxpVdmhqkT41qt4pVB96aoEJROraAoDcEDqUKc5tCB2AEVDjktChPKovjSo7NLVInxpV7xSqDz21wAQidW0BQG4IHcoU5zajCB3Un+EApkJd85Eal4QO5VF9aVTZoalF+tSoeqdQfeipBSYQqWsLAHJD6FCmOLfhTgdgBNS4JHQoj+pLo8oOTS3Sp0bVO4XqQ08tMIFIXVsAkBtChzLFuQ2hAzACalwSOpRH9aVRZYemFulTo+qdQvWhpxaYQKSuLQDIDaFDmeLchtABGAE1LgkdyqP60qiy6c6ri8ur6upqYT5z22bz1fOXF+dun93UIn1qVL1TqD701AITiNS1BQC5IXQoU5zbEDoAI6DG5XChQz+LVOym+tKosulm1azpw/OL6vJqXs2Wz8/X/n9ZXZwvyyVQi/SpUfVOofrQUwtMIFLXFgDkhtChTHFuQ+gAjIAal8OFDv0sUrGb6kujyu7H9aEFSPPZatv5xWWnIEkt0qdG1TuF6kNPLTCBSF1bAJAbQocyxbkNoQMwAmpcDhc6eMdbpGI31ZdGld2L68ON/gv9u4tapE+NqncK1YeeWmACkbq2ACA3hA5linMbQgdgBNS4zCJ0OOIiFbupvjSqbBfWd/XHYraFRoQOG1S9U6g+9NQCE4jUtQUAuSF0KFOc2xA6ACOgxuWQoUMfi1TspvrSqLJS/XGY5vs4mo/CONZny4/FEDrspuqdQvWhpxaYQKSuLQDIDaFDmeLchtABGAE1Lk8SOpxwkYrdVF8aVXZfs/nyy0FD/230r3Pnzp0NZz/1+clT9VbtE6k+9NQCE4jUtQUAuSF0KFOc25wudKgXJ2HRUj+3WNC0TWYBDBg6JDjWIrV0qp0i1ZdGlU02m7mfy+4LQDe+JJS/XhGpeqdQfeipBSYQqWsLAHJD6FCmOLc5Qeiw/PN68/nNF87V/CS2+4QWKIkal4OFDj0tUrGb6kujyiZbu5ul/U+grj2fQC3Sp0bVO4XqQ08tMIFIXVsAkBtChzLFuc0JP15hixAXOthE9/KiOl8+Xv22tNkOYEWNy8FCh54WqdhN9aVRZYemFulTo+qdQvWhpxaYAACMkQ8d1HZMU5zbDBc61HdA+Dsd/DYAnhqXg4UOGIzqS6PKDk0t0qdG1TuF6kNPvXkDADBGhA5linObAUOHa+43pvxWFGinxiWhQ3lUXxpVdmhqkT41qt4pVB966s0bAIAxInQoU5zbHDd0WLvtOt65wMcrgH2pcUnoUB7Vl0aVHZpapE+NqncK1YeeevMGAGCMCB3KFOc2g93p0OXP66lvegemQl3zkRqXhA7lUX1pVNmhqUX61Kh6p1B96Kk3bwAAxojQoUxxbjPcxyssZAh3OvBnMwFNjUtCh/KovjSq7NDUIn1qVL1TqD701Js3AABjROhQpji3GfQ7Hexuh+ab7tvucgBA6IAF1ZdGlR2aWqRPjap3CtWHnnrzBgBgjAgdyhTnNicMHQDsS41LQofyqL40quzQ1CJ9alS9U6g+9NSbNwAAY0ToUKY4tyF0AEZAjUtCh/KovjSq7NDUIn1qVL1TqD701Js3AABjROhQpji3IXQARkCNS0KH8qi+NKrs0NQifWpUvVOoPvTUmzcAAGNE6FCmOLchdABGQI1LQofyqL40quzQ1CJ9alS9U6g+9J566ikAACbBhw5qO6Ypzm0IHYARUOOS0KE8qi+NKjs0tUifGlXvFKoPPfXmDQDAGBE6lCnObQgdgBFQ45LQoTyqL40qOzS1SJ8aVe8Uqg899eYNAMAYETqUKc5tCB2AEVDjcmqhw5vmf1YMVf8Uqi+NKjs0tUifGlXvFKoPPfXmDQDAGBE6lCnObQgdgBFQ45LQYbxU/VOovjSq7NDUIn1qVL1TqD701Js3CnPvUXV1dVV7/sFtXQYARoDQoUxxbkPoAIyAGpdTCx3Uom6qVP1TqL40quzQVL2nRtU7hepDT715oyT3qkdXj6p7q/8/Xz24HcsAwDgQOpQpzm0IHYARUOOS0GG8VP1TqL40quzQVL2nRtU7hepDT715oyB2l8Oje6vHtx88z90OAEaL0KFMcW5D6ACMgBqXhA7jpeqfQvWlUWVP6ezsbMNbPvxrk6fqrdonUn3oqTdvlGMjZAghBACMCaFDmeLchtABGAE1LsccOqjFmlrUTZWqv2qnSPWlUWWHpsKWqVH1TqH60FNv3igHoQOAKSF0KFOc2xA6ACOgxuWYQwdFLeqmStU/hepLo8oOTdV7alS9U6g+9NSbN8pB6ABgSggdyhTnNqMIHdRvBYGpUNd8pMYlocN4qfqnUH1pVNmhqXpPjap3CtWHnnrzRkESv9NBXVsAkBsfOqjtmKY4t+FOB2AE1LgkdBgvVf8Uqi+NKjs0Ve+pUfVOofrQi4tLFOb2g+r5hL9eoa4tAMgNoUOZ4tyG0AEYATUuCR3GS9U/hepLo8oOTdV7alS9U6g+9OLiEgWyux2urmqP7ont19S1BQC5IXQoU5zbEDoAI6DGJaHDeKn6p1B9aVTZoal6T42qdwrVh55aYAKRurYAIDeEDmWKcxtCB2AE1LgkdBgvVf8Uqi+NKjs0Ve+pUfVOofrQUwtMIFLXFgDkhtChTHFuQ+gAjIAal4QO46Xqn0L1pVFlh6bqPTWq3ilUH3pqgQlE6toCgNwQOpQpzm0IHYARUOOS0GG8VP1TqL40quzQVL2nRtU7hepDTy0wgUhdWwCQG0KHMsW5DaEDMAJqXBI6jJeqfwrVl0aVHZqq99SoeqdQfeipBSYQqWsLAHJD6FCmOLchdABGQI1LQofxUvVPofrSqLJDU/WeGlXvFKoPPbXABCJ1bQFAbggdyhTnNicJHWbzxZ99MpcX5xvbzy8uq6vLi+o8PA9gQY1LQofxUvVPofrSqLJDU/WeGlXvFKoPPbXABCJ1bQFAbggdyhTnNv2HDucX1cWseTyr5leX1cW5214/d0XoAGyhxiWhw3ip+qdQfWlU2aGpek+NqncK1YeeWmACkbq2ACA3hA5linObE3+84ry6uFwPHewuh/nFRXVJ6AC0UuOS0GG8VP1TqL40qmw6+7l8czfafBUSL9zcqRYD4+1UvadG1TuF6kNPLTCB6OzsDACy50MHtR3TFOc2Jw4d7K6GeTVrHp9fVJfz2eJfQgeglRqXw4UOLFIPpeqfQvWlUWXTzapZ04f2s9j9jLa+VB+JS6HqPTWq3ilUH3pqgQlE6toCgNz40EFtxzTFuc1JQ4f1Cay764HQAdhKjcvhQgcWqYdS9U+h+tKosvvxwfD1/w/4uazqPTWq3ilUH3pqgQlE6toCgNwQOpQpzm2OGzrUC5Dmt5zujoblb0b9YsQ+VrF6TOgAbKXG5XChg8cidR+q/ilUXxpVdi+zeXVld5+t/j9ffOeO6di3qt5To+qdQvWhpxaYQKSuLQDIDaFDmeLc5gR3Omx+j8NiodKEE07LpPbOnTvAZMXrXVHjMovQgUXqXlT9U6i+NKpsF/VfELI+a/rSWH+6j8h0vYtF1XtqVL1TqD701AITiNS1BQC5IXQoU5zb9B86+EVJG+50ALZS43LI0IFF6mFU/VOovjSqrNR6N9qS78P4szvlZ7mj6j01qt4pVB96aoEJROraAoDcEDqUKc5teg8dVosTZ2MhQugAbKXG5UlCBxapvVD1T6H60qiy+7KwqP5y0A79qe7gOfupz0+eqrdqn0j1oacWmECkri0AyA2hQ5ni3OakXyQJYD9qXJ4kdEjAIrU7VX/VTpHqS6PKJpvNXJhkH31r7lbx/198L0/8SyXbqLBlalS9U6g+9NQCE4jUtQUAuSF0KFOc2xA6ACOgxuVgoQOL1IOp+qdQfWlU2WRrd7OEPvPbOty1YlS9p0bVO4XqQ08tMIFIXVsAkBtChzLFuQ2hAzACalwOFjqwSD2Yqn8K1ZdGlR2aqvfUqHqnUH3oqQUmEKlrCwByQ+hQpji3IXQARkCNy8FCh56oRd1UqfqnUH1pVNmhqXpPjap3CtWHnlpgApG6tgAgN4QOZYpzG0IHYATUuCR0GC9V/xSqL40qOzRV76lR9U6h+tBTC0wgUtcWAOSG0KFMcW5D6ACMgBqXhA7jpeqfQvWlUWWHpuo9NareKVQfemqBCURnZ2cAkD0fOqjtmKY4tyF0AEZAjUtCh/FS9U+h+tKoskNT9Z4aVe8Uqg89tcAEInVtAUBufOigtmOa4tyG0AEYATUuCR3GS9U/hepLo8oOTdV7alS9U6g+9NQCE4jUtQUAuSF0KFOc2xA6ACOgxiWhw3ip+qdQfWlU2aGpek+NqncK1YeeWmACkbq2ACA3hA5linMbQgdgBNS4JHQYL1X/FKovjSo7NFXvqVH1TqH60FMLTCBS1xYA5IbQoUxxbjPa0GH2Zz+CI1JtjHyocUnoMF6q/ilUXxpVdmiq3lOj6p1C9aGnFphApK4tAMgNoUOZ4tyG0AE11cbIhxqXhA7jpeqfQvWlUWWHpuo9NareKVQfemqBCUTq2gKA3BA6lCnObUYbOtz+Fz+II1JtjHyocUnoMF6q/ilUXxpVdmiq3lOj6p1C9aGnFphApK4tAMgNoUOZ4txmFKGD+tufauGM/ak2xmmoaz5S45LQYbxU/VOovjSq7NBUvadG1TuF6kNPLTCBSF1bAJAbQocyxbkNdzqgptoY+VDjktBhvFT9U6i+NKrs0FS9p0bVO4XqQ08tMIFIXVsAkBtChzLFuQ2hA2qqjZEPNS4JHcZL1T+F6kujyg5N1XtqVL1TqD701AITiNS1BQC5IXQoU5zbEDqgptoY+VDjktBhvFT9U6i+NKrs0FS9p0bVO4XqQ08tMIFIfVwPAHLjQwe1HdMU5zaEDqipNkY+1LgkdBgvVf8Uqi+NKjs0Ve+pUfVOofrQUwtMIFLXFgDkxocOajumKc5tCB1QU22MfKhxSegwXqr+KVRfGlV2aKreU6PqnUL1oacWmECkri0AyA2hQ5ni3IbQATXVxsiHGpeEDuOl6p9C9aVRZU9J3Vb3lg//2uSpeqv2iVQfemqBCUTq2gKA3BA6lCnObQgdUFNtjHyocTnm0EEt1tSibqpU/VU7RaovjSo7NBW2TI2qdwrVh55aYAKRurYAIDeEDmWKcxtCB9RUG8/+7EdwRKqNU6lxOebQQVGLuqlS9U+h+tKoskNT9Z4aVe8Uqg89tcAEInVtAUBuCB3KFOc2JwgdzquLy6vq6mphPnPbZvPV85cX526f3dTCGftTbawWztifauNUalwSOoyXqn8K1ZdGlR2aqvfUqHqnUH3oqQUmJuzeo+t50KPqnnvu3qObedPzD26vl19S1xYA5IbQoUxxbnOC0GFWzZqg4fyiuryaV7Pl8/O1/19WF+fLcgnUwhn7o437p9o4lRqXhA7jpeqfQvWlUWWHpuo9NareKVQfemqBiSm6XT14/qq6evSoeuRDh9sPqgf3mjL3rrc9Xz243Ty+oa4tAMgNoUOZ4tzmxB+vcEGD3eUwn622nV9cdrrbQS3qsD/auH+qjVOpcUnoMF6q/ilUXxpVdmiq3lOj6p1C9aEXF5eYOgsW1u90uGHBBKEDgPEidChTnNucNnRwQcNGyBBCiF3Uog77o437p9o4lRqXhA7jpeqfQvWlUWWHpuo9NareKVQfenFxianbFjq0b1PXFgDkhtChTHFuc5LQwQKG+rOJ2+5sIHQYFG3cP9XGqdS4JHQYL1X/FKovjSo7NFXvqVH1TqH60IuLS0xde7Bg3+3AdzoAGDNChzLFuc1xQ4f6OxuaLz9qvq/Bqb84cvHdDYQOeaGN+6faOJUal4QO46Xqn0L1pVFlh6bqPTWq3ilUH3pqgYmRu/2gen41P4oBgwodFt/30BY4GHVtAUBuCB3KFOc2J/5Ohyeq2Xz5FyxCyLDtOx3u3LmzQS3qsD/auH+qjY265iM1LgkdxkvVP4XqS6PKDk3Ve2pUvVOoPvTUAhNTFkOH9u9x8NT7CQDkxocOajumKc5t+g8dZjN3x4P7KxUbf8mCv14xJNq4f6qNU6lxSegwXqr+KVRfGlV2aKreU6PqnUL1oacWmJiyEDrYn9B8dC+U2aSuLQDIjQ8d1HZMU5zb9B86rH3kYnmXQ7Ot/riFeD6BWtRhf7Rx/1Qbp1LjktBhvFT9U6i+NKrs0FS9p0bVO4XqQ08tMDFl66HD7QfPr+ZGDfUxC3VtAUBuCB3KFOc2J/94xbGoRR32Rxv3T7VxKjUuCR3GS9U/hepLo8oOTdV7alS9U6g+9OLiElDUtQUAuSF0KFOc2xA6oEYb90+1cSo1LgkdxkvVP4XqS6PKDk3Ve2pUvVOoPvTUAhOI1LUFALkhdChTnNsQOqBGG/dPtXEqNS4JHcZL1T+F6kujyu6j/vPGlxfV+fKxffFvc3t32xf9tlH1nhpV7xSqDz21wAQidW0BQG4IHcoU5zaEDqjRxv1TbZxKjcscQgcWqftR9U+h+tKost3ZF/pe913Tn+cX1cXqu3a6f9mvqvfUqHqnUH3oqQUmEKlrCwByQ+hQpji3IXRAjTbun2rjVGpcDh86sEjdl6p/CtWXRpXtygKk+cVFdelCpBvn1cUl/RmpeqdQfeipBSYQqWsLAHJD6FCmOLchdECNNu6fauNUalwOHTqwSN2fqn8K1ZdGle3E/srQfLb4V/anhUjNnzhOo+o9NareKVQfemqBCUTq2gKA3BA6lCnObQgdUKON+6faOJUal4OGDixSD6Lqn0L1pVFl07mAqKU/7WMzfFxmk6p3CtWHnlpgApG6tgAgN4QOZYpzG0IH1Gjj/qk2TqXG5XChA4vUQ6n6p1B9aVRZyfpr+Z0bV8tQyO5YWfXVRn9aX3fvS6PqPTWq3ilUH3pqgQlE6toCgNwQOpQpzm0IHVCjjfun2jiVGpcnCR1YpPZC1T+F6kujyqZZfi9HVPdp+kdk7ty5s+Hspz4/eareqn0i1YeeWmAC0dnZGQBkz4cOajumKc5tCB1Qo437p9o4lRqXJwkdNrBIPQZVf9VOkepLo8ruxYdIs3l1ZR+hiWUSqbBlalS9U6g+9NQCE4jUtQUAufGhg9qOaYpzG0IH1Gjj/qk2TqXG5TChQ8AidS+q/ilUXxpVdi+uP+s/hxrCpS53sKh6T42qdwrVh55aYAKRurYAIDeEDmWKcxtCB9Ro4/6pNk6lxmVuoQOL1HSq/ilUXxpVdmiq3lOj6p1C9aGnFphApK4tAMgNoUOZ4tyG0AE12rh/qo1TqXGZRehwRGpRN1Wq/ilUXxpVdmiq3lOj6p1C9aGnFphApK4tAMgNoUOZ4txmFKGD+nIKtajD/mjj/qk2Nuqaj9S4JHQYL1X/FKovjSo7NFXvqVH1TqH60FMLTCBS1xYA5IbQoUxxbsOdDqjRxv1TbZxKjUtCh/FS9U+h+tKoskNT9Z4aVe8Uqg89tcAEInVtAUBuCB3KFOc2hA6o0cb9U22cSo1LQofxUvVPofrSqLJDU/WeGlXvFKoPPbXABCJ1bQFAbggdyhTnNoQOqNHG/VNtnEqNS0KH8VL1T6H60qiyQ1P1nhpV7xSqDz21wAQidW0BQG4IHcoU5zaEDqjRxv1TbZxKjUtCh/FS9U+h+tKoskNT9Z4aVe8Uqg89tcAEInVtAUBuCB3KFOc2hA6o0cb9U22cSo1LQofxUvVPofrSqLJDU/WeGlXvFKoPPbXABCJ1bQFAbggdyhTnNoQOqNHG/VNtnEqNS0KH8VL1T6H60qiyQ1P1nhpV7xSqDz21wAQidW0BQG4IHcoU5zaEDqjRxv1TbZxKjUtCh/FS9U+h+tKoskNT9Z4aVe8Uqg89tcAEIvUnmAEgNz50UNsxTXFuQ+iAGm3cP9XGqdS4JHQYL1X/FKovjSo7NFXvqVH1TqH60FMLTCBS1xYA5MaHDmo7pinObQgdUKON+6faOJUal4QO46Xqn0L1pVFlh6bqPTWq3ilUH3pqgQlE6toCgNwQOpQpzm1OEDqcVxeXV9XV1cJ8tr59Nm+2XVYX5+vbtlGLOuyPNu6fauNUalwSOoyXqn8K1ZdGlR2aqvfUqHqnUH3oqQUmEKlrCwByQ+hQpji3OUHoMKtmTdBwflFdXs2r2XKbBQ6XF+eubDq1qMP+aOP+qTZOpcYlocN4qfqnUH1pVNmhqXpPjap3CtWHnlpgApG6tgAgN4QOZYpzmxN/vGJWzVehw/X/Ly+q840yadSiDvujjfun2jiVGpeEDuOl6p9C9aVRZYem6j01qt4pVB96aoEJROraAoDcEDqUKc5tThs6zObV1Xzm/j+v5suPXVx1DCDUog77o437p9o4lRqXhA7jpeqfQvWlUWWHpuo9NareKVQfemqBCUTq2gKA3BA6lCnObU4SOpxfXC6ChSZwMBY6uO9x6PpRC7Wow/5o4/6pNk6lxiWhw3ip+qdQfWlU2aGpek+NqncK1YeeWmACkbq2ACA3hA5linOb44YO9Xc2NF8MefPdDSs+aPB3PTTb/OMd1KIO+6ON+6faOJUal4QO46Xqn0L1pVFlT0n9fea3fPjXJk/VW7VPpPrQUwtMIFLXFgDkhtChTHFuc+LvdFjc0VD/BYsOocOdO3c2qEUd9kcb90+1sVHXfKTG5ZhDB7VYU4u6qVL1V+0Uqb40quzQVNgyNareKVQfemqBCUTq2gKA3BA6lCnObfoPHWYzd8eDfZFk85EK///Fn9WMf05zG7Wow/5o4/6pNk6lxuWYQwdFLeqmStU/hepLo8oOTdV7alS9U6g+9NQCE4jUtQUAuSF0KFOc2/QfOqx95CIEC35bh49WGLWow/5o4/6pNk6lxiWhw3ip+qdQfWlU2aGpek+NqncK1YeeWmACkbpjCgBy40MHtR3TFOc2J/94xbGoRR32Rxv3T7VxKjUuCR3GS9U/hepLo8oOTdV7alS9U6g+9NQCE4jUtQUAufGhg9qOaYpzG0IH1Gjj/qk2TqXGJaHDeKn6p1B9aVTZoal6T42qdwrVh55aYAKRurYAIDeEDmWKcxtCB9Ro4/6pNk6lxiWhw3ip+qdQfWlU2aGpek+NqncK1YeeWmACkbq2ACA3hA5linMbQgfUaOP+qTZOpcYlocN4qfqnUH1pVNmhqXpPjap3CtWHnlpgApG6tgAgN4QOZYpzG0IH1Gjj/qk2TqXGJaHDeKn6p1B9aVTZoal6T42qdwrVh55aYAKRurYAIDeEDmWKcxtCB9Ro4/6pNk6lxiWhw3ip+qdQfWlU2aGpek+NqncK1YeeWmBimu49uvnrXs8/uL2x/faD56ur5x9Ut8PzRl1bAJAbQocyxbkNoQNqtHH/VBunUuOS0GG8VP1TqL40quzQVL2nRtU7hepDLy4uMVG3H1QP7jWP71WPrp6vHtx22+vnrggdAIwaoUOZ4tyG0AE12rh/qo1TqXFJ6DBeqv4pVF8aVXZoqt5To+qdQvWhFxeXKMHt6sHz66GD3eXw6MGD6nlCBwAjRuhQpji3IXRAjTbun2rjVGpcEjqMl6p/CtWXRpUdmqr31Kh6p1B96MXFJUpgdzU8qu41j28/qJ5/dG/xL6EDgBEjdChTnNsQOqBGG/dPtXEqNS4JHcZL1T+F6kujyg5N1XtqVL1TqD704uIS02ff7XDznQ7urgdCBwAjR+hQpji3IXRAjTbun2rjVGpcEjqMl6p/CtWXRpXdx/nFZXV1eVGdN8/N5qsvubu8ON8ov42q99SoeqdQfejFxSUmwMKD5Vi68nc01AHD+pdI2scqVo8JHQCMHKFDmeLchtABNdq4f6qNU6lxmUPowCJ1P6r+KVRfGlW2u1k1t75b9ac9vqwuzuP/06h6T42qdwrVh15cXGKqNr/HYfXlkZEIHu7cuQMA2fOhg9qOaYpzm1GEDmdnZxvUog77o437p9rYqGs+UuNy+NCBReq+VP1TqL40qmxXFiDNLy6qy6Y/z93/r83mV9V8tr7PNqreU6PqnUL1oecXlpiwe4+qK/veBrWtwZ0OAEbOhw5qO6Ypzm240wE12rh/qo1TqXE5dOjAInV/qv4pVF8aVbYT67v5LPTheXVx6UOkeTWL+22h6j01qt4pVB96cXGJabKPUcQ7GvzHLGqEDgBGjtChTHFuQ+iAGm3cP9XGqdS4HDR0YJF6EFX/FKovjSqbzvVbCI7qx8vFUJcAyah6T42qdwrVh15cXAKKurYAIDeEDmWKcxtCB9Ro4/6pNk6lxuVwoQOL1EOp+qdQfWlUWcn1z9UyFLI7Vlbfv+H7M/Qtd65sUvVOofrQUwtMIFLXFgDkZqqhw//1Td80OHVeuYhzG0IH1Gjj/qk2TqXG5UlCBxapvVD1T6H60qiyaZbfyxFd9+PM97OxLwm1u1vW9l9QXyB09lOfnzxVb9U+kepDTy0wgUhdWwCQmymHDur5UyF0OBG1qMP+aOP+qTZOpcblSUKHDSxSj0HVX7VTpPrSqLJ78cGR9V8Ikbr8RRIVtkyNqncK1YeeWmACkbq2ACA3hA79IHQ4EbWow/5o4/6pNk6lxuUwoUPAInUvqv4pVF8aVXYv4W6V+k+iNsFSS4DURtV7alS9U6g+9NQCE4jUtQUAuSF06Aehw4moRR32Rxv3T7VxKjUuswsdrrFITaPqn0L1pVFlh6bqPTWq3ilUH3pqgQlE6toCgNwQOvTDXv9Q6rjHEuc2hA6o0cb9U22cSo3LLEKHI1KLuqlS9U+h+tKoskNT9Z4aVe8Uqg89tcAEInVtAUBuCB3yROiQSC3qsD/auH+qjVOpcUnoMF6q/ilUXxpVdmiq3lOj6p1C9aGnFphApK4tAMgNoUOeJh061Ldeh898N7did/nst1GLOuyPNu6fauNUalwSOoyXqn8K1ZdGlR2aqvfUqHqnUH3oqQUmEJ2dnQHAYGzRmsKHDnGbOu5YcP7bxbnNCUOH5bfeN6HD+UV1sfpzerZt+Xf/1/ZppxZ12B9t3D/VxqnUuCR0GC9V/xSqL40qOzRV76lR9U6h+tBTC0wgUtfWEPwCYl/quAD6pcZiV+q4kQ8d/POp+/cl1mUf6rhj0ff5x7nNyUIHu8thfrH+pXM3zquLS0KHIdHG/VNtnEqNS0KH8VL1T6H60qiyQ1P1nhpV7xSqDz21wAQidW0N4dCJ69gn7sBYnWrs5Rw6qOdL0Xf949zmNKGDfcO9fZN9+Kb7G3anw7yabTzfTi3qsD/auH+qjVOpcUnoMF6q/ilUXxpVdmiq3lOj6p1C9aGnFphApK6tIRw6cS194g8M5VRjj9AhT33XP85tThA6uLsYWkKHrn/P36hFHfZHG/dPtXEqNS4JHcZL1T+F6kujyg5N1XtqVL1TqD701AITiNS1NYRDJ66lT/yBoZxq7BE65Knv+se5zXFDBwsVmr/Rv7xzwT5WsQoUNkIHCyS6Bw5GLeqwP9q4f6qNU6lxSegwXqr+KVRfGlV2aKreU6PqnUL1oacWmNJHv1R97WtfW/pS9dH6+Y9WX/ral6vH7wllj+ijX2pec92XH79Hlkc/1LU1hEMnrqVP/IGhnGrsbQsdDuWP19Wh+49d3/WPc5ue73RYfnlkVAcP6d/jcOfOnQ1qUYf90cb9U21s1DUfqXFJ6DBeqv4pVF8aVXZoqt5To+qdQvWhpxaYG97zuPryKmhYPH78Ufv/sUKHlOP0H3Cgnbq2hnCMif+h1HGBqVNjoSt13GNrCx0Odej5n6r+ueq7/nFuc7Ivkqz5Ox1m8+rKvuchlkmkFnXYH23cP9XGqdS4JHQYL1X/FKovjSo7NFXvqVH1TqH60FMLzA12l8OXH1fv2dhG6FAKdW3to1l8HEId91SGfn1gKGO59gkd8mT1P5Q6biPObQYLHexjF/EOiC4fs1CLOuyPNu6fauNUalwSOoyXqn8K1ZdGlR2aqvfUqHqnUH3oqQXmJlvwq480LIOAj9qdEOJjD/UdEjcfifhSfXfEzX5f+tKXV9tWvvTRm/3XhNBh7djrH/dYHNee2zw/O4f3PL55XT6mkUZdW/vYNXHMXZwE70MdF8jdWK5dQodp2tV+cW5z2tDhiNSiDvujjfun2jiVGpeEDuOl6p9C9aVRZYem6j01qt4pVB96aoGpvad6/OWbhfviOVvUXz/X3AVRf++DDwBc2TokaEKDxbabBf8yHEi+0yGUv37dxbHUceP5ue1r54tt1LW1j9In3iw8MFZjuXYJHabJ2m+bOLchdECNNu6fauNUalwSOoyXqn8K1ZdGlR2aqvfUqHqnUH3oqQXmVss7DBZhQgwL3OO63PqC3r4Ucud+rvy6eOxFALJS3yGx67j7vC6Murb2YZND9XwpqL9eMHShjov+jaXt+wwdDqWOi+OIcxtCB9Ro4/6pNk6lxiWhw3ip+qdQfWlU2aGpek+NqncK1YeeWmDuUn88Ydciv/fQQd2hsOu4+7wujJpA70tdp6Wg/ofVf8zt11z/h1LHPoUhX7uLvkIH5C3ObQgdUKON+6faOJUal4QO46Xqn0L1pVFlh6bqPTWq3ilUH3pqgbnho4/dwnzxMYubjzO0LeLt//HjFf6jF10X/5vHvvkYhSqzz2O0OTs7wxHEBeQ+1HHH4tDzH3P9j3HuQ9Z/LG3vQwe1HdMU5zaEDqjRxv1TbZxKjUtCh/FS9U+h+tKoskNT9Z4aVe8Uqg89tcDctFjkr3+UoXl+yyJ+7WMQ2xf7dhfE+rGjbcdu9ttxPjsfo426tnB6tvBTz4/Foedv+4+ZqlMX6phdqGOmOnT/U/Ghg9qOaYpzG0IH1Gjj/qk2TqXGJaHDeKn6p1B9aVTZoal6T42qdwrVh55aYAKRurZwemNZ+LUZ+/mPGaEDpizObQgdUKON+6faOJUal2MOHdRtWG/58K8VQ9VftVOk+tKosqek6qPqPTWq3qp9ItWHnlpgApG6tnB6Qy/87PUPpY6L/qm+6EodNzeEDmWKcxtCB9Ro4/6pNk6lxuWYQwdF/SZ5qlT9U6i+NKrs0FS9p0bVO4XqQ08tMIFIXVs4vaEXfmNZeKJchA5linMbQgfUaOP+qTZOpcYlocN4qfqnUH1pVNmhqXpPjap3CtWHnlpgApG6tnB6hy76m99YH0IdF8gFoUOZ4tyG0AE12rh/qo1TqXFJ6DBeqv4pVF8aVXZoqt5To+qdQvWhpxaYQKSuLZzeoYt+QgNMHaFDmeLchtABNdq4f6qNU6lxSegwXqr+KVRfGlV2aKreU6PqnUL1oacWmECkri2cHqEDsB2hQ5ni3IbQATXauH+qjVOpcUnoMF6q/ilUXxpVdmiq3lOj6p1C9aGnFphApK4tnB6hA7AdoUOZ4txmFKGD+oZwtajD/mjj/qk2Nuqaj9S4JHQYL1X/FKovjSo7NFXvqVH1TqH60FMLTCBS1xZOz0KDQ6njAlNB6FCmOLfhTgfUaOP+qTZOpcYlocN4qfqnUH1pVNmhqXpPjap3CtWHnlpgApG6tgAgN4QOZYpzG0IH1Gjj/qk2TqXGJaHDeKn6p1B9aVTZoal6T42qdwrVh55aYAKRunMOAHLjQwe1HdMU5zaEDqjRxv1TbZxKjUtCh/FS9U+h+tKoskNT9Z4aVe8Uqg89tcAEInVtAUBufOigtmOa4tyG0AE12rh/qo1TqXFJ6DBeqv4pVF8aVXZoqt5To+qdQvWhpxaYQKSuLQDIDaFDmeLchtABNdq4f6qNU6lxSegwXqr+KVRfGlV2aKreU6PqnUL1oacWmECkri0AyA2hQ5ni3IbQATXauH+qjVOpcUnoMF6q/ilUXxpVdmiq3lOj6p1C9aGnFphApK4tAMgNoUOZ4tyG0AE12rh/qo1TqXFJ6DBeqv4pVF8aVXZoqt5To+qdQvWhpxaYQKSuLQDIDaFDmeLchtABNdq4f6qNU6lxOWTocH5xWV1dXS3Nq5nafnlRnYfnt1GLuqlS9U+h+tKosl3Qn/tR9U6h+tBTC0xM0e3qwfPNuLuqHt1b337vUbPt+erB7fVtRl1bAJAbQocyxbkNoQNqtHH/VBunUuNyyNBhNr+q5jO97YknZtXcJsosUlup+qdQfWlU2S7oz/2oeqdQfejFxSWm6l51rwkabj+onr96VN1bbrPA4fkHt13ZTeraAoDcEDqUKc5tTho6bPy2bDZfJfyXF+cb5bdRizrsjzbun2rjVGpcDhs6XFYX53qbjfP5xUV1ySK1lap/CtWXRpXtgv7cj6p3CtWHnlpgYuruVY9WocP1/59/UN3eKLNOXVsAkBtChzLFuc0JQ4f42zJ73Ex0/f/TqEUd9kcb90+1cSo1LocLHc6ri8tFWLgRGJ5fL07ns8W/LFJbqfqnUH1pVNl09Oe+VL1TqD701AITE3fvUXX16J77/6Pq0XJMXrUEEOraAoDcEDqUKc5tThY6bPy2LExit9/eu0kt6rA/2rh/qo1TqXE5XOjg+cDQFq/L/7NI3UrVP4XqS6PK7of+7ELVO4XqQy8uLjFdtx88vwgWmsDBWOjgvseh7aMW6toCgNwQOpQpzm1OEzrI35a5CW090d388rJt1KIO+6ON+6faOJUalycJHWzMNr9taxmjFhjab8ctWFz9lpxF6laq/ilUXxpVVqI/j0rVO4XqQy8uLjEB9Xc2NGPv5rsbVnzQ4O96aLb5x0vq2gKA3BA6lCnObU4QOmz5bZmbAHe5y8GoRR32Rxv3T7VxKjUuTxI6JFjcpWTBYTOhdloWqnfu3Nlw9lOfL4aqf2wjRfWlUWX3RX+mU/WObaOoPvTi4hJlsDsa6r9gkRg6qOsPAHLjQwe1HdMU5zbHDR3Eb9Faf1sWAgg+XjEs2rh/qo1TqXGZRehQj/nmjqXwfMsCtY36TfJUqfqnUH1pVNm90J+dqHqnUH3oxcUlJurePXfHg32RZPORCv//xZ/VjH9O06hrCwBy40MHtR3TFOc2Pd/p0P7bspkPI4z9JQv7CMba/gsqPVGLOuyPNu6famOjrvlIjcvhQof1cS3DQhapW6n6p1B9aVTZdPTnvlS9U6g+9OLiEhO19pGLECz4beIuB6OuLQDIDaFDmeLc5mRfJFnzE1cLGdwktvkc8cY+LdSiDvujjfun2jiVGpfDhQ79UIu6qVL1T6H60qiyQ1P1nhpV7xSqDz21wAQidW0BQG4IHcoU5zbDhQ7X7KMXTcLfdpdDG7Wow/5o4/6pNk6lxiWhw3ip+qdQfWlU2aGpek+NqncK1YeeWmACkbq2ACA3hA5linOb04YOR6QWddgfbdw/1cap1LgkdBgvVf8Uqi+NKjs0Ve+pUfVOofrQUwtMIFLXFgDkhtChTHFuQ+iAGm3cP9XGqdS4JHQYL1X/FKovjSo7NFXvqVH1TqH60FMLTCBS1xYA5IbQoUxxbkPogBpt3D/VxqnUuCR0GC9V/xSqL40qOzRV76lR9U6h+tBTC0wgUtcWAOSG0KFMcW5D6IAabdw/1cap1LgkdBgvVf8Uqi+NKjs0Ve+pUfVOofrQUwtMIFLXFgDkhtChTHFuQ+iAGm3cP9XGqdS4JHQYL1X/FKovjSo7NFXvqVH1TqH60FMLTCBS1xYA5IbQoUxxbkPogBpt3D/VxqnUuCR0GC9V/xSqL40qOzRV76lR9U6h+tBTC0wgUtcWAOSG0KFMcW5D6IAabdw/1cap1LgkdBgvVf8Uqi+NKjs0Ve+pUfVOofrQUwtMIDo7OwOA7PnQQW3HNMW5DaEDarRx/1Qbp1LjktBhvFT9U6i+NKrs0FS9p0bVO4XqQ08tMIFIXVsAkBsfOqjtmKY4tyF0QI027p9q41RqXBI6jJeqfwrVl0aVHZqq99SoeqdQfeipBSYQqWsLAHJD6FCmOLchdECNNu6fauNUalwSOoyXqn8K1ZdGlR2aqvfUqHqnUH3oqQUmEKlrCwByQ+hQpji3IXRAjTbun2rjVGpcEjqMl6p/CtWXRpUdmqr31Kh6p1B96KkFJhCpawsAckPoUKY4tyF0QI027p9q41RqXBI6jJeqfwrVl0aVHZqq99SoeqdQfeipBSYQqWsLAHJD6FCmOLchdECNNu6fauNUalwSOoyXqn8K1ZdGlR2aqvfUqHqnUH3oqQUmEKlrCwByQ+hQpji3GUXooP4Mh1rUYX+0cf9UGxt1zUdqXBI6jJeqfwrVl0aVHZqq99SoeqdQfeipBSYQqWsLAHJD6FCmOLfhTgfUaOP+qTZOpcYlocN4qfqnUH1pVNmhqXpPjap3CtWHnlpgApG6tgAgN4QOZYpzG0IH1Gjj/qk2TqXG5ZhDB3XHx1s+/GvFUPVX7RSpvjSq7Cmp+qh6T42qt2qfSPWhpxaYQKSuLQDIDaFDmeLchtABNdq4f6qNU6lxOebQQVG/SZ4qVf8Uqi+NKjs0Ve+pUfVOofrQUwtMIFLXFgDkhtChTHFuQ+iAGm3cP9XGqdS4JHQYL1X/FKovjSo7NFXvqVH1TqH60FMLTCBS1xYA5IbQoUxxbkPogBpt3D/VxqnUuCR0GC9V/xSqL40qOzRV76lR9U6h+tBTC0wgUh/vAYDc+NBBbcc0xbkNoQNqtHH/VBunUuOS0GG8VP1TqL40quzQVL2nRtU7hepDTy0wgUhdWwCQGx86qO2Ypji3IXRAjTbun2rjVGpcEjqMl6p/CtWXRpUdmqr31Kh6p1B96KkFJhCpawsAckPoUKY4tyF0QI027p9q41RqXBI6jJeqfwrVl0aVHZqq99SoeqdQfeipBSYQqWsLAHJD6FCmOLc5SehwfnFZXV1dLc2rmdp+eVGdh+e3UYs67I827p9q41RqXBI6jJeqfwrVl0aVHZqq99SoeqdQfeipBSYQqWsLAHJD6FCmOLc5Segwm19V85ne9sQTs2puYQShw6Bo4/6pNk6lxiWhw3ip+qdQfWlU2aGpek+NqncK1YeeWmACkbq2ACA3hA5linObE4UOl9XFud5mdznMLy6qS0KHQdHG/VNtnEqNS0KH8VL1T6H60qiyQ1P1nhpV7xSqDz21wAQidW0BQG4IHcoU5zYnCB3Oq4vL5qMVV9XlxfnNtvOL6nI+W/xL6DAo2rh/qo1TqXFJ6DBeqv4pVF8aVXZoqt5To+qdQvWhpxaYQKSuLQDIDaFDmeLc5sRfJGkfpWjuerAwYvl/QofB0cb9U22cSo1LQofxUvVPofrSqLJDU/WeGlXvFKoPPbXABCJ1bQFAbggdyhTnNscNHSw82PKFkca+38HudrCPVazueiB0GBxt3D/VxqnUuCR0GC9V/xSqL40qOzRV76lR9U6h+tBTC0wgUtcWAOSG0KFMcW5z4jsdmi+VXH55ZNQSPNy5c2eDWtRhf7Rx/1Qbm3i9K2pcTi10wG6qL40qi3ypPvTUAhOI1LUFALkhdChTnNucNnSo74QQXyrJnQ6Do437p9o4lRqXhA7lUX1pVFnkS/WhpxaYQHR2dgYA2fOhg9qOaYpzmxOEDut3Ncg/nUnoMDjauH+qjVOpcUnoUB7Vl0aVRb5UH3pqgQlE6toCgNz40EFtxzTFuc3JP15xLGpRh/3Rxv1TbZxKjUtCh/KovjSqLPKl+tBTC0wgUtcWAOSG0KFMcW5D6IAabdw/1cap1LgkdCiP6kujyiJfqg89tcAEInVtAUBuCB3KFOc2hA6o0cb9U22cSo1LQofyqL40qizypfrQUwtMIFLXFgDkhtChTHFuQ+iAGm3cP9XGqdS4JHQoj+pLo8oiX6oPPbXABCJ1bQFAbggdyhTnNoQOqNHG/VNtnEqNS0KH8qi+NKos8qX60FMLTEzb7QfPV1fPP6huN8/de7T6Au7nH9zeKG/UtQUAuSF0KFOc2xA6oEYb90+1cSo1LgkdyqP60qiyyJfqQ08tMDFl96pHFjCsQgd7/Hz14Hb8/zp1bQFAbggdyhTnNoQOqNHG/VNtnEqNS0KH8qi+NKos8qX60IuLS0yb3eXw6MGD6vkmdLjt/n/t3qOr6tG99X2MurYAIDeEDmWKcxtCB9Ro4/6pNk6lxiWhQ3lUXxpVFvlSfejFxSUmzAKGR/dC0HC7evC8v9PhUXUv7ndNXVsAkBtChzLFuQ2hA2q0cf9UG6dS45LQoTyqL40qi3ypPvTi4hJT5cKFcHdD/Xj5nQ7qLgejri0AyA2hQ5ni3IbQATXauH+qjVOpcUnoUB7Vl0aVRb5UH3pqgYmRcyHC1fLOBftYxepLIn3oEAIIPl4BYMwIHcoU5zaEDqjRxv1TbZxKjUtCh/KovjSqLPKl+tCLi0tM0fLLI6PnH1T3fBhh7C9Z2Ecw1vZ/qrpz5w4AZM+HDmo7pinObQgdUKON+6faOJUal4QO5VF9aVRZ5Ev1oRcXlyiAv7vBQoZwp4P6s5nq2gKA3PjQQW3HNMW5DaEDarRx/1Qbp1LjktChPKovjSqLfKk+9OLiEgUIH6mwj16s7n4QdzkYdW0BQG4IHcoU5zajCB3Ozs42qEUd9kcb90+1sVHXfKTGJaFDeVRfGlUW+VJ96KkFJhCpawsAckPoUKY4t+FOB9Ro4/6pNk6lxuUhocPb3/52+TrIl/WZ6ktDf47Htn5sqAUmEKnrCwByQ+hQpji3IXRAjTbun2rjVGpcHhI6GPU6yJfqQ0/tg/yovovUAhOI1PUFALkhdChTnNsQOqBGG/dPtXEqNS4PDR0MvyHPX8pvxhv0Z7669KNaYAKRus4AIDeEDmWKcxtCB9Ro4/6pNk6lxuUxQgcA+VELTCBS7xUAkBtChzLFuQ2hA2q0cf9UG6dS45LQAZgmtcAEIvVeAQC5IXQoU5zbEDqgRhv3T7VxKjUuCR2AaVILTCBS7xUAkBtChzLFuQ2hA2q0cf9UG6dS45LQAZgmtcAEIvVeAQC5IXQoU5zbEDqgRhv3T7VxKjUuCR2AaVILTCA6OzsDgOz50EFtxzTFuQ2hA2q0cf9UG6dS45LQAZgmtcAEIvVeAQC58aGD2o5pinObk4UOs/lVdXVlLquL8+Xzs/nyuavq8uJ8Y59t1KIO+6ON+6faOJUal4eGDt/93d+NDlQbGlW2D+q1o9e//vXImOozRS0wgUi9VwBAbggdyhTnNicJHSxw2AwVZtX8al7NVv93YUQCtajD/mjj/qk2TqXG5SGhgy1if+5HfqT6m1/8RSSwtlILf3vuXe96V/XRj360V/Yau4KHZmH7tre9DRnqEjyoBSYQqfcKAMgNoUOZ4tzmBKHDrJpfXlTn8Xm7y2E+Wz0+v7jsdLeDWtRhf7Rx/1Qbp1Lj8tDQwRbT//3DH0YCa6u20MFCgQ9+8IO9stfYFjoQOIxDavCgFphApN4rACA3hA5linOb/kOHOlyYV/PlxyiulgHERsgQQohd1KIO+6ON+6faOJUal4QOpzOG0EEtcpEfQgcci3qvAIDcEDqUKc5tThM6uI9ONB+1IHTIC23cP9XGqdS4JHQ4nWOGDu9///tX1HaF0GE6CB1wLOq9AgByQ+hQpji3OW7ocH5RXTZ3NDTf1xDDhOVjQoe80Mb9U22cSo1LQofTIXTAsRA64FjUewUA5IbQoUxxbnOij1dshg7x+W3f6XDnzp0NalGH/dHG/VNtbNQ1H6lxSehwOl1CB3uu+RvF9n/TbPuhH/qhtb9h7PfbhtBhOggdcCzqvQIAckPoUKY4tznNF0muPl5xXl1cXlXz2fX/67si+OsVuaCN+6faOJUal4QOp9MldLAw4U//9E9rPlx497vfXf//13/912uEDmUidMCxqPcKAMgNoUOZ4tzmBKHDNf+xi3jXw/L5Oojw++ygFnXYH23cP9XGqdS4PGXo8Mrrvq76uq/7+ur5md7+3z/8zurHv+66zOveKbaN36Ghw3ve857q7W9/e/WZz3xmbdvdu3erD3zgA2v7KzmEDk89eKF67bXXVl7+5DN7lYn6Om7jqWc+Wb283O+FB08tnnvqmeqTL98cr9Fs7xOhA45FvVcAQG4IHcoU5zanCR16oBZ12B9t3D/VxqnUuDx96PB11VvfOpPb/5e3fn311q//ekKHayp0sMDhYx/72Op5v838wA/8QK0tgBg6dHjmky9vLNCNX/ynlIn6Oq734IWbfXaFDq+99nL1yWf6DR4IHXAs6r0CAHJD6FCmOLchdECNNu6fauNUalyeOnSoQ4Wve131ysb2WfX81y+3EzrUIcKUQoennnpQvbBclDcL/Zsg4IXqQb0A2l3GH9P0dVwv3iHRdieDep2+EDrgWPzPEADIlQ8d1HZMU5zbEDqgRhv3T7VxKjUuTx46vPWddbjw4+8M29/5uurrvv6t1Stv3Qwd7A4Iu0NiIXw8Y/bW6q2rbdeuj/G/uH3r427sax/jUMdpwpBFAPLj71x+3MOFJFvPZYdDQ4cf/dEfrRe0PnRo/O7v/m71fd/3fbXz83MZPAwaOqw+nnBzF0B8bp8yfR3XytTlVkHCy9XLy7saUkKHvj9iQeiAY1HvFQCQGx86qO2Ypji3IXRAjTbun2rjVGpcnj50mC0W7iEcWNvmQoeNsnWI4EOA17mF/yIsWO1fBwkuGHjnWzuFDm/9en/s3eeyy6Ghwx//8R+vBQ3Rf/yP/7H2jne8o7p9+/ba8cygocPqboGbOwviIj2pTAwLejqulTHNxypeeHDzUQofKPjjNPz2vhA64FjUewUA5IbQoUxxbkPogBpt3D/VxqnUuBwidNhY9LsF/3roIMKB1V0I/jlnecdEHQysBQleYuiw9t0Te5xLcGjo8N73vrde1Pqg4V/9q39VBw3+uU9/+tP1Mf3xzJChw+rjDC9/snrmeqFjz8WFf0oZf0zT13HNar8XHlyXTw8d/Ov0hdABx6LeKwAgN4QOZYpzG0IH1Gjj/qk2TqXG5TChw/r/fdCwFjqsfTRinV/o1/v47au7EZZ3PoTyqaHD2j6J57LNoaGDlbu4uFgLGJrnf//3f3/13L/5N/+m/v4HfzwzhTsd/DHr7X0fdxkgtIUOa/us7pbgOx0wHuq9AgByQ+hQpji3IXRAjTbun2rjVGpcDhU63CzybYF/EwBshg7qToWGhQfXC//4kQf/2NSvZQFBc6x9Q4dt57IboUNY+Kd8VKLlYw+Nvo7r/1qF0hYqrPZ74YHcfiyEDjgW9V4BALkhdChTnNsQOqBGG/dPtXEqNS4HCx2ahf3r1kOCtdChDgLiRxqctaBgod4/hg61xestXl+EDmuhgggddp1LgkNDh7t379b/Pvvss2vbvvd7v7d67rnnVs995StfqZ/3xzODhg7uzoKNvyCxuptgdxl/TNPXcfcJHfzrEDpgLNR7BQDkhtChTHFuQ+iAGm3cP9XGqdS4HC50uLb8yIJ/bi10uGb7rN9hMKuef90yVIhBQP3Y3flwffyb4MAHCYv/37zO8o6JbaHDta3nkuDQ0MGef8973lP/3763wdj/3/nOd1Y/+ZM/uSpvdzo05b0hQwezWugH/uMKu8qoOxT6Oq6nPl5xs0+kj3FMhA44FvVeAQC5IXQoU5zbEDqgRhv3T7VxKjUuBw0d6sW+uFPBhQ5msdi/sRFSNNssbPAfr2hCCLHfTdBgrs9h7a4JHTqYbeeyS5fQwZ5rwgb7v2m2vfvd715ts49RmH/6T//pKnT4pV/6pfrPZvrjmaFDBxPvIPDBQEqZtnCgr+OutieHDjcf4egToQOORb1XAEBuCB3KFOc2hA6o0cb9U22cSo3LU4YOpesSOuwym81qtu8P/dAP1QveP/mTP6nZMZ9++umNfXIIHXAchA44FvVeAQC5IXQoU5zbEDqgRhv3T7VxKjUuCR1Oh9ABx0LogGNR7xUAkBtChzLFuc0oQofmdmRPLeqwP9q4f6qNjbrmIzUuCR1O59DQ4QMf+ED19/7e36vLN/3+0z/909V/+k//qfrjP/7j6od/+Idq3/M931OXjfsTOkwHoQOORb1XAEBuCB3KFOc23OmAGm3cP9XGqdS4JHQ4nUNDBytn7K9YfOYzn6n9yq/8SvXe9763+jt/5+/U3+Ng7t27J/cndJgOQgcci3qvAIDcEDqUKc5tCB1Qo437p9o4lRqXhA6nc2joYHcw+LtbjD1nf73ife97n9zHI3SYDkIHHIt6rwCA3BA6lCnObQgdUKON+6faOJUal4QOp3No6HAoQofpIHTAsaj3CgDIDaFDmeLchtABNdq4f6qNU6lxSehwOoQOOBZCBxyLeq8AgNwQOpQpzm0IHVCjjfun2jiVGpeEDqczhtCB4CF/TT+pPvTUAhOI1HsFAOSG0KFMcW5D6IAabdw/1cap1Lg8NHT4uR/5kXoxjd2srdpCh3e96111KNAne41toYMheMhbauBg1AITiNR7BQDkhtChTHFuQ+iAGm3cP9XGqdS4PCR0MLaIRTrVhkaV7YN67ahZ2CJPqs8UtcAEIvVeAQC5IXQoU5zbEDqgRhv3T7VxKjUuDw0dAORJLTABABgjHzqo7ZimOLchdECNNu6fauNUalwSOgDTpN68AQAYI0KHMsW5zclCh9n8qrq6MpfVxfnu53dRizrsjzbun2rjVGpcEjoA06TevAEAGCNChzLFuc1JQgcLFi4vzpOfT6EWddgfbdw/1cap1LgkdACmSb15AwAwRoQOZYpzmxOEDrNqfnlRnSc/n0Yt6rA/2rh/qo1TqXFJ6ABMk3rzBgBgjAgdyhTnNv2HDrN5dTWfV/P6IxTXmqCh7flEalGH/dHG/VNtnEqNS0IHYJrUmzcAAGNE6FCmOLc5Tejgvq9h9ZGKtuf9vluoRR32Rxv3T7VxKjUuCR2AaVJv3gAAjBGhQ5ni3Oa4ocP5RXXZ3LlwNa9m9lx9R8PspkzzuO355vEOalGH/dHG/VNtnEqNS0IHYJrUmzcAAGNE6FCmOLc50ccrDgsd7ty5s0Et6rA/2rh/qo2NuuYjNS4JHYBpUm/eAACMEaFDmeLc5jRfJLn6GMV5dXF5Vc1n255PoxZ12B9t3D/VxqnUuCR0AKZJvXkDADBGhA5linObE4QO1/zHLvzdDG3PJ1CLOuyPNu6fauNUalwSOgDT9OY3vxnoxU/91E/J53c59X6f/OQn5fMpxlLHU7fNvq9naBttTG06lrYZok2n3jaHtOkhbRPnNqcJHXqgFnXYH23cP9XGqdS4PDR0ePbF16rXXnxWbivFj12+Mpk22Naf9bbXgtZ6/1h1+cr19lcuqx+T29E39QYOHMNYJrv7TnTNWOp46rbZ9/UMbaONqU2nvrA2tI12SJse0jZxbkPogBpt3D/VxqnUuDx56PDsi/ksRI90LkWFDmvbnq1efO216pXLH3PPLf3YZfXKK69Ur7z2SnX5Y2EbTkK9gQPHMJbJ7r4TXTOWOp66bfZ9PUPbaGNq06kvrA1tox3Spoe0TZzbEDqgRhv3T7VxKjUuCR0IHbxuocOy7qINrayFEZ2vDxyNegMHjmEsk919J7pmLHU8ddvs+3qGttHG1KZTX1gb2kY7pE0PaZs4tyF0QI027p9q41RqXB43dFjcUv/is8tb6+tb8G9+012Xbbk1v168rrZt/nZ8bd/rRe6zawv95nUXv3l/7bUXq2fteftt++qYi/2axXF/5zJu6/25e5sOXKwflu1W98GyP3BS6g0cOIaxTHb3neiasdTx1G2z7+sZ2kYbU5tOfWFtaBvtkDY9pG3i3IbQATXauH+qjVOpcdlH6LARNPjfhIu7CzZ+W25l3EJVHmMtKFi87iuvvLgWEPzYpX+8PDe/QO7lXMZNBQut2+pAYTOUWW/XJhAKZdA79QYOHMNYJrv7TnTNWOp46rbZ9/UMbaONqU2nvrA2tI12SJse0jZxbkPogBpt3D/VxqnUuOwjdFj7jH/8TffGQt/9Vnz1nF+oqu0Jr6vE1+7lXMZtZ+jQ3OGxvMvjpu3Wy/m+0HdDoG/qDRwAAGAs4tyG0AE12rh/qo1TqXHZR+iw9lvt+NtwtfD3C1mnPk7L7fnrC1nxur6cP+620OEo5zJuO0OH1TYLYESbq7sf1HPonXrzBgAAGIs4tyF0QI027p9q41RqXOYROmwu5Fdatu8OHRaL4p0hw9HPZdzSQ4droj02Qh5n550oOCr15g0AADAWcW5D6IAabdw/1cap1LgcPHTY9Vvwlu1prysWxNtCh6Ocy7h1Ch2W7X4TJsTHNzbaHr1Tb94AAABjEec2hA6o0cb9U22cSo3LQUKHEAbUx1h77vo4LzYL1MUxN+9I6Pi69WN1nC7nsty+9VzGbTNY2LGtrv+ynbeFNsv2X78bBX1Sb94AAABjEec2hA6o0cb9U22cSo3Lk4cOTYgQFuqLxf6N9d+Wu32W++3+eEW41d+CAlsgr/22vY9zGbdY99qyzWTo0LTHdZlL277WvqLcRNppDNSbNwAAwFjEuQ2hA2q0cf9UG6dS4/LQ0GEotgDmOwKAdurNG2h192F1dXVVe3z/6d3P7yPlWC1lnr7/ePX81dXD6q7fp/Z0df9xs/2qenj3Ztvufa91rf8x28X02jY36rKP71dPN88d8Lqdn9/XAed4SNtw3Wwpc8Drdn5+Xwec4yFtM/Xrxtx9uHj+6upxdf9pt0/jkHqEMnFuM4rQ4ezsbINa1GF/tHH/VBsbdc1HalyOMnQQH4sAsE6+mQPBYsJ4t3q4mhzb/5uJZNvz+0g5VnsZm+T6IGHT3epus/3p+9VjN9lP2bdb/due31fK8drL7K5fw/a7nsyvFtaHvG7X5/eVcrz2Mvu3DdeN0WUOed2uz+8r5XjtZfZvmzKum9bAoNa2b/sxt+0b5zbc6YAabdw/1cap1LgcQ+iwecs/gQOwy/obOaDVk0f7zdLDu6vn7Dd1W59fPu4k5Vhbytx92GWi7SeuCft2rf8x28WcqG1sn4f371ePm4X1Ia/b9fnl484OOcfr/+/dNte4blrKHPK6XZ9fPu7skHO8/v/ebbPl+ZVRt831z1Y3RqRD6iHKxLkNoQNqtHH/VBunUuNyDKEDgO7W3siBFjbB25j8LSd+bc+vHnfQeiz7dzmJbX+99Y9OrMq4fVf7rO1nj1v2dbrW/5jtYk7SNnb3h5W3f3cec/l4S5muz68ed9R6PPu3x7bhurHyukxKPbq2Qcoxu2g9nv3bY9tM/rqp/31Y1XcFmaY9EvZNqYcqE+c2hA6o0cb9U22cSo1LQgdgmvwbOdBm22QwZZKYqvVY9u/ORcDycc3dluv2tW22fz0Rbj1Ht697vmv9084zXevxXP3SXrOtbWwhtHy+qNBh+bjWrW1a93XPT79tdJmUY3Ztg7TzTNd6PPu3x7ZJeX7UbWP/ujqtPmqRsG9KPVSZOLchdECNNu6fauNUalwSOgDT5N/IgTbbJoMpk8RU+0441evt/Eyx7ScXAXrfrvU/ZruYvttmbd+phA4dy5gubePLmBKvm6gpc8jrdn1+9bijQ87RlzFd2ibl+VG3TSzbYd99XzfObQgdUKON+6faOJUal8cIHV7/+tcjgWq7HKlzL5lqozHwb+RAm3qCFyZ/q4lf2/PLx52kHCvx9Wwif9Qveeta/2O2i+m1bey3rTe3e6/Y4vqQ1+36/PJxZ4ecoy9zrVPbuP30vtcm3TabVmUOed2uzy8fd3bIOfoy1zq1TcrzY26b8PzGY/Fcp3qIMnFuQ+iAGm3cP9XGqdS4PDR0aBZmb3vb27DFWBaw9Oe6sfSbsvZGDrSo7waw3/CqbxVve97tn6ztWDbJbBZ5Ka9XlxH73r27+uLIpH1T6tn1+eZ1umo73rHaJpbZecyEunZ9vn68h7bj9d028fnVMQ9og7bnm9fpqu14fbXNznok1LXr8/XjPbQdr++2aX3+gDZoe755na7ajpfUNv7/i++vWAVRu/ZNOaYoE+c2hA6o0cb9U22cSo3LQ0IHFqjd5L6ApT+13PutjZxsAG1s0rj8Te/ab+bant+HOpafrLaVqSefi+da960nq6JM275rk95rbfXs+vy+1PF8/drKpLSNZ+2UdMzS24brpr0NluU2nqdttj8/hba55n/WNnclpO4rn9/eNnFuQ+iAGm3cP9XGqdS4PDR0UIs0tMt58Up/tiN0AAAAOK04tyF0QI027p9q41RqXBI6nBahwzgROgAAAJxWnNv0HjqcX1yubrW4Ma9m19tm85vnLi/O5f5t1KIO+6ON+6faOJUal4QOp0XoME6EDgAAAKcV5zYnv9PBQog6YDi/qC5mzfOzan51WV2cr5fdRi3qsD/auH+qjVOpcUnocFqEDuNE6AAAAHBacW5z4tDBwoXFXQ7rz59XF5eEDkOijfun2jiVGpdjCR2eeupB9cJrr1WvOS9/8pmNcs988uW1Mq+98GCjTOOpBy+sl13zQvXgqafkfocgdFj31DOfrF5etvkLD3R7P/XUM9UnX479016+D2MMHdRYBgAA06De+6futKHDbN7yMYq2MKKdWtRhf7Rx/1Qbp1LjcgyhQ9ui0/jgYSNwaLz8yeoZESAQOqwbInR48MJNm3cNHV577eXqk8+cJngYa+jwjne8AwAATIy9xzfv9YeI84ZD9HUs74ShQ/vdDPbdDnynw7Bo4/6pNk6lxuV4Qof1EGC1WF0GCn5h2gQRN6FC+uK0OW5fv0UndLgRQ5/UNvd3vai7XfpA6AAAAHJh7/HNe/0HP/jBvTTH8PMGVS5Fn8fyjhs6nF9Ul+HLIte2zWfr5esgonvgYNSiDvujjfun2jiVGpdjCB2U1V0NG6HDTcBwszhNu2thtQhuuTPiGAgdFm765uXq5WVYtE/ocKqPWBA6AACAXNh7fPNerxbuKZpj+HmDKpeiz2N5J7vTwb5Acr764kiT/j0Od+7cASZLXfORGpdjDB3aftPtvx/AS1mY+jsl+lzIEjos3NxRktbuvs8bpwocDKFDuve9733Vc889BwCTZT/n1M8/4FTsPb55r1cL9xTNMfy8QZVL0eexvBOFDiJgmM2rq407HwAoalyOLXRYX3yu38GgP/ufeJfDKrDo57scGoQO7i6VFx4khz0qdOjzjpRo6qHDT/7kT9bm87ncnkpNzgFgqtTPQaCrn//5n68ePHhQs18kqjKRvcc37/Vq4Z6iOYafN6hyKfo8lnei0GHziyLtzofFxzBu7PMxC6AEalzmFDpsLixDqOC/AyAsOLd/p8PuIKH5zXvf3xFQeugQP8Kyzx0m/o4WvtOhnY1dNVHxmqDBJjwNVS4FdzgAKA13POAY/HuwSQkf7D2+ea9XC/fGSy+9VFPbmmP4eUMs8yu/8isbzzX8tpRjpYrH8k74RZIA9qXG5VhCBx84qIWmChhUEKHcvG7/fw2h9NDhgftrFUpqiLA6zpY/iXpMhA67qQk5AEyd+nkIdOHfg02uoYP9Pz5u/p9yrFTxWB6hAzACalzmFDq08WFE26LU//a7+Y25ek7pckfEoQgdFv3RJiV0WAunCB1a2dhVExX/UYo40TFqnxRqMg4AU6d+HgJdqPdis+0jF/Ye37zXq4V7gzsdkGBWzS8vqnO5DcdhH9lxH8+Z+PeDqHE5itDB3eWwQdymv2kRJtyEEOt3NDw44W/NSw8dIvXxithPPjxa1/+dKY0phA42afm5n/s5ObHx/D5dqMk4AEyd+nkIdKHeiz1774772Ht8814fF+1N0NCmKdccw88b/HHMMUMHK79NUy4eyyN06AWhQ/98G1sAkfaXUMZKjcuphA5N2QfxN+luuwodUj+CcSyEDuv2Dx36vyvFm0LoYCx4aH5zoiY2Ju6TSk3GAWDq1M9DoAv1Xmx3IzZ3Jqp97D2+ea/3C3ujggavKdccw88b/HGMDwOibUFB27G2acrFY3mEDr0gdOhfDB3Wv6h0atS4HEPoMCWEDuM0ldDBawKIONFRZVOoyTgATJ36eQh04d+Dm7BBlfPsPb55r/cL+ygGDV5zDD9viGV8GBBtCwp2ndc28VgeoUMvCB36Z0FD8/GKaQcORo1LQofTInQYJ0KH3fjrFQBKw1+vwDH49+CcQ4d4RwKhw2QQOvTvpo3tz69O/c+tqnFJ6HBahA7jNMXQoRE/cqHKpFKTcgCYKvVzEOhq10cpFHuPb97r1cK9wZ0OSEDo0D/fxufVxSUfr1AIHY6H0GGcphw6eBZAqOe74I4HAFPHHQ4Ymr3HN+/1auGeojmGnzeocin6PJZH6NALf+v/1eR/Cz+MEOzM5tXVhIMeNS4JHU6L0GGcSgkdAABA/uw9vnmvVwv3FM0x/LxBlUvR57E8QgdgBNS4JHQ4LUKHcSJ0AAAAubD3+Oa9/hBx3nCIvo7lEToAI6DG5aGhAwvVdE17qbbMAf2p5d5vbWzsqokKAAAYN3uPV+/9U0foAIyAGpeHhA6GhWqasSxc6c91Y+k3RY1lAAAwDeq9f+oIHYARUOPy0NDBNAszbKfaLkfq3Eum2ggAAACnRegAjIAal8cIHQAAAACgT4QOwAiocUnoAAAAACB3SaEDgPwQOgAAAADIHaEDMFKEDgAAAAByR+gAjBShAwAAAIDcEToAI0XoAAAAACB3hA7ASBE6AAAAAMjdRugAYDz8+FXUPgAAAABwKmuhAwAAAAAAwLEQOgAAAAAAgF4QOgAAAAAAgF4QOgAAAAAAgB58e/X/B2ktZDU6iGn5AAAAAElFTkSuQmCC;clipPath=inset(0% 0% 0% 23.33%);imageBorder=default;" parent="1" vertex="1">
          <mxGeometry x="600" y="80" width="1195.48" height="920" as="geometry" />
        </mxCell>
      </root>
    </mxGraphModel>
  </diagram>
</mxfile>
